{"glyphs":{"0":{"ha":851,"x_min":63,"x_max":788,"o":"m 426 1019 q 618 959 537 1019 q 744 784 700 900 q 788 500 788 667 q 744 218 788 333 q 619 45 701 103 q 425 -12 538 -12 q 231 45 312 -12 q 106 217 149 103 q 63 499 63 332 q 107 783 63 667 q 232 959 151 900 q 426 1019 314 1019 m 426 107 q 584 200 533 107 q 636 499 636 293 q 583 804 636 708 q 425 900 531 900 q 266 803 319 900 q 213 499 213 707 q 266 201 213 295 q 426 107 319 107 z "},"1":{"ha":564,"x_min":61,"x_max":398,"o":"m 252 790 l 61 790 l 61 881 q 200 894 149 881 q 273 934 251 908 q 299 1004 296 961 l 398 1004 l 398 0 l 252 0 l 252 790 z "},"2":{"ha":852,"x_min":72,"x_max":777,"o":"m 93 125 q 134 280 93 215 q 234 387 176 345 q 390 481 293 428 q 516 556 469 525 q 593 630 562 587 q 624 729 624 673 q 600 816 624 778 q 533 874 576 853 q 431 895 489 895 q 322 871 369 895 q 246 802 274 847 q 212 697 217 758 l 72 697 q 116 860 74 787 q 240 975 158 933 q 437 1018 322 1018 q 615 982 539 1018 q 732 881 691 946 q 774 729 774 815 q 733 575 774 639 q 633 471 692 511 q 480 381 575 431 q 356 310 401 340 q 281 240 311 281 q 251 142 251 198 l 251 124 l 777 124 l 777 0 l 93 0 l 93 125 z "},"3":{"ha":867,"x_min":56,"x_max":807,"o":"m 67 708 q 114 875 67 805 q 241 982 160 945 q 419 1018 322 1018 q 608 988 526 1018 q 735 899 690 958 q 781 757 781 840 q 734 622 781 681 q 590 530 686 563 q 749 438 690 503 q 807 278 807 374 q 757 122 807 188 q 618 21 706 56 q 419 -14 530 -14 q 231 23 312 -14 q 103 130 149 60 q 56 292 58 199 l 195 292 q 268 154 209 202 q 419 106 328 106 q 543 127 490 106 q 625 189 597 149 q 654 281 654 228 q 623 377 654 337 q 536 439 591 417 q 413 460 481 460 l 321 463 l 321 581 l 407 584 q 520 608 469 585 q 600 669 571 631 q 628 752 628 707 q 603 827 628 793 q 530 882 578 862 q 419 902 483 902 q 316 881 363 902 q 239 817 269 860 q 206 708 208 774 l 67 708 z "},"4":{"ha":867,"x_min":53,"x_max":826,"o":"m 662 1004 l 662 374 l 826 374 l 826 250 l 662 250 l 662 0 l 523 0 l 524 250 l 53 250 l 53 376 l 519 1004 l 662 1004 m 522 374 l 522 822 l 187 374 l 522 374 z "},"5":{"ha":903,"x_min":64,"x_max":830,"o":"m 769 1004 l 765 883 l 280 883 l 255 574 q 362 635 305 616 q 489 655 419 655 q 661 617 583 655 q 784 505 738 579 q 830 328 830 431 q 784 148 830 225 q 655 28 738 70 q 460 -14 571 -14 q 287 18 367 -14 q 148 107 206 50 q 64 238 90 164 l 183 294 q 289 155 222 206 q 449 104 356 104 q 570 131 517 104 q 651 207 622 158 q 679 324 679 257 q 650 434 679 385 q 570 509 621 482 q 458 535 519 535 q 382 528 415 535 q 316 501 349 522 q 247 444 283 481 q 239 441 240 441 q 235 442 237 441 q 231 444 233 443 l 115 484 l 161 1004 l 769 1004 z "},"6":{"ha":865,"x_min":63,"x_max":805,"o":"m 460 1025 q 619 993 546 1025 q 738 901 692 961 q 794 759 785 841 l 661 759 q 590 869 641 830 q 463 908 539 908 q 281 816 344 908 q 217 554 217 725 q 219 493 217 524 q 276 576 238 540 q 364 632 314 612 q 471 651 415 651 q 646 613 570 651 q 763 503 722 574 q 805 335 805 432 q 761 158 805 235 q 636 38 717 81 q 449 -5 556 -5 q 244 55 331 -5 q 110 227 157 115 q 63 493 63 340 q 109 775 63 656 q 244 960 155 895 q 460 1025 334 1025 m 447 538 q 345 514 394 538 q 266 448 296 489 q 235 362 235 408 q 261 230 235 288 q 336 140 288 172 q 447 108 384 108 q 552 136 506 108 q 626 214 599 164 q 652 328 652 264 q 598 483 652 428 q 447 538 544 538 z "},"7":{"ha":818,"x_min":56,"x_max":768,"o":"m 768 1004 l 768 883 q 599 600 683 768 q 458 269 515 433 q 390 0 401 105 l 236 0 q 298 248 251 101 q 426 563 345 394 q 615 883 506 731 l 56 883 l 56 1004 l 768 1004 z "},"8":{"ha":895,"x_min":61,"x_max":834,"o":"m 447 1020 q 623 988 545 1020 q 745 894 701 956 q 790 746 790 832 q 748 615 790 668 q 634 530 706 561 q 730 483 683 520 q 805 391 776 445 q 834 281 834 338 q 786 130 834 195 q 651 30 738 65 q 447 -6 563 -6 q 244 30 331 -6 q 109 130 156 65 q 61 281 61 195 q 90 391 61 338 q 165 483 119 445 q 261 530 212 520 q 147 615 188 561 q 105 746 105 668 q 149 894 105 832 q 272 988 194 956 q 447 1020 349 1020 m 447 589 q 591 631 537 589 q 644 749 644 673 q 619 839 644 801 q 550 898 594 877 q 447 918 505 918 q 344 897 390 918 q 274 838 299 876 q 249 749 249 800 q 303 631 249 673 q 447 589 358 589 m 447 106 q 571 127 518 106 q 652 190 624 149 q 681 283 681 230 q 652 378 681 336 q 570 443 624 419 q 447 466 517 466 q 324 443 377 466 q 242 378 271 419 q 213 283 213 336 q 242 190 213 230 q 324 127 271 149 q 447 106 377 106 z "},"9":{"ha":874,"x_min":67,"x_max":809,"o":"m 408 -6 q 248 26 322 -6 q 125 119 174 58 q 67 259 77 179 l 204 259 q 274 151 221 191 q 403 110 327 110 q 598 201 528 110 q 667 476 667 291 q 666 530 667 492 q 611 442 649 480 q 522 383 574 404 q 408 362 469 362 q 232 401 309 362 q 113 512 156 440 q 71 683 71 585 q 114 860 71 783 q 237 981 157 938 q 423 1024 317 1024 q 628 964 541 1024 q 762 792 715 904 q 809 525 809 679 q 762 236 809 356 q 625 56 715 117 q 408 -6 535 -6 m 426 480 q 527 505 478 480 q 607 570 576 529 q 637 657 637 611 q 611 789 638 731 q 536 878 585 847 q 425 910 488 910 q 321 883 367 910 q 250 805 275 855 q 224 690 224 755 q 277 536 224 592 q 426 480 329 480 z "},"\r":{"ha":326,"x_min":0,"x_max":0,"o":""}," ":{"ha":328,"x_min":0,"x_max":0,"o":""},"A":{"ha":985,"x_min":51,"x_max":934,"o":"m 414 1004 l 572 1004 l 934 0 l 790 0 l 694 267 l 293 267 l 195 0 l 51 0 l 414 1004 m 657 396 l 494 865 l 328 396 l 657 396 z "},"Á":{"ha":985,"x_min":51,"x_max":934,"o":"m 414 1004 l 572 1004 l 934 0 l 790 0 l 694 267 l 293 267 l 195 0 l 51 0 l 414 1004 m 657 396 l 494 865 l 328 396 l 657 396 m 681 1200 l 328 1099 l 305 1167 l 647 1303 l 681 1200 z "},"Ă":{"ha":985,"x_min":51,"x_max":934,"o":"m 414 1004 l 572 1004 l 934 0 l 790 0 l 694 267 l 293 267 l 195 0 l 51 0 l 414 1004 m 657 396 l 494 865 l 328 396 l 657 396 m 714 1289 q 671 1211 701 1246 q 596 1155 641 1176 q 495 1134 551 1134 q 356 1177 413 1134 q 281 1289 299 1219 l 379 1289 q 424 1237 398 1258 q 495 1216 451 1216 q 613 1289 571 1216 l 714 1289 z "},"Ắ":{"ha":985,"x_min":51,"x_max":934,"o":"m 414 1004 l 572 1004 l 934 0 l 790 0 l 694 267 l 293 267 l 195 0 l 51 0 l 414 1004 m 657 396 l 494 865 l 328 396 l 657 396 z "},"Ặ":{"ha":985,"x_min":51,"x_max":934,"o":"m 414 1004 l 572 1004 l 934 0 l 790 0 l 694 267 l 293 267 l 195 0 l 51 0 l 414 1004 m 657 396 l 494 865 l 328 396 l 657 396 m 714 1289 q 671 1211 701 1246 q 596 1155 641 1176 q 495 1134 551 1134 q 356 1177 413 1134 q 281 1289 299 1219 l 379 1289 q 424 1237 398 1258 q 495 1216 451 1216 q 613 1289 571 1216 l 714 1289 z "},"Ằ":{"ha":985,"x_min":51,"x_max":934,"o":"m 414 1004 l 572 1004 l 934 0 l 790 0 l 694 267 l 293 267 l 195 0 l 51 0 l 414 1004 m 657 396 l 494 865 l 328 396 l 657 396 z "},"Ẳ":{"ha":985,"x_min":51,"x_max":934,"o":"m 414 1004 l 572 1004 l 934 0 l 790 0 l 694 267 l 293 267 l 195 0 l 51 0 l 414 1004 m 657 396 l 494 865 l 328 396 l 657 396 z "},"Ẵ":{"ha":985,"x_min":51,"x_max":934,"o":"m 414 1004 l 572 1004 l 934 0 l 790 0 l 694 267 l 293 267 l 195 0 l 51 0 l 414 1004 m 657 396 l 494 865 l 328 396 l 657 396 z "},"Â":{"ha":985,"x_min":51,"x_max":934,"o":"m 414 1004 l 572 1004 l 934 0 l 790 0 l 694 267 l 293 267 l 195 0 l 51 0 l 414 1004 m 657 396 l 494 865 l 328 396 l 657 396 m 494 1227 l 390 1131 l 269 1131 l 445 1296 l 547 1296 l 718 1131 l 590 1131 l 494 1227 z "},"Ấ":{"ha":985,"x_min":51,"x_max":934,"o":"m 414 1004 l 572 1004 l 934 0 l 790 0 l 694 267 l 293 267 l 195 0 l 51 0 l 414 1004 m 657 396 l 494 865 l 328 396 l 657 396 z "},"Ậ":{"ha":985,"x_min":51,"x_max":934,"o":"m 414 1004 l 572 1004 l 934 0 l 790 0 l 694 267 l 293 267 l 195 0 l 51 0 l 414 1004 m 657 396 l 494 865 l 328 396 l 657 396 m 492 1227 l 388 1131 l 267 1131 l 443 1296 l 544 1296 l 716 1131 l 588 1131 l 492 1227 z "},"Ầ":{"ha":985,"x_min":51,"x_max":934,"o":"m 414 1004 l 572 1004 l 934 0 l 790 0 l 694 267 l 293 267 l 195 0 l 51 0 l 414 1004 m 657 396 l 494 865 l 328 396 l 657 396 z "},"Ẩ":{"ha":985,"x_min":51,"x_max":934,"o":"m 414 1004 l 572 1004 l 934 0 l 790 0 l 694 267 l 293 267 l 195 0 l 51 0 l 414 1004 m 657 396 l 494 865 l 328 396 l 657 396 z "},"Ẫ":{"ha":985,"x_min":51,"x_max":934,"o":"m 414 1004 l 572 1004 l 934 0 l 790 0 l 694 267 l 293 267 l 195 0 l 51 0 l 414 1004 m 657 396 l 494 865 l 328 396 l 657 396 z "},"Ȁ":{"ha":985,"x_min":51,"x_max":934,"o":"m 414 1004 l 572 1004 l 934 0 l 790 0 l 694 267 l 293 267 l 195 0 l 51 0 l 414 1004 m 657 396 l 494 865 l 328 396 l 657 396 m 453 1116 l 406 1060 l 191 1223 l 261 1306 l 453 1116 m 685 1116 l 640 1060 l 424 1223 l 494 1306 l 685 1116 z "},"Ä":{"ha":985,"x_min":51,"x_max":934,"o":"m 414 1004 l 572 1004 l 934 0 l 790 0 l 694 267 l 293 267 l 195 0 l 51 0 l 414 1004 m 657 396 l 494 865 l 328 396 l 657 396 m 292 1287 l 442 1287 l 442 1145 l 292 1145 l 292 1287 m 540 1287 l 690 1287 l 690 1145 l 540 1145 l 540 1287 z "},"Ạ":{"ha":985,"x_min":51,"x_max":934,"o":"m 414 1004 l 572 1004 l 934 0 l 790 0 l 694 267 l 293 267 l 195 0 l 51 0 l 414 1004 m 657 396 l 494 865 l 328 396 l 657 396 z "},"À":{"ha":985,"x_min":51,"x_max":934,"o":"m 414 1004 l 572 1004 l 934 0 l 790 0 l 694 267 l 293 267 l 195 0 l 51 0 l 414 1004 m 657 396 l 494 865 l 328 396 l 657 396 m 666 1167 l 643 1099 l 290 1200 l 324 1303 l 666 1167 z "},"Ả":{"ha":985,"x_min":51,"x_max":934,"o":"m 414 1004 l 572 1004 l 934 0 l 790 0 l 694 267 l 293 267 l 195 0 l 51 0 l 414 1004 m 657 396 l 494 865 l 328 396 l 657 396 m 437 1260 q 492 1278 465 1278 q 535 1256 522 1278 q 543 1230 543 1245 q 531 1195 543 1213 q 497 1165 519 1178 l 537 1103 q 601 1161 579 1128 q 624 1228 624 1193 q 600 1299 624 1264 q 556 1339 583 1324 q 496 1353 528 1353 q 397 1322 446 1353 l 437 1260 z "},"Ȃ":{"ha":985,"x_min":51,"x_max":934,"o":"m 414 1004 l 572 1004 l 934 0 l 790 0 l 694 267 l 293 267 l 195 0 l 51 0 l 414 1004 m 657 396 l 494 865 l 328 396 l 657 396 m 608 1190 q 490 1263 566 1263 q 419 1242 446 1263 q 374 1190 393 1222 l 276 1190 q 351 1302 294 1259 q 490 1345 408 1345 q 591 1324 545 1345 q 666 1268 636 1303 q 709 1190 697 1233 l 608 1190 z "},"Ā":{"ha":985,"x_min":51,"x_max":934,"o":"m 414 1004 l 572 1004 l 934 0 l 790 0 l 694 267 l 293 267 l 195 0 l 51 0 l 414 1004 m 657 396 l 494 865 l 328 396 l 657 396 m 706 1177 l 278 1177 l 278 1274 l 706 1274 l 706 1177 z "},"Ą":{"ha":985,"x_min":51,"x_max":965,"o":"m 865 -159 q 921 -151 895 -159 q 965 -133 947 -144 l 965 -205 q 909 -225 946 -217 q 833 -234 872 -234 q 729 -205 765 -234 q 693 -124 693 -176 q 718 -54 693 -84 q 806 0 743 -24 l 790 0 l 694 267 l 293 267 l 195 0 l 51 0 l 414 1004 l 572 1004 l 933 2 l 935 2 l 933 1 l 934 0 l 931 0 q 833 -53 862 -28 q 804 -110 804 -78 q 819 -147 804 -135 q 865 -159 833 -159 m 657 396 l 494 865 l 328 396 l 657 396 z "},"Å":{"ha":985,"x_min":51,"x_max":934,"o":"m 414 1004 l 572 1004 l 934 0 l 790 0 l 694 267 l 293 267 l 195 0 l 51 0 l 414 1004 m 657 396 l 494 865 l 328 396 l 657 396 m 638 1229 q 619 1156 638 1190 q 566 1104 599 1123 q 493 1085 533 1085 q 420 1104 453 1085 q 368 1157 387 1124 q 349 1232 349 1191 q 368 1302 349 1270 q 420 1353 388 1334 q 493 1372 453 1372 q 566 1352 533 1372 q 619 1301 599 1333 q 638 1229 638 1268 m 565 1228 q 544 1281 565 1260 q 492 1301 523 1301 q 439 1281 461 1301 q 417 1228 417 1260 q 440 1176 417 1199 q 492 1153 462 1153 q 543 1176 522 1153 q 565 1228 565 1199 z "},"Ǻ":{"ha":985,"x_min":51,"x_max":934,"o":"m 934 0 l 790 0 l 694 267 l 293 267 l 195 0 l 51 0 l 403 975 q 365 1023 379 994 q 351 1085 351 1051 q 383 1170 351 1134 q 463 1216 415 1207 l 485 1306 l 585 1306 l 544 1210 q 609 1161 585 1195 q 633 1083 633 1127 q 620 1022 633 1049 q 582 976 606 994 l 934 0 m 490 1155 q 439 1134 460 1155 q 417 1081 417 1113 q 427 1045 417 1062 q 455 1017 438 1028 q 490 1006 472 1006 q 542 1029 521 1006 q 564 1081 564 1051 q 543 1134 564 1113 q 490 1155 522 1155 m 657 396 l 494 865 l 328 396 l 657 396 z "},"Ã":{"ha":985,"x_min":51,"x_max":934,"o":"m 414 1004 l 572 1004 l 934 0 l 790 0 l 694 267 l 293 267 l 195 0 l 51 0 l 414 1004 m 657 396 l 494 865 l 328 396 l 657 396 m 710 1204 q 586 1163 654 1163 q 538 1167 560 1163 q 489 1182 517 1172 q 445 1195 464 1190 q 406 1199 426 1199 q 355 1190 375 1199 q 306 1159 334 1180 l 281 1232 q 335 1272 308 1258 q 399 1286 362 1286 q 446 1281 424 1286 q 499 1265 469 1276 q 547 1251 527 1256 q 586 1247 567 1247 q 638 1257 615 1247 q 687 1288 660 1268 l 710 1204 z "},"Æ":{"ha":1378,"x_min":0,"x_max":1289,"o":"m 1289 0 l 632 0 l 632 270 l 293 270 l 144 0 l 0 0 l 552 1004 l 1272 1004 l 1272 883 l 794 883 l 794 567 l 1143 567 l 1143 446 l 794 446 l 794 122 l 1289 122 l 1289 0 m 632 904 l 349 396 l 632 396 l 632 904 z "},"Ǽ":{"ha":1378,"x_min":0,"x_max":1289,"o":"m 1289 0 l 632 0 l 632 270 l 293 270 l 144 0 l 0 0 l 552 1004 l 1272 1004 l 1272 883 l 794 883 l 794 567 l 1143 567 l 1143 446 l 794 446 l 794 122 l 1289 122 l 1289 0 m 632 904 l 349 396 l 632 396 l 632 904 m 1088 1200 l 734 1099 l 711 1167 l 1053 1303 l 1088 1200 z "},"B":{"ha":932,"x_min":126,"x_max":856,"o":"m 126 1004 l 456 1004 q 736 937 641 1004 q 831 742 831 869 q 789 605 831 660 q 647 513 746 549 q 856 270 856 465 q 759 67 856 133 q 468 0 663 0 l 126 0 l 126 1004 m 482 567 q 632 605 570 567 q 694 724 694 642 q 632 847 694 805 q 465 889 570 889 l 268 889 l 268 567 l 482 567 m 468 116 q 650 157 588 116 q 712 279 712 198 q 648 406 712 364 q 482 449 585 449 l 268 449 l 268 116 l 468 116 z "},"C":{"ha":976,"x_min":83,"x_max":900,"o":"m 511 1018 q 703 977 618 1018 q 839 864 788 935 q 900 706 890 793 l 750 700 q 672 843 733 790 q 508 897 610 897 q 308 799 377 897 q 240 503 240 702 q 309 207 240 306 q 515 108 379 108 q 622 132 574 108 q 702 201 670 156 q 747 304 735 245 l 897 295 q 839 138 886 208 q 710 27 792 67 q 517 -14 628 -14 q 285 49 383 -14 q 135 230 187 113 q 83 506 83 347 q 134 780 83 664 q 281 957 185 895 q 511 1018 378 1018 z "},"Ć":{"ha":976,"x_min":83,"x_max":900,"o":"m 511 1018 q 703 977 618 1018 q 839 864 788 935 q 900 706 890 793 l 750 700 q 672 843 733 790 q 508 897 610 897 q 308 799 377 897 q 240 503 240 702 q 309 207 240 306 q 515 108 379 108 q 622 132 574 108 q 702 201 670 156 q 747 304 735 245 l 897 295 q 839 138 886 208 q 710 27 792 67 q 517 -14 628 -14 q 285 49 383 -14 q 135 230 187 113 q 83 506 83 347 q 134 780 83 664 q 281 957 185 895 q 511 1018 378 1018 m 700 1200 l 347 1099 l 324 1167 l 665 1303 l 700 1200 z "},"Č":{"ha":976,"x_min":83,"x_max":900,"o":"m 511 1018 q 703 977 618 1018 q 839 864 788 935 q 900 706 890 793 l 750 700 q 672 843 733 790 q 508 897 610 897 q 308 799 377 897 q 240 503 240 702 q 309 207 240 306 q 515 108 379 108 q 622 132 574 108 q 702 201 670 156 q 747 304 735 245 l 897 295 q 839 138 886 208 q 710 27 792 67 q 517 -14 628 -14 q 285 49 383 -14 q 135 230 187 113 q 83 506 83 347 q 134 780 83 664 q 281 957 185 895 q 511 1018 378 1018 m 735 1291 l 563 1126 l 462 1126 l 285 1291 l 407 1291 l 511 1195 l 607 1291 l 735 1291 z "},"Ç":{"ha":976,"x_min":83,"x_max":900,"o":"m 515 108 q 622 132 574 108 q 702 201 670 156 q 747 304 735 245 l 897 295 q 843 145 887 213 q 725 35 800 77 q 549 -13 650 -7 l 524 -76 q 622 -109 591 -79 q 652 -180 652 -140 q 631 -238 652 -213 q 576 -275 610 -262 q 499 -287 541 -287 q 362 -252 417 -287 l 385 -196 q 482 -228 430 -228 q 556 -179 556 -228 q 529 -135 556 -149 q 444 -119 503 -120 q 433 -115 433 -119 l 435 -109 l 477 -12 q 265 63 354 -3 q 130 242 176 128 q 83 506 83 355 q 134 780 83 664 q 281 957 185 895 q 511 1018 378 1018 q 703 977 618 1018 q 839 864 788 935 q 900 706 890 793 l 750 700 q 672 843 733 790 q 508 897 610 897 q 308 799 377 897 q 240 503 240 702 q 309 207 240 306 q 515 108 379 108 z "},"Ĉ":{"ha":976,"x_min":83,"x_max":900,"o":"m 511 1018 q 703 977 618 1018 q 839 864 788 935 q 900 706 890 793 l 750 700 q 672 843 733 790 q 508 897 610 897 q 308 799 377 897 q 240 503 240 702 q 309 207 240 306 q 515 108 379 108 q 622 132 574 108 q 702 201 670 156 q 747 304 735 245 l 897 295 q 839 138 886 208 q 710 27 792 67 q 517 -14 628 -14 q 285 49 383 -14 q 135 230 187 113 q 83 506 83 347 q 134 780 83 664 q 281 957 185 895 q 511 1018 378 1018 m 511 1227 l 407 1131 l 286 1131 l 462 1296 l 563 1296 l 735 1131 l 607 1131 l 511 1227 z "},"Ċ":{"ha":976,"x_min":83,"x_max":900,"o":"m 511 1018 q 703 977 618 1018 q 839 864 788 935 q 900 706 890 793 l 750 700 q 672 843 733 790 q 508 897 610 897 q 308 799 377 897 q 240 503 240 702 q 309 207 240 306 q 515 108 379 108 q 622 132 574 108 q 702 201 670 156 q 747 304 735 245 l 897 295 q 839 138 886 208 q 710 27 792 67 q 517 -14 628 -14 q 285 49 383 -14 q 135 230 187 113 q 83 506 83 347 q 134 780 83 664 q 281 957 185 895 q 511 1018 378 1018 m 437 1261 l 586 1261 l 586 1120 l 437 1120 l 437 1261 z "},"D":{"ha":970,"x_min":126,"x_max":894,"o":"m 126 1004 q 372 1003 287 1004 q 768 874 642 999 q 894 508 894 749 q 761 129 894 258 q 360 0 629 0 l 126 0 l 126 1004 m 272 120 l 360 120 q 645 211 546 120 q 744 506 744 302 q 700 727 744 644 q 572 847 656 810 q 365 884 489 884 l 272 884 l 272 120 z "},"Ð":{"ha":992,"x_min":49,"x_max":916,"o":"m 394 1003 q 790 874 665 999 q 916 508 916 749 q 784 129 916 258 q 382 0 651 0 l 149 0 l 149 445 l 49 445 l 49 556 l 149 556 l 149 1004 q 394 1003 309 1004 m 383 120 q 668 211 569 120 q 767 506 767 302 q 723 727 767 644 q 595 847 678 810 q 388 884 512 884 l 294 884 l 294 556 l 519 556 l 519 445 l 294 445 l 294 120 l 383 120 z "},"Ď":{"ha":970,"x_min":126,"x_max":894,"o":"m 126 1004 q 372 1003 287 1004 q 768 874 642 999 q 894 508 894 749 q 761 129 894 258 q 360 0 629 0 l 126 0 l 126 1004 m 272 120 l 360 120 q 645 211 546 120 q 744 506 744 302 q 700 727 744 644 q 572 847 656 810 q 365 884 489 884 l 272 884 l 272 120 m 698 1291 l 526 1126 l 425 1126 l 249 1291 l 370 1291 l 474 1195 l 570 1291 l 698 1291 z "},"Đ":{"ha":992,"x_min":49,"x_max":916,"o":"m 394 1003 q 790 874 665 999 q 916 508 916 749 q 784 129 916 258 q 382 0 651 0 l 149 0 l 149 445 l 49 445 l 49 556 l 149 556 l 149 1004 q 394 1003 309 1004 m 383 120 q 668 211 569 120 q 767 506 767 302 q 723 727 767 644 q 595 847 678 810 q 388 884 512 884 l 294 884 l 294 556 l 519 556 l 519 445 l 294 445 l 294 120 l 383 120 z "},"Ḍ":{"ha":970,"x_min":126,"x_max":894,"o":"m 126 1004 q 372 1003 287 1004 q 768 874 642 999 q 894 508 894 749 q 761 129 894 258 q 360 0 629 0 l 126 0 l 126 1004 m 272 120 l 360 120 q 645 211 546 120 q 744 506 744 302 q 700 727 744 644 q 572 847 656 810 q 365 884 489 884 l 272 884 l 272 120 z "},"E":{"ha":871,"x_min":126,"x_max":782,"o":"m 126 1004 l 769 1004 l 769 881 l 269 881 l 269 568 l 717 568 l 717 445 l 268 445 l 268 126 l 782 125 l 782 0 l 126 0 l 126 1004 z "},"É":{"ha":871,"x_min":126,"x_max":782,"o":"m 126 1004 l 769 1004 l 769 881 l 269 881 l 269 568 l 717 568 l 717 445 l 268 445 l 268 126 l 782 125 l 782 0 l 126 0 l 126 1004 m 638 1200 l 285 1099 l 262 1167 l 603 1303 l 638 1200 z "},"Ĕ":{"ha":871,"x_min":126,"x_max":782,"o":"m 126 1004 l 769 1004 l 769 881 l 269 881 l 269 568 l 717 568 l 717 445 l 268 445 l 268 126 l 782 125 l 782 0 l 126 0 l 126 1004 m 671 1289 q 628 1211 658 1246 q 553 1155 598 1176 q 452 1134 508 1134 q 313 1177 369 1134 q 238 1289 256 1219 l 336 1289 q 381 1237 355 1258 q 452 1216 408 1216 q 570 1289 528 1216 l 671 1289 z "},"Ě":{"ha":871,"x_min":126,"x_max":782,"o":"m 126 1004 l 769 1004 l 769 881 l 269 881 l 269 568 l 717 568 l 717 445 l 268 445 l 268 126 l 782 125 l 782 0 l 126 0 l 126 1004 m 673 1291 l 501 1126 l 400 1126 l 224 1291 l 345 1291 l 449 1195 l 545 1291 l 673 1291 z "},"Ê":{"ha":871,"x_min":126,"x_max":782,"o":"m 126 1004 l 769 1004 l 769 881 l 269 881 l 269 568 l 717 568 l 717 445 l 268 445 l 268 126 l 782 125 l 782 0 l 126 0 l 126 1004 m 449 1227 l 345 1131 l 224 1131 l 400 1296 l 501 1296 l 673 1131 l 545 1131 l 449 1227 z "},"Ế":{"ha":871,"x_min":126,"x_max":782,"o":"m 126 1004 l 769 1004 l 769 881 l 269 881 l 269 568 l 717 568 l 717 445 l 268 445 l 268 126 l 782 125 l 782 0 l 126 0 l 126 1004 z "},"Ệ":{"ha":871,"x_min":126,"x_max":782,"o":"m 126 1004 l 769 1004 l 769 881 l 269 881 l 269 568 l 717 568 l 717 445 l 268 445 l 268 126 l 782 125 l 782 0 l 126 0 l 126 1004 m 449 1227 l 345 1131 l 224 1131 l 400 1296 l 501 1296 l 673 1131 l 545 1131 l 449 1227 z "},"Ề":{"ha":871,"x_min":126,"x_max":782,"o":"m 126 1004 l 769 1004 l 769 881 l 269 881 l 269 568 l 717 568 l 717 445 l 268 445 l 268 126 l 782 125 l 782 0 l 126 0 l 126 1004 z "},"Ể":{"ha":871,"x_min":126,"x_max":782,"o":"m 126 1004 l 769 1004 l 769 881 l 269 881 l 269 568 l 717 568 l 717 445 l 268 445 l 268 126 l 782 125 l 782 0 l 126 0 l 126 1004 z "},"Ễ":{"ha":871,"x_min":126,"x_max":782,"o":"m 126 1004 l 769 1004 l 769 881 l 269 881 l 269 568 l 717 568 l 717 445 l 268 445 l 268 126 l 782 125 l 782 0 l 126 0 l 126 1004 z "},"Ȅ":{"ha":871,"x_min":126,"x_max":782,"o":"m 126 1004 l 769 1004 l 769 881 l 269 881 l 269 568 l 717 568 l 717 445 l 268 445 l 268 126 l 782 125 l 782 0 l 126 0 l 126 1004 m 410 1116 l 364 1060 l 149 1223 l 219 1306 l 410 1116 m 643 1116 l 597 1060 l 382 1223 l 451 1306 l 643 1116 z "},"Ë":{"ha":871,"x_min":126,"x_max":782,"o":"m 126 1004 l 769 1004 l 769 881 l 269 881 l 269 568 l 717 568 l 717 445 l 268 445 l 268 126 l 782 125 l 782 0 l 126 0 l 126 1004 m 249 1287 l 399 1287 l 399 1145 l 249 1145 l 249 1287 m 497 1287 l 647 1287 l 647 1145 l 497 1145 l 497 1287 z "},"Ė":{"ha":871,"x_min":126,"x_max":782,"o":"m 126 1004 l 769 1004 l 769 881 l 269 881 l 269 568 l 717 568 l 717 445 l 268 445 l 268 126 l 782 125 l 782 0 l 126 0 l 126 1004 m 375 1261 l 524 1261 l 524 1120 l 375 1120 l 375 1261 z "},"Ẹ":{"ha":871,"x_min":126,"x_max":782,"o":"m 126 1004 l 769 1004 l 769 881 l 269 881 l 269 568 l 717 568 l 717 445 l 268 445 l 268 126 l 782 125 l 782 0 l 126 0 l 126 1004 z "},"È":{"ha":871,"x_min":126,"x_max":782,"o":"m 126 1004 l 769 1004 l 769 881 l 269 881 l 269 568 l 717 568 l 717 445 l 268 445 l 268 126 l 782 125 l 782 0 l 126 0 l 126 1004 m 623 1167 l 600 1099 l 247 1200 l 281 1303 l 623 1167 z "},"Ẻ":{"ha":871,"x_min":126,"x_max":782,"o":"m 126 1004 l 769 1004 l 769 881 l 269 881 l 269 568 l 717 568 l 717 445 l 268 445 l 268 126 l 782 125 l 782 0 l 126 0 l 126 1004 m 394 1260 q 449 1278 422 1278 q 492 1256 479 1278 q 500 1230 500 1245 q 488 1195 500 1213 q 454 1165 476 1178 l 494 1103 q 558 1161 536 1128 q 581 1228 581 1193 q 557 1299 581 1264 q 513 1339 540 1324 q 453 1353 485 1353 q 354 1322 403 1353 l 394 1260 z "},"Ȇ":{"ha":871,"x_min":126,"x_max":782,"o":"m 126 1004 l 769 1004 l 769 881 l 269 881 l 269 568 l 717 568 l 717 445 l 268 445 l 268 126 l 782 125 l 782 0 l 126 0 l 126 1004 m 565 1190 q 447 1263 523 1263 q 376 1242 403 1263 q 331 1190 350 1222 l 233 1190 q 308 1302 251 1259 q 447 1345 365 1345 q 548 1324 502 1345 q 623 1268 593 1303 q 666 1190 653 1233 l 565 1190 z "},"Ē":{"ha":871,"x_min":126,"x_max":782,"o":"m 126 1004 l 769 1004 l 769 881 l 269 881 l 269 568 l 717 568 l 717 445 l 268 445 l 268 126 l 782 125 l 782 0 l 126 0 l 126 1004 m 664 1177 l 236 1177 l 236 1274 l 664 1274 l 664 1177 z "},"Ę":{"ha":871,"x_min":126,"x_max":824,"o":"m 724 -158 q 780 -150 753 -158 q 824 -131 806 -142 l 824 -203 q 767 -224 804 -215 q 691 -233 731 -233 q 588 -203 624 -233 q 551 -122 551 -174 q 576 -53 551 -83 q 660 0 600 -24 l 126 0 l 126 1004 l 769 1004 l 769 881 l 269 881 l 269 568 l 717 568 l 717 445 l 268 445 l 268 126 l 782 125 l 782 4 l 794 3 q 692 -51 722 -26 q 663 -108 663 -76 q 677 -145 663 -133 q 724 -158 692 -158 z "},"Ẽ":{"ha":871,"x_min":126,"x_max":782,"o":"m 126 1004 l 769 1004 l 769 881 l 269 881 l 269 568 l 717 568 l 717 445 l 268 445 l 268 126 l 782 125 l 782 0 l 126 0 l 126 1004 m 667 1204 q 543 1163 611 1163 q 495 1167 517 1163 q 446 1182 474 1172 q 402 1195 421 1190 q 363 1199 383 1199 q 311 1190 332 1199 q 263 1159 291 1180 l 238 1232 q 292 1272 265 1258 q 356 1286 319 1286 q 403 1281 381 1286 q 456 1265 426 1276 q 504 1251 484 1256 q 543 1247 524 1247 q 595 1257 572 1247 q 644 1288 617 1268 l 667 1204 z "},"F":{"ha":817,"x_min":126,"x_max":763,"o":"m 763 1004 l 762 881 l 272 881 l 272 564 l 710 564 l 710 443 l 272 443 l 272 0 l 126 0 l 126 1004 l 763 1004 z "},"G":{"ha":1031,"x_min":83,"x_max":919,"o":"m 514 -14 q 285 48 382 -14 q 135 226 188 110 q 83 499 83 342 q 138 776 83 659 q 291 956 192 894 q 522 1018 390 1018 q 709 975 623 1018 q 847 860 794 932 q 904 708 899 789 l 751 701 q 710 799 742 756 q 628 868 678 843 q 518 894 578 894 q 369 850 433 894 q 272 719 306 806 q 237 507 237 633 q 273 284 237 372 q 373 155 309 197 q 523 114 438 114 q 651 148 597 114 q 735 232 706 181 q 767 333 764 283 l 772 417 l 534 417 l 534 520 l 919 519 l 919 0 l 815 0 l 815 149 q 697 32 770 77 q 514 -14 624 -14 z "},"Ğ":{"ha":1031,"x_min":83,"x_max":919,"o":"m 514 -14 q 285 48 382 -14 q 135 226 188 110 q 83 499 83 342 q 138 776 83 659 q 291 956 192 894 q 522 1018 390 1018 q 709 975 623 1018 q 847 860 794 932 q 904 708 899 789 l 751 701 q 710 799 742 756 q 628 868 678 843 q 518 894 578 894 q 369 850 433 894 q 272 719 306 806 q 237 507 237 633 q 273 284 237 372 q 373 155 309 197 q 523 114 438 114 q 651 148 597 114 q 735 232 706 181 q 767 333 764 283 l 772 417 l 534 417 l 534 520 l 919 519 l 919 0 l 815 0 l 815 149 q 697 32 770 77 q 514 -14 624 -14 m 739 1289 q 696 1211 726 1246 q 621 1155 666 1176 q 520 1134 576 1134 q 381 1177 438 1134 q 306 1289 324 1219 l 404 1289 q 449 1237 423 1258 q 520 1216 476 1216 q 638 1289 596 1216 l 739 1289 z "},"Ĝ":{"ha":1031,"x_min":83,"x_max":919,"o":"m 514 -14 q 285 48 382 -14 q 135 226 188 110 q 83 499 83 342 q 138 776 83 659 q 291 956 192 894 q 522 1018 390 1018 q 709 975 623 1018 q 847 860 794 932 q 904 708 899 789 l 751 701 q 710 799 742 756 q 628 868 678 843 q 518 894 578 894 q 369 850 433 894 q 272 719 306 806 q 237 507 237 633 q 273 284 237 372 q 373 155 309 197 q 523 114 438 114 q 651 148 597 114 q 735 232 706 181 q 767 333 764 283 l 772 417 l 534 417 l 534 520 l 919 519 l 919 0 l 815 0 l 815 149 q 697 32 770 77 q 514 -14 624 -14 m 517 1227 l 413 1131 l 292 1131 l 468 1296 l 569 1296 l 741 1131 l 613 1131 l 517 1227 z "},"Ģ":{"ha":1031,"x_min":83,"x_max":919,"o":"m 514 -14 q 285 48 382 -14 q 135 226 188 110 q 83 499 83 342 q 138 776 83 659 q 291 956 192 894 q 522 1018 390 1018 q 709 975 623 1018 q 847 860 794 932 q 904 708 899 789 l 751 701 q 710 799 742 756 q 628 868 678 843 q 518 894 578 894 q 369 850 433 894 q 272 719 306 806 q 237 507 237 633 q 273 284 237 372 q 373 155 309 197 q 523 114 438 114 q 651 148 597 114 q 735 232 706 181 q 767 333 764 283 l 772 417 l 534 417 l 534 520 l 919 519 l 919 0 l 815 0 l 815 149 q 697 32 770 77 q 514 -14 624 -14 z "},"Ġ":{"ha":1031,"x_min":83,"x_max":919,"o":"m 514 -14 q 285 48 382 -14 q 135 226 188 110 q 83 499 83 342 q 138 776 83 659 q 291 956 192 894 q 522 1018 390 1018 q 709 975 623 1018 q 847 860 794 932 q 904 708 899 789 l 751 701 q 710 799 742 756 q 628 868 678 843 q 518 894 578 894 q 369 850 433 894 q 272 719 306 806 q 237 507 237 633 q 273 284 237 372 q 373 155 309 197 q 523 114 438 114 q 651 148 597 114 q 735 232 706 181 q 767 333 764 283 l 772 417 l 534 417 l 534 520 l 919 519 l 919 0 l 815 0 l 815 149 q 697 32 770 77 q 514 -14 624 -14 m 443 1261 l 592 1261 l 592 1120 l 443 1120 l 443 1261 z "},"H":{"ha":985,"x_min":126,"x_max":863,"o":"m 268 457 l 268 0 l 126 0 l 126 1004 l 268 1004 l 268 581 l 721 581 l 721 1004 l 863 1004 l 863 0 l 721 0 l 721 457 l 268 457 z "},"Ħ":{"ha":1039,"x_min":19,"x_max":1019,"o":"m 1019 770 l 890 770 l 890 0 l 747 0 l 747 457 l 294 457 l 294 0 l 152 0 l 152 770 l 19 770 l 19 860 l 152 860 l 152 1004 l 294 1004 l 294 860 l 747 860 l 747 1004 l 890 1004 l 890 860 l 1019 860 l 1019 770 m 747 770 l 294 770 l 294 581 l 747 581 l 747 770 z "},"Ĥ":{"ha":985,"x_min":126,"x_max":863,"o":"m 268 457 l 268 0 l 126 0 l 126 1004 l 268 1004 l 268 581 l 721 581 l 721 1004 l 863 1004 l 863 0 l 721 0 l 721 457 l 268 457 m 494 1227 l 390 1131 l 269 1131 l 445 1296 l 547 1296 l 718 1131 l 590 1131 l 494 1227 z "},"Ḥ":{"ha":985,"x_min":126,"x_max":863,"o":"m 268 457 l 268 0 l 126 0 l 126 1004 l 268 1004 l 268 581 l 721 581 l 721 1004 l 863 1004 l 863 0 l 721 0 l 721 457 l 268 457 z "},"I":{"ha":390,"x_min":126,"x_max":268,"o":"m 268 1004 l 268 0 l 126 0 l 126 1004 l 268 1004 z "},"Í":{"ha":390,"x_min":10,"x_max":386,"o":"m 268 1004 l 268 0 l 126 0 l 126 1004 l 268 1004 m 386 1200 l 33 1099 l 10 1167 l 351 1303 l 386 1200 z "},"Ĭ":{"ha":390,"x_min":-14,"x_max":419,"o":"m 268 1004 l 268 0 l 126 0 l 126 1004 l 268 1004 m 419 1289 q 376 1211 406 1246 q 301 1155 346 1176 q 200 1134 256 1134 q 61 1177 117 1134 q -14 1289 4 1219 l 84 1289 q 129 1237 103 1258 q 200 1216 156 1216 q 318 1289 276 1216 l 419 1289 z "},"Î":{"ha":390,"x_min":-28,"x_max":421,"o":"m 268 1004 l 268 0 l 126 0 l 126 1004 l 268 1004 m 197 1227 l 93 1131 l -28 1131 l 148 1296 l 249 1296 l 421 1131 l 293 1131 l 197 1227 z "},"Ȉ":{"ha":390,"x_min":-103,"x_max":391,"o":"m 268 1004 l 268 0 l 126 0 l 126 1004 l 268 1004 m 158 1116 l 112 1060 l -103 1223 l -33 1306 l 158 1116 m 391 1116 l 345 1060 l 130 1223 l 199 1306 l 391 1116 z "},"Ï":{"ha":390,"x_min":-3,"x_max":394,"o":"m 268 1004 l 268 0 l 126 0 l 126 1004 l 268 1004 m -3 1287 l 147 1287 l 147 1145 l -3 1145 l -3 1287 m 245 1287 l 394 1287 l 394 1145 l 245 1145 l 245 1287 z "},"İ":{"ha":390,"x_min":123,"x_max":272,"o":"m 268 1004 l 268 0 l 126 0 l 126 1004 l 268 1004 m 123 1261 l 272 1261 l 272 1120 l 123 1120 l 123 1261 z "},"Ị":{"ha":390,"x_min":126,"x_max":278,"o":"m 268 1004 l 268 0 l 126 0 l 126 1004 l 268 1004 z "},"Ì":{"ha":390,"x_min":-6,"x_max":371,"o":"m 268 1004 l 268 0 l 126 0 l 126 1004 l 268 1004 m 371 1167 l 348 1099 l -6 1200 l 29 1303 l 371 1167 z "},"Ỉ":{"ha":390,"x_min":102,"x_max":328,"o":"m 268 1004 l 268 0 l 126 0 l 126 1004 l 268 1004 m 142 1260 q 197 1278 169 1278 q 240 1256 227 1278 q 248 1230 248 1245 q 236 1195 248 1213 q 202 1165 224 1178 l 242 1103 q 306 1161 284 1128 q 328 1228 328 1193 q 305 1299 328 1264 q 260 1339 288 1324 q 201 1353 233 1353 q 102 1322 151 1353 l 142 1260 z "},"Ȋ":{"ha":390,"x_min":-19,"x_max":414,"o":"m 268 1004 l 268 0 l 126 0 l 126 1004 l 268 1004 m 313 1190 q 195 1263 271 1263 q 124 1242 151 1263 q 79 1190 98 1222 l -19 1190 q 56 1302 -1 1259 q 195 1345 113 1345 q 295 1324 250 1345 q 371 1268 341 1303 q 414 1190 401 1233 l 313 1190 z "},"Ī":{"ha":390,"x_min":-16,"x_max":412,"o":"m 268 1004 l 268 0 l 126 0 l 126 1004 l 268 1004 m 412 1177 l -16 1177 l -16 1274 l 412 1274 l 412 1177 z "},"Į":{"ha":390,"x_min":25,"x_max":297,"o":"m 197 -162 q 253 -154 227 -162 q 297 -135 279 -147 l 297 -208 q 241 -228 278 -219 q 165 -237 204 -237 q 61 -208 97 -237 q 25 -126 25 -178 q 52 -55 25 -85 q 145 0 78 -24 l 126 0 l 126 1004 l 268 1004 l 268 0 l 258 0 l 267 -1 q 166 -55 196 -30 q 136 -112 136 -80 q 151 -150 136 -137 q 197 -162 165 -162 z "},"Ĩ":{"ha":390,"x_min":-15,"x_max":415,"o":"m 268 1004 l 268 0 l 126 0 l 126 1004 l 268 1004 m 415 1204 q 291 1163 359 1163 q 243 1167 265 1163 q 194 1182 222 1172 q 150 1195 169 1190 q 110 1199 131 1199 q 59 1190 80 1199 q 10 1159 39 1180 l -15 1232 q 40 1272 13 1258 q 104 1286 67 1286 q 151 1281 128 1286 q 204 1265 174 1276 q 252 1251 232 1256 q 291 1247 272 1247 q 343 1257 320 1247 q 392 1288 365 1268 l 415 1204 z "},"J":{"ha":538,"x_min":35,"x_max":421,"o":"m 421 244 q 401 100 421 156 q 334 15 382 44 q 199 -14 285 -14 q 108 -4 153 -14 q 35 16 62 6 l 43 150 q 61 143 58 144 q 109 127 87 133 q 160 122 132 122 q 231 138 206 122 q 268 189 257 154 q 278 285 278 224 l 278 1004 l 421 1004 l 421 244 z "},"Ĵ":{"ha":538,"x_min":35,"x_max":569,"o":"m 421 244 q 401 100 421 156 q 334 15 382 44 q 199 -14 285 -14 q 108 -4 153 -14 q 35 16 62 6 l 43 150 q 61 143 58 144 q 109 127 87 133 q 160 122 132 122 q 231 138 206 122 q 268 189 257 154 q 278 285 278 224 l 278 1004 l 421 1004 l 421 244 m 346 1227 l 242 1131 l 121 1131 l 297 1296 l 398 1296 l 569 1131 l 442 1131 l 346 1227 z "},"K":{"ha":953,"x_min":126,"x_max":908,"o":"m 748 0 l 442 508 l 274 311 l 274 0 l 126 0 l 126 1004 l 274 1004 l 274 496 l 708 1004 l 876 1004 l 549 613 l 908 0 l 748 0 z "},"Ķ":{"ha":953,"x_min":126,"x_max":908,"o":"m 748 0 l 442 508 l 274 311 l 274 0 l 126 0 l 126 1004 l 274 1004 l 274 496 l 708 1004 l 876 1004 l 549 613 l 908 0 l 748 0 z "},"L":{"ha":782,"x_min":126,"x_max":739,"o":"m 272 1004 l 272 126 l 739 126 l 739 0 l 126 0 l 127 1004 l 272 1004 z "},"Ĺ":{"ha":782,"x_min":10,"x_max":739,"o":"m 272 1004 l 272 126 l 739 126 l 739 0 l 126 0 l 127 1004 l 272 1004 m 386 1200 l 33 1099 l 10 1167 l 351 1303 l 386 1200 z "},"Ľ":{"ha":782,"x_min":126,"x_max":739,"o":"m 272 1004 l 272 126 l 739 126 l 739 0 l 126 0 l 127 1004 l 272 1004 m 551 858 l 511 866 l 511 1004 l 623 1004 l 623 859 l 567 728 l 498 728 l 551 858 z "},"Ļ":{"ha":782,"x_min":126,"x_max":739,"o":"m 272 1004 l 272 126 l 739 126 l 739 0 l 126 0 l 127 1004 l 272 1004 z "},"Ŀ":{"ha":782,"x_min":126,"x_max":739,"o":"m 272 1004 l 272 126 l 739 126 l 739 0 l 126 0 l 127 1004 l 272 1004 m 730 468 l 562 468 l 562 630 l 730 630 l 730 468 z "},"Ł":{"ha":789,"x_min":25,"x_max":746,"o":"m 746 126 l 746 0 l 133 0 l 133 443 l 25 413 l 25 534 l 134 563 l 134 1004 l 278 1004 l 278 600 l 508 660 l 508 545 l 278 483 l 278 126 l 746 126 z "},"M":{"ha":1228,"x_min":126,"x_max":1106,"o":"m 126 1004 l 326 1004 l 615 195 l 908 1004 l 1106 1004 l 1106 0 l 961 0 l 961 803 l 678 0 l 551 0 l 272 797 l 272 0 l 126 0 l 126 1004 z "},"N":{"ha":1045,"x_min":126,"x_max":923,"o":"m 923 1004 l 923 0 l 796 0 l 268 774 l 268 0 l 126 0 l 126 1004 l 263 1004 l 781 245 l 781 1004 l 923 1004 z "},"Ń":{"ha":1045,"x_min":126,"x_max":923,"o":"m 923 1004 l 923 0 l 796 0 l 268 774 l 268 0 l 126 0 l 126 1004 l 263 1004 l 781 245 l 781 1004 l 923 1004 m 713 1200 l 360 1099 l 337 1167 l 678 1303 l 713 1200 z "},"Ň":{"ha":1045,"x_min":126,"x_max":923,"o":"m 923 1004 l 923 0 l 796 0 l 268 774 l 268 0 l 126 0 l 126 1004 l 263 1004 l 781 245 l 781 1004 l 923 1004 m 747 1291 l 576 1126 l 474 1126 l 298 1291 l 419 1291 l 524 1195 l 619 1291 l 747 1291 z "},"Ņ":{"ha":1045,"x_min":126,"x_max":923,"o":"m 923 1004 l 923 0 l 796 0 l 268 774 l 268 0 l 126 0 l 126 1004 l 263 1004 l 781 245 l 781 1004 l 923 1004 z "},"Ṅ":{"ha":1045,"x_min":126,"x_max":923,"o":"m 923 1004 l 923 0 l 796 0 l 268 774 l 268 0 l 126 0 l 126 1004 l 263 1004 l 781 245 l 781 1004 l 923 1004 m 449 1261 l 599 1261 l 599 1120 l 449 1120 l 449 1261 z "},"Ŋ":{"ha":1047,"x_min":126,"x_max":924,"o":"m 924 56 l 924 -75 q 905 -219 924 -163 q 837 -304 885 -275 q 703 -333 789 -333 q 611 -323 657 -333 q 538 -303 565 -313 l 547 -169 q 565 -176 562 -175 q 613 -192 590 -187 q 663 -198 635 -198 q 735 -182 709 -198 q 772 -130 760 -165 q 783 -35 783 -95 l 783 19 l 268 774 l 268 0 l 126 0 l 126 1004 l 263 1004 l 781 245 l 781 1004 l 923 1004 l 923 56 l 924 56 z "},"Ñ":{"ha":1045,"x_min":126,"x_max":923,"o":"m 923 1004 l 923 0 l 796 0 l 268 774 l 268 0 l 126 0 l 126 1004 l 263 1004 l 781 245 l 781 1004 l 923 1004 m 741 1204 q 617 1163 685 1163 q 569 1167 591 1163 q 520 1182 548 1172 q 476 1195 495 1190 q 437 1199 458 1199 q 386 1190 406 1199 q 337 1159 365 1180 l 312 1232 q 366 1272 340 1258 q 431 1286 393 1286 q 477 1281 455 1286 q 531 1265 500 1276 q 578 1251 558 1256 q 617 1247 598 1247 q 669 1257 647 1247 q 718 1288 692 1268 l 741 1204 z "},"O":{"ha":1045,"x_min":83,"x_max":963,"o":"m 524 -14 q 289 47 388 -14 q 136 222 190 107 q 83 499 83 338 q 137 778 83 661 q 290 957 190 895 q 524 1018 389 1018 q 757 957 658 1018 q 909 778 856 895 q 963 500 963 662 q 909 223 963 339 q 757 47 856 108 q 524 -14 658 -14 m 525 108 q 735 203 663 108 q 807 499 807 299 q 734 798 807 700 q 524 897 660 897 q 313 798 388 897 q 239 499 239 699 q 313 204 239 301 q 525 108 388 108 z "},"Ó":{"ha":1045,"x_min":83,"x_max":963,"o":"m 524 -14 q 289 47 388 -14 q 136 222 190 107 q 83 499 83 338 q 137 778 83 661 q 290 957 190 895 q 524 1018 389 1018 q 757 957 658 1018 q 909 778 856 895 q 963 500 963 662 q 909 223 963 339 q 757 47 856 108 q 524 -14 658 -14 m 525 108 q 735 203 663 108 q 807 499 807 299 q 734 798 807 700 q 524 897 660 897 q 313 798 388 897 q 239 499 239 699 q 313 204 239 301 q 525 108 388 108 m 713 1200 l 360 1099 l 337 1167 l 678 1303 l 713 1200 z "},"Ŏ":{"ha":1045,"x_min":83,"x_max":963,"o":"m 524 -14 q 289 47 388 -14 q 136 222 190 107 q 83 499 83 338 q 137 778 83 661 q 290 957 190 895 q 524 1018 389 1018 q 757 957 658 1018 q 909 778 856 895 q 963 500 963 662 q 909 223 963 339 q 757 47 856 108 q 524 -14 658 -14 m 525 108 q 735 203 663 108 q 807 499 807 299 q 734 798 807 700 q 524 897 660 897 q 313 798 388 897 q 239 499 239 699 q 313 204 239 301 q 525 108 388 108 m 746 1289 q 703 1211 733 1246 q 628 1155 673 1176 q 527 1134 583 1134 q 388 1177 444 1134 q 313 1289 331 1219 l 411 1289 q 456 1237 430 1258 q 527 1216 483 1216 q 645 1289 603 1216 l 746 1289 z "},"Ô":{"ha":1045,"x_min":83,"x_max":963,"o":"m 524 -14 q 289 47 388 -14 q 136 222 190 107 q 83 499 83 338 q 137 778 83 661 q 290 957 190 895 q 524 1018 389 1018 q 757 957 658 1018 q 909 778 856 895 q 963 500 963 662 q 909 223 963 339 q 757 47 856 108 q 524 -14 658 -14 m 525 108 q 735 203 663 108 q 807 499 807 299 q 734 798 807 700 q 524 897 660 897 q 313 798 388 897 q 239 499 239 699 q 313 204 239 301 q 525 108 388 108 m 524 1227 l 420 1131 l 299 1131 l 475 1296 l 576 1296 l 748 1131 l 620 1131 l 524 1227 z "},"Ố":{"ha":1045,"x_min":83,"x_max":963,"o":"m 524 -14 q 289 47 388 -14 q 136 222 190 107 q 83 499 83 338 q 137 778 83 661 q 290 957 190 895 q 524 1018 389 1018 q 757 957 658 1018 q 909 778 856 895 q 963 500 963 662 q 909 223 963 339 q 757 47 856 108 q 524 -14 658 -14 m 525 108 q 735 203 663 108 q 807 499 807 299 q 734 798 807 700 q 524 897 660 897 q 313 798 388 897 q 239 499 239 699 q 313 204 239 301 q 525 108 388 108 z "},"Ộ":{"ha":1045,"x_min":83,"x_max":963,"o":"m 524 -14 q 289 47 388 -14 q 136 222 190 107 q 83 499 83 338 q 137 778 83 661 q 290 957 190 895 q 524 1018 389 1018 q 757 957 658 1018 q 909 778 856 895 q 963 500 963 662 q 909 223 963 339 q 757 47 856 108 q 524 -14 658 -14 m 525 108 q 735 203 663 108 q 807 499 807 299 q 734 798 807 700 q 524 897 660 897 q 313 798 388 897 q 239 499 239 699 q 313 204 239 301 q 525 108 388 108 m 524 1227 l 420 1131 l 299 1131 l 475 1296 l 576 1296 l 748 1131 l 620 1131 l 524 1227 z "},"Ồ":{"ha":1045,"x_min":83,"x_max":963,"o":"m 524 -14 q 289 47 388 -14 q 136 222 190 107 q 83 499 83 338 q 137 778 83 661 q 290 957 190 895 q 524 1018 389 1018 q 757 957 658 1018 q 909 778 856 895 q 963 500 963 662 q 909 223 963 339 q 757 47 856 108 q 524 -14 658 -14 m 525 108 q 735 203 663 108 q 807 499 807 299 q 734 798 807 700 q 524 897 660 897 q 313 798 388 897 q 239 499 239 699 q 313 204 239 301 q 525 108 388 108 z "},"Ổ":{"ha":1045,"x_min":83,"x_max":963,"o":"m 524 -14 q 289 47 388 -14 q 136 222 190 107 q 83 499 83 338 q 137 778 83 661 q 290 957 190 895 q 524 1018 389 1018 q 757 957 658 1018 q 909 778 856 895 q 963 500 963 662 q 909 223 963 339 q 757 47 856 108 q 524 -14 658 -14 m 525 108 q 735 203 663 108 q 807 499 807 299 q 734 798 807 700 q 524 897 660 897 q 313 798 388 897 q 239 499 239 699 q 313 204 239 301 q 525 108 388 108 z "},"Ỗ":{"ha":1045,"x_min":83,"x_max":963,"o":"m 524 -14 q 289 47 388 -14 q 136 222 190 107 q 83 499 83 338 q 137 778 83 661 q 290 957 190 895 q 524 1018 389 1018 q 757 957 658 1018 q 909 778 856 895 q 963 500 963 662 q 909 223 963 339 q 757 47 856 108 q 524 -14 658 -14 m 525 108 q 735 203 663 108 q 807 499 807 299 q 734 798 807 700 q 524 897 660 897 q 313 798 388 897 q 239 499 239 699 q 313 204 239 301 q 525 108 388 108 z "},"Ȍ":{"ha":1045,"x_min":83,"x_max":963,"o":"m 524 -14 q 289 47 388 -14 q 136 222 190 107 q 83 499 83 338 q 137 778 83 661 q 290 957 190 895 q 524 1018 389 1018 q 757 957 658 1018 q 909 778 856 895 q 963 500 963 662 q 909 223 963 339 q 757 47 856 108 q 524 -14 658 -14 m 525 108 q 735 203 663 108 q 807 499 807 299 q 734 798 807 700 q 524 897 660 897 q 313 798 388 897 q 239 499 239 699 q 313 204 239 301 q 525 108 388 108 m 485 1116 l 438 1060 l 223 1223 l 293 1306 l 485 1116 m 717 1116 l 672 1060 l 456 1223 l 526 1306 l 717 1116 z "},"Ö":{"ha":1045,"x_min":83,"x_max":963,"o":"m 524 -14 q 289 47 388 -14 q 136 222 190 107 q 83 499 83 338 q 137 778 83 661 q 290 957 190 895 q 524 1018 389 1018 q 757 957 658 1018 q 909 778 856 895 q 963 500 963 662 q 909 223 963 339 q 757 47 856 108 q 524 -14 658 -14 m 525 108 q 735 203 663 108 q 807 499 807 299 q 734 798 807 700 q 524 897 660 897 q 313 798 388 897 q 239 499 239 699 q 313 204 239 301 q 525 108 388 108 m 324 1287 l 474 1287 l 474 1145 l 324 1145 l 324 1287 m 572 1287 l 722 1287 l 722 1145 l 572 1145 l 572 1287 z "},"Ọ":{"ha":1045,"x_min":83,"x_max":963,"o":"m 524 -14 q 289 47 388 -14 q 136 222 190 107 q 83 499 83 338 q 137 778 83 661 q 290 957 190 895 q 524 1018 389 1018 q 757 957 658 1018 q 909 778 856 895 q 963 500 963 662 q 909 223 963 339 q 757 47 856 108 q 524 -14 658 -14 m 525 108 q 735 203 663 108 q 807 499 807 299 q 734 798 807 700 q 524 897 660 897 q 313 798 388 897 q 239 499 239 699 q 313 204 239 301 q 525 108 388 108 z "},"Ò":{"ha":1045,"x_min":83,"x_max":963,"o":"m 524 -14 q 289 47 388 -14 q 136 222 190 107 q 83 499 83 338 q 137 778 83 661 q 290 957 190 895 q 524 1018 389 1018 q 757 957 658 1018 q 909 778 856 895 q 963 500 963 662 q 909 223 963 339 q 757 47 856 108 q 524 -14 658 -14 m 525 108 q 735 203 663 108 q 807 499 807 299 q 734 798 807 700 q 524 897 660 897 q 313 798 388 897 q 239 499 239 699 q 313 204 239 301 q 525 108 388 108 m 698 1167 l 675 1099 l 322 1200 l 356 1303 l 698 1167 z "},"Ỏ":{"ha":1045,"x_min":83,"x_max":963,"o":"m 524 -14 q 289 47 388 -14 q 136 222 190 107 q 83 499 83 338 q 137 778 83 661 q 290 957 190 895 q 524 1018 389 1018 q 757 957 658 1018 q 909 778 856 895 q 963 500 963 662 q 909 223 963 339 q 757 47 856 108 q 524 -14 658 -14 m 525 108 q 735 203 663 108 q 807 499 807 299 q 734 798 807 700 q 524 897 660 897 q 313 798 388 897 q 239 499 239 699 q 313 204 239 301 q 525 108 388 108 m 469 1260 q 524 1278 497 1278 q 567 1256 554 1278 q 575 1230 575 1245 q 563 1195 575 1213 q 529 1165 551 1178 l 569 1103 q 633 1161 611 1128 q 656 1228 656 1193 q 632 1299 656 1264 q 588 1339 615 1324 q 528 1353 560 1353 q 429 1322 478 1353 l 469 1260 z "},"Ơ":{"ha":1103,"x_min":83,"x_max":1050,"o":"m 1050 1027 q 1013 866 1049 919 q 896 806 978 813 q 963 500 963 681 q 909 223 963 339 q 757 47 856 108 q 524 -14 658 -14 q 289 47 388 -14 q 136 222 190 107 q 83 499 83 338 q 137 778 83 661 q 290 957 190 895 q 524 1018 389 1018 q 700 986 621 1018 q 835 892 778 954 q 895 902 874 893 q 927 940 916 912 q 942 1027 938 969 l 1050 1027 m 525 108 q 735 203 663 108 q 807 499 807 299 q 734 798 807 700 q 524 897 660 897 q 313 798 388 897 q 239 499 239 699 q 313 204 239 301 q 525 108 388 108 z "},"Ớ":{"ha":1103,"x_min":83,"x_max":1050,"o":"m 1050 1027 q 1013 866 1049 919 q 896 806 978 813 q 963 500 963 681 q 909 223 963 339 q 757 47 856 108 q 524 -14 658 -14 q 289 47 388 -14 q 136 222 190 107 q 83 499 83 338 q 137 778 83 661 q 290 957 190 895 q 524 1018 389 1018 q 700 986 621 1018 q 835 892 778 954 q 895 902 874 893 q 927 940 916 912 q 942 1027 938 969 l 1050 1027 m 525 108 q 735 203 663 108 q 807 499 807 299 q 734 798 807 700 q 524 897 660 897 q 313 798 388 897 q 239 499 239 699 q 313 204 239 301 q 525 108 388 108 m 713 1200 l 360 1099 l 337 1167 l 678 1303 l 713 1200 z "},"Ợ":{"ha":1103,"x_min":83,"x_max":1050,"o":"m 1050 1027 q 1013 866 1049 919 q 896 806 978 813 q 963 500 963 681 q 909 223 963 339 q 757 47 856 108 q 524 -14 658 -14 q 289 47 388 -14 q 136 222 190 107 q 83 499 83 338 q 137 778 83 661 q 290 957 190 895 q 524 1018 389 1018 q 700 986 621 1018 q 835 892 778 954 q 895 902 874 893 q 927 940 916 912 q 942 1027 938 969 l 1050 1027 m 525 108 q 735 203 663 108 q 807 499 807 299 q 734 798 807 700 q 524 897 660 897 q 313 798 388 897 q 239 499 239 699 q 313 204 239 301 q 525 108 388 108 z "},"Ờ":{"ha":1103,"x_min":83,"x_max":1050,"o":"m 1050 1027 q 1013 866 1049 919 q 896 806 978 813 q 963 500 963 681 q 909 223 963 339 q 757 47 856 108 q 524 -14 658 -14 q 289 47 388 -14 q 136 222 190 107 q 83 499 83 338 q 137 778 83 661 q 290 957 190 895 q 524 1018 389 1018 q 700 986 621 1018 q 835 892 778 954 q 895 902 874 893 q 927 940 916 912 q 942 1027 938 969 l 1050 1027 m 525 108 q 735 203 663 108 q 807 499 807 299 q 734 798 807 700 q 524 897 660 897 q 313 798 388 897 q 239 499 239 699 q 313 204 239 301 q 525 108 388 108 m 698 1167 l 675 1099 l 322 1200 l 356 1303 l 698 1167 z "},"Ở":{"ha":1103,"x_min":83,"x_max":1050,"o":"m 1050 1027 q 1013 866 1049 919 q 896 806 978 813 q 963 500 963 681 q 909 223 963 339 q 757 47 856 108 q 524 -14 658 -14 q 289 47 388 -14 q 136 222 190 107 q 83 499 83 338 q 137 778 83 661 q 290 957 190 895 q 524 1018 389 1018 q 700 986 621 1018 q 835 892 778 954 q 895 902 874 893 q 927 940 916 912 q 942 1027 938 969 l 1050 1027 m 525 108 q 735 203 663 108 q 807 499 807 299 q 734 798 807 700 q 524 897 660 897 q 313 798 388 897 q 239 499 239 699 q 313 204 239 301 q 525 108 388 108 m 469 1260 q 524 1278 497 1278 q 567 1256 554 1278 q 575 1230 575 1245 q 563 1195 575 1213 q 529 1165 551 1178 l 569 1103 q 633 1161 611 1128 q 656 1228 656 1193 q 632 1299 656 1264 q 588 1339 615 1324 q 528 1353 560 1353 q 429 1322 478 1353 l 469 1260 z "},"Ỡ":{"ha":1103,"x_min":83,"x_max":1050,"o":"m 1050 1027 q 1013 866 1049 919 q 896 806 978 813 q 963 500 963 681 q 909 223 963 339 q 757 47 856 108 q 524 -14 658 -14 q 289 47 388 -14 q 136 222 190 107 q 83 499 83 338 q 137 778 83 661 q 290 957 190 895 q 524 1018 389 1018 q 700 986 621 1018 q 835 892 778 954 q 895 902 874 893 q 927 940 916 912 q 942 1027 938 969 l 1050 1027 m 525 108 q 735 203 663 108 q 807 499 807 299 q 734 798 807 700 q 524 897 660 897 q 313 798 388 897 q 239 499 239 699 q 313 204 239 301 q 525 108 388 108 m 742 1204 q 618 1163 686 1163 q 570 1167 592 1163 q 521 1182 549 1172 q 477 1195 496 1190 q 438 1199 458 1199 q 386 1190 407 1199 q 338 1159 366 1180 l 313 1232 q 367 1272 340 1258 q 431 1286 394 1286 q 478 1281 456 1286 q 531 1265 501 1276 q 579 1251 559 1256 q 618 1247 599 1247 q 670 1257 647 1247 q 719 1288 692 1268 l 742 1204 z "},"Ő":{"ha":1045,"x_min":83,"x_max":963,"o":"m 524 -14 q 289 47 388 -14 q 136 222 190 107 q 83 499 83 338 q 137 778 83 661 q 290 957 190 895 q 524 1018 389 1018 q 757 957 658 1018 q 909 778 856 895 q 963 500 963 662 q 909 223 963 339 q 757 47 856 108 q 524 -14 658 -14 m 525 108 q 735 203 663 108 q 807 499 807 299 q 734 798 807 700 q 524 897 660 897 q 313 798 388 897 q 239 499 239 699 q 313 204 239 301 q 525 108 388 108 m 813 1223 l 597 1060 l 551 1116 l 742 1306 l 813 1223 m 578 1223 l 364 1060 l 316 1116 l 509 1306 l 578 1223 z "},"Ȏ":{"ha":1045,"x_min":83,"x_max":963,"o":"m 524 -14 q 289 47 388 -14 q 136 222 190 107 q 83 499 83 338 q 137 778 83 661 q 290 957 190 895 q 524 1018 389 1018 q 757 957 658 1018 q 909 778 856 895 q 963 500 963 662 q 909 223 963 339 q 757 47 856 108 q 524 -14 658 -14 m 525 108 q 735 203 663 108 q 807 499 807 299 q 734 798 807 700 q 524 897 660 897 q 313 798 388 897 q 239 499 239 699 q 313 204 239 301 q 525 108 388 108 m 640 1190 q 522 1263 598 1263 q 451 1242 478 1263 q 406 1190 425 1222 l 308 1190 q 383 1302 326 1259 q 522 1345 440 1345 q 623 1324 577 1345 q 698 1268 668 1303 q 741 1190 728 1233 l 640 1190 z "},"Ō":{"ha":1045,"x_min":83,"x_max":963,"o":"m 524 -14 q 289 47 388 -14 q 136 222 190 107 q 83 499 83 338 q 137 778 83 661 q 290 957 190 895 q 524 1018 389 1018 q 757 957 658 1018 q 909 778 856 895 q 963 500 963 662 q 909 223 963 339 q 757 47 856 108 q 524 -14 658 -14 m 525 108 q 735 203 663 108 q 807 499 807 299 q 734 798 807 700 q 524 897 660 897 q 313 798 388 897 q 239 499 239 699 q 313 204 239 301 q 525 108 388 108 m 738 1177 l 310 1177 l 310 1274 l 738 1274 l 738 1177 z "},"Ǫ":{"ha":1045,"x_min":83,"x_max":963,"o":"m 643 0 q 546 -53 574 -28 q 517 -110 517 -78 q 532 -147 517 -135 q 578 -159 547 -159 q 634 -151 608 -159 q 678 -133 660 -144 l 678 -205 q 622 -225 659 -217 q 546 -234 585 -234 q 442 -205 478 -234 q 406 -124 406 -176 q 425 -62 406 -89 q 489 -13 444 -35 q 272 57 363 -6 q 132 232 181 120 q 83 499 83 344 q 137 778 83 661 q 290 957 190 895 q 524 1018 389 1018 q 757 957 658 1018 q 909 778 856 895 q 963 500 963 662 q 925 260 963 365 q 815 90 887 156 q 643 0 743 24 m 239 499 q 313 204 239 301 q 525 108 388 108 q 735 203 663 108 q 807 499 807 299 q 734 798 807 700 q 524 897 660 897 q 313 798 388 897 q 239 499 239 699 z "},"Ø":{"ha":1049,"x_min":38,"x_max":1008,"o":"m 38 53 l 156 181 q 82 499 82 306 q 135 778 82 661 q 288 957 189 895 q 522 1018 387 1018 q 691 988 615 1018 q 824 901 767 958 l 936 1022 l 1008 951 l 887 818 q 961 500 961 690 q 908 223 961 339 q 756 47 855 108 q 522 -14 656 -14 q 352 15 428 -14 q 221 99 276 44 l 110 -19 l 38 53 m 724 799 q 522 899 658 899 q 329 812 395 899 q 258 549 263 726 q 257 513 257 537 q 283 310 257 405 l 724 799 m 523 106 q 712 188 647 106 q 783 438 776 269 q 784 483 784 469 q 759 690 784 588 l 319 201 q 523 106 387 106 z "},"Ǿ":{"ha":1049,"x_min":38,"x_max":1008,"o":"m 38 53 l 156 181 q 82 499 82 306 q 135 778 82 661 q 288 957 189 895 q 522 1018 387 1018 q 691 988 615 1018 q 824 901 767 958 l 936 1022 l 1008 951 l 887 818 q 961 500 961 690 q 908 223 961 339 q 756 47 855 108 q 522 -14 656 -14 q 352 15 428 -14 q 221 99 276 44 l 110 -19 l 38 53 m 724 799 q 522 899 658 899 q 329 812 395 899 q 258 549 263 726 q 257 513 257 537 q 283 310 257 405 l 724 799 m 523 106 q 712 188 647 106 q 783 438 776 269 q 784 483 784 469 q 759 690 784 588 l 319 201 q 523 106 387 106 m 710 1200 l 357 1099 l 334 1167 l 676 1303 l 710 1200 z "},"Õ":{"ha":1045,"x_min":83,"x_max":963,"o":"m 524 -14 q 289 47 388 -14 q 136 222 190 107 q 83 499 83 338 q 137 778 83 661 q 290 957 190 895 q 524 1018 389 1018 q 757 957 658 1018 q 909 778 856 895 q 963 500 963 662 q 909 223 963 339 q 757 47 856 108 q 524 -14 658 -14 m 525 108 q 735 203 663 108 q 807 499 807 299 q 734 798 807 700 q 524 897 660 897 q 313 798 388 897 q 239 499 239 699 q 313 204 239 301 q 525 108 388 108 m 742 1204 q 618 1163 686 1163 q 570 1167 592 1163 q 521 1182 549 1172 q 477 1195 496 1190 q 438 1199 458 1199 q 386 1190 407 1199 q 338 1159 366 1180 l 313 1232 q 367 1272 340 1258 q 431 1286 394 1286 q 478 1281 456 1286 q 531 1265 501 1276 q 579 1251 559 1256 q 618 1247 599 1247 q 670 1257 647 1247 q 719 1288 692 1268 l 742 1204 z "},"Œ":{"ha":1556,"x_min":83,"x_max":1467,"o":"m 1467 0 l 840 0 l 813 113 q 696 18 767 51 q 531 -14 624 -14 q 291 47 391 -14 q 137 222 190 107 q 83 499 83 338 q 138 778 83 662 q 294 957 192 895 q 538 1018 397 1018 q 699 986 629 1018 q 813 890 768 953 l 847 1004 l 1451 1004 l 1450 883 l 956 883 l 956 567 l 1313 567 l 1313 446 l 956 446 l 956 122 l 1467 122 l 1467 0 m 525 106 q 726 201 661 106 q 791 499 791 296 q 725 801 791 703 q 524 899 659 899 q 320 801 388 899 q 253 499 253 703 q 320 201 253 297 q 525 106 387 106 z "},"P":{"ha":892,"x_min":126,"x_max":846,"o":"m 126 1004 l 472 1004 q 665 967 581 1004 q 798 858 750 930 q 846 685 846 786 q 801 515 846 586 q 677 406 757 444 q 490 369 597 369 l 272 369 l 272 0 l 126 0 l 126 1004 m 487 486 q 602 512 552 486 q 681 584 653 538 q 709 692 709 631 q 680 799 709 755 q 600 866 651 843 q 481 888 549 888 l 270 888 l 270 486 l 487 486 z "},"Þ":{"ha":938,"x_min":126,"x_max":892,"o":"m 892 518 q 846 355 892 421 q 720 256 801 289 q 531 224 639 224 l 288 224 l 288 0 l 126 0 l 126 1004 l 288 1004 l 288 801 l 511 801 q 708 770 622 801 q 843 675 794 739 q 892 518 892 612 m 726 520 q 667 641 726 602 q 503 681 608 681 l 288 681 l 288 344 l 512 344 q 669 388 613 344 q 726 520 726 433 z "},"Q":{"ha":1026,"x_min":63,"x_max":942,"o":"m 63 500 q 116 780 63 663 q 269 957 169 896 q 503 1018 368 1018 q 736 957 638 1018 q 889 780 835 896 q 942 500 942 663 q 895 236 942 345 q 751 60 849 126 q 823 -20 774 8 q 935 -50 872 -48 l 935 -169 q 761 -134 840 -169 q 621 -2 683 -99 q 503 -14 549 -14 q 269 46 368 -14 q 116 221 170 106 q 63 500 63 337 m 219 497 q 503 108 219 108 q 787 499 787 108 q 714 798 787 699 q 503 897 641 897 q 291 797 364 897 q 219 497 219 698 z "},"R":{"ha":946,"x_min":126,"x_max":856,"o":"m 706 0 l 526 424 l 268 424 l 268 0 l 126 0 l 126 1004 l 522 1004 q 768 931 685 1004 q 852 725 852 857 q 798 548 852 614 q 660 449 744 483 l 856 0 l 706 0 m 481 540 q 648 586 589 540 q 706 718 706 632 q 654 846 706 801 q 508 890 601 890 l 268 890 l 268 540 l 481 540 z "},"Ŕ":{"ha":946,"x_min":126,"x_max":856,"o":"m 706 0 l 526 424 l 268 424 l 268 0 l 126 0 l 126 1004 l 522 1004 q 768 931 685 1004 q 852 725 852 857 q 798 548 852 614 q 660 449 744 483 l 856 0 l 706 0 m 481 540 q 648 586 589 540 q 706 718 706 632 q 654 846 706 801 q 508 890 601 890 l 268 890 l 268 540 l 481 540 m 646 1200 l 292 1099 l 269 1167 l 611 1303 l 646 1200 z "},"Ř":{"ha":946,"x_min":126,"x_max":856,"o":"m 706 0 l 526 424 l 268 424 l 268 0 l 126 0 l 126 1004 l 522 1004 q 768 931 685 1004 q 852 725 852 857 q 798 548 852 614 q 660 449 744 483 l 856 0 l 706 0 m 481 540 q 648 586 589 540 q 706 718 706 632 q 654 846 706 801 q 508 890 601 890 l 268 890 l 268 540 l 481 540 m 681 1291 l 509 1126 l 408 1126 l 231 1291 l 353 1291 l 457 1195 l 553 1291 l 681 1291 z "},"Ŗ":{"ha":946,"x_min":126,"x_max":856,"o":"m 706 0 l 526 424 l 268 424 l 268 0 l 126 0 l 126 1004 l 522 1004 q 768 931 685 1004 q 852 725 852 857 q 798 548 852 614 q 660 449 744 483 l 856 0 l 706 0 m 481 540 q 648 586 589 540 q 706 718 706 632 q 654 846 706 801 q 508 890 601 890 l 268 890 l 268 540 l 481 540 z "},"Ȑ":{"ha":946,"x_min":126,"x_max":856,"o":"m 706 0 l 526 424 l 268 424 l 268 0 l 126 0 l 126 1004 l 522 1004 q 768 931 685 1004 q 852 725 852 857 q 798 548 852 614 q 660 449 744 483 l 856 0 l 706 0 m 481 540 q 648 586 589 540 q 706 718 706 632 q 654 846 706 801 q 508 890 601 890 l 268 890 l 268 540 l 481 540 m 418 1116 l 372 1060 l 156 1223 l 226 1306 l 418 1116 m 651 1116 l 605 1060 l 390 1223 l 459 1306 l 651 1116 z "},"Ṛ":{"ha":946,"x_min":126,"x_max":856,"o":"m 706 0 l 526 424 l 268 424 l 268 0 l 126 0 l 126 1004 l 522 1004 q 768 931 685 1004 q 852 725 852 857 q 798 548 852 614 q 660 449 744 483 l 856 0 l 706 0 m 481 540 q 648 586 589 540 q 706 718 706 632 q 654 846 706 801 q 508 890 601 890 l 268 890 l 268 540 l 481 540 z "},"Ȓ":{"ha":946,"x_min":126,"x_max":856,"o":"m 706 0 l 526 424 l 268 424 l 268 0 l 126 0 l 126 1004 l 522 1004 q 768 931 685 1004 q 852 725 852 857 q 798 548 852 614 q 660 449 744 483 l 856 0 l 706 0 m 481 540 q 648 586 589 540 q 706 718 706 632 q 654 846 706 801 q 508 890 601 890 l 268 890 l 268 540 l 481 540 m 573 1190 q 455 1263 531 1263 q 384 1242 410 1263 q 339 1190 358 1222 l 241 1190 q 316 1302 259 1259 q 455 1345 373 1345 q 555 1324 510 1345 q 631 1268 601 1303 q 674 1190 661 1233 l 573 1190 z "},"S":{"ha":966,"x_min":81,"x_max":878,"o":"m 487 -14 q 299 18 387 -14 q 151 111 210 49 q 81 262 92 174 l 229 269 q 278 178 241 216 q 368 121 315 140 q 486 102 422 102 q 611 121 556 102 q 698 176 667 140 q 730 260 730 212 q 553 426 730 386 l 356 469 q 175 557 238 494 q 111 724 111 620 q 159 876 111 810 q 291 980 207 943 q 482 1017 376 1017 q 678 977 594 1017 q 808 872 761 938 q 863 730 855 807 l 719 723 q 642 856 705 815 q 482 898 578 898 q 374 879 424 898 q 294 823 324 860 q 264 736 264 787 q 280 674 264 700 q 332 629 295 649 q 433 594 369 609 l 624 550 q 823 441 767 519 q 878 262 878 362 q 830 122 878 185 q 694 23 783 59 q 487 -14 606 -14 z "},"Ś":{"ha":966,"x_min":81,"x_max":878,"o":"m 487 -14 q 299 18 387 -14 q 151 111 210 49 q 81 262 92 174 l 229 269 q 278 178 241 216 q 368 121 315 140 q 486 102 422 102 q 611 121 556 102 q 698 176 667 140 q 730 260 730 212 q 553 426 730 386 l 356 469 q 175 557 238 494 q 111 724 111 620 q 159 876 111 810 q 291 980 207 943 q 482 1017 376 1017 q 678 977 594 1017 q 808 872 761 938 q 863 730 855 807 l 719 723 q 642 856 705 815 q 482 898 578 898 q 374 879 424 898 q 294 823 324 860 q 264 736 264 787 q 280 674 264 700 q 332 629 295 649 q 433 594 369 609 l 624 550 q 823 441 767 519 q 878 262 878 362 q 830 122 878 185 q 694 23 783 59 q 487 -14 606 -14 m 669 1200 l 315 1099 l 292 1167 l 634 1303 l 669 1200 z "},"Š":{"ha":966,"x_min":81,"x_max":878,"o":"m 487 -14 q 299 18 387 -14 q 151 111 210 49 q 81 262 92 174 l 229 269 q 278 178 241 216 q 368 121 315 140 q 486 102 422 102 q 611 121 556 102 q 698 176 667 140 q 730 260 730 212 q 553 426 730 386 l 356 469 q 175 557 238 494 q 111 724 111 620 q 159 876 111 810 q 291 980 207 943 q 482 1017 376 1017 q 678 977 594 1017 q 808 872 761 938 q 863 730 855 807 l 719 723 q 642 856 705 815 q 482 898 578 898 q 374 879 424 898 q 294 823 324 860 q 264 736 264 787 q 280 674 264 700 q 332 629 295 649 q 433 594 369 609 l 624 550 q 823 441 767 519 q 878 262 878 362 q 830 122 878 185 q 694 23 783 59 q 487 -14 606 -14 m 703 1291 l 531 1126 l 430 1126 l 253 1291 l 375 1291 l 479 1195 l 575 1291 l 703 1291 z "},"Ş":{"ha":966,"x_min":81,"x_max":878,"o":"m 878 262 q 833 125 878 187 q 703 27 788 64 q 506 -14 619 -10 l 482 -76 q 579 -109 549 -79 q 610 -180 610 -140 q 589 -238 610 -213 q 533 -275 568 -262 q 456 -287 499 -287 q 319 -252 374 -287 l 342 -196 q 440 -228 388 -228 q 513 -179 513 -228 q 487 -135 513 -149 q 401 -119 460 -120 q 391 -115 391 -119 l 392 -109 l 435 -12 q 269 30 345 -4 q 142 122 192 63 q 81 262 92 181 l 229 269 q 278 178 241 216 q 368 121 315 140 q 486 102 422 102 q 611 121 556 102 q 698 176 667 140 q 730 260 730 212 q 553 426 730 386 l 356 469 q 175 557 238 494 q 111 724 111 620 q 159 876 111 810 q 291 980 207 943 q 482 1017 376 1017 q 678 977 594 1017 q 808 872 761 938 q 863 730 855 807 l 719 723 q 642 856 705 815 q 482 898 578 898 q 374 879 424 898 q 294 823 324 860 q 264 736 264 787 q 280 674 264 700 q 332 629 295 649 q 433 594 369 609 l 624 550 q 823 441 767 519 q 878 262 878 362 z "},"Ŝ":{"ha":966,"x_min":81,"x_max":878,"o":"m 487 -14 q 299 18 387 -14 q 151 111 210 49 q 81 262 92 174 l 229 269 q 278 178 241 216 q 368 121 315 140 q 486 102 422 102 q 611 121 556 102 q 698 176 667 140 q 730 260 730 212 q 553 426 730 386 l 356 469 q 175 557 238 494 q 111 724 111 620 q 159 876 111 810 q 291 980 207 943 q 482 1017 376 1017 q 678 977 594 1017 q 808 872 761 938 q 863 730 855 807 l 719 723 q 642 856 705 815 q 482 898 578 898 q 374 879 424 898 q 294 823 324 860 q 264 736 264 787 q 280 674 264 700 q 332 629 295 649 q 433 594 369 609 l 624 550 q 823 441 767 519 q 878 262 878 362 q 830 122 878 185 q 694 23 783 59 q 487 -14 606 -14 m 479 1227 l 375 1131 l 254 1131 l 430 1296 l 531 1296 l 703 1131 l 575 1131 l 479 1227 z "},"Ș":{"ha":966,"x_min":81,"x_max":878,"o":"m 487 -14 q 299 18 387 -14 q 151 111 210 49 q 81 262 92 174 l 229 269 q 278 178 241 216 q 368 121 315 140 q 486 102 422 102 q 611 121 556 102 q 698 176 667 140 q 730 260 730 212 q 553 426 730 386 l 356 469 q 175 557 238 494 q 111 724 111 620 q 159 876 111 810 q 291 980 207 943 q 482 1017 376 1017 q 678 977 594 1017 q 808 872 761 938 q 863 730 855 807 l 719 723 q 642 856 705 815 q 482 898 578 898 q 374 879 424 898 q 294 823 324 860 q 264 736 264 787 q 280 674 264 700 q 332 629 295 649 q 433 594 369 609 l 624 550 q 823 441 767 519 q 878 262 878 362 q 830 122 878 185 q 694 23 783 59 q 487 -14 606 -14 z "},"Ṣ":{"ha":966,"x_min":81,"x_max":878,"o":"m 487 -14 q 299 18 387 -14 q 151 111 210 49 q 81 262 92 174 l 229 269 q 278 178 241 216 q 368 121 315 140 q 486 102 422 102 q 611 121 556 102 q 698 176 667 140 q 730 260 730 212 q 553 426 730 386 l 356 469 q 175 557 238 494 q 111 724 111 620 q 159 876 111 810 q 291 980 207 943 q 482 1017 376 1017 q 678 977 594 1017 q 808 872 761 938 q 863 730 855 807 l 719 723 q 642 856 705 815 q 482 898 578 898 q 374 879 424 898 q 294 823 324 860 q 264 736 264 787 q 280 674 264 700 q 332 629 295 649 q 433 594 369 609 l 624 550 q 823 441 767 519 q 878 262 878 362 q 830 122 878 185 q 694 23 783 59 q 487 -14 606 -14 z "},"Ə":{"ha":1043,"x_min":83,"x_max":960,"o":"m 787 556 q 731 788 787 688 q 523 888 675 888 q 394 859 444 888 q 318 791 344 830 q 267 698 292 753 q 249 660 257 674 q 242 656 246 656 q 228 660 237 656 l 122 708 q 114 717 114 711 q 118 732 114 724 q 196 865 153 805 q 320 971 239 924 q 522 1018 402 1018 q 774 945 676 1018 q 916 756 872 873 q 960 503 960 640 q 910 246 960 364 q 759 57 859 128 q 520 -14 660 -14 q 270 54 367 -14 q 128 239 172 122 q 83 513 83 357 q 86 534 83 528 q 103 540 90 540 l 772 540 q 783 543 780 540 q 787 556 787 547 m 277 429 q 263 426 267 429 q 259 414 259 423 q 285 263 259 333 q 369 150 310 194 q 519 106 427 106 q 719 194 659 106 q 786 428 778 282 l 277 429 z "},"T":{"ha":809,"x_min":21,"x_max":788,"o":"m 21 1004 l 788 1004 l 788 875 l 483 875 l 483 0 l 341 0 l 341 875 l 21 875 l 21 1004 z "},"Ŧ":{"ha":809,"x_min":21,"x_max":788,"o":"m 483 875 l 483 555 l 682 555 l 682 444 l 483 444 l 483 0 l 341 0 l 341 444 l 147 444 l 147 555 l 341 555 l 341 875 l 21 875 l 21 1004 l 788 1004 l 788 875 l 483 875 z "},"Ť":{"ha":809,"x_min":21,"x_max":788,"o":"m 21 1004 l 788 1004 l 788 875 l 483 875 l 483 0 l 341 0 l 341 875 l 21 875 l 21 1004 m 642 1291 l 470 1126 l 369 1126 l 192 1291 l 314 1291 l 418 1195 l 514 1291 l 642 1291 z "},"Ţ":{"ha":809,"x_min":21,"x_max":788,"o":"m 455 0 l 426 -75 q 523 -108 492 -78 q 553 -178 553 -138 q 533 -236 553 -212 q 477 -274 512 -261 q 400 -286 442 -286 q 263 -251 318 -286 l 286 -194 q 383 -227 331 -227 q 457 -178 457 -227 q 431 -133 457 -148 q 345 -118 404 -119 q 335 -113 335 -118 l 336 -108 l 383 0 l 341 0 l 341 875 l 21 875 l 21 1004 l 788 1004 l 788 875 l 483 875 l 483 0 l 455 0 z "},"Ț":{"ha":809,"x_min":21,"x_max":788,"o":"m 21 1004 l 788 1004 l 788 875 l 483 875 l 483 0 l 341 0 l 341 875 l 21 875 l 21 1004 z "},"Ṭ":{"ha":809,"x_min":21,"x_max":788,"o":"m 21 1004 l 788 1004 l 788 875 l 483 875 l 483 0 l 341 0 l 341 875 l 21 875 l 21 1004 z "},"U":{"ha":991,"x_min":126,"x_max":873,"o":"m 873 353 q 783 80 873 174 q 499 -14 692 -14 q 215 82 304 -14 q 126 366 126 177 l 126 1004 l 273 1004 l 273 347 q 331 169 273 228 q 499 110 390 110 q 670 169 610 110 q 730 347 730 228 l 730 1004 l 873 1004 l 873 353 z "},"Ú":{"ha":991,"x_min":126,"x_max":873,"o":"m 873 353 q 783 80 873 174 q 499 -14 692 -14 q 215 82 304 -14 q 126 366 126 177 l 126 1004 l 273 1004 l 273 347 q 331 169 273 228 q 499 110 390 110 q 670 169 610 110 q 730 347 730 228 l 730 1004 l 873 1004 l 873 353 m 690 1200 l 336 1099 l 313 1167 l 655 1303 l 690 1200 z "},"Ŭ":{"ha":991,"x_min":126,"x_max":873,"o":"m 873 353 q 783 80 873 174 q 499 -14 692 -14 q 215 82 304 -14 q 126 366 126 177 l 126 1004 l 273 1004 l 273 347 q 331 169 273 228 q 499 110 390 110 q 670 169 610 110 q 730 347 730 228 l 730 1004 l 873 1004 l 873 353 m 722 1289 q 680 1211 710 1246 q 604 1155 649 1176 q 503 1134 559 1134 q 364 1177 421 1134 q 290 1289 308 1219 l 388 1289 q 433 1237 406 1258 q 503 1216 459 1216 q 622 1289 579 1216 l 722 1289 z "},"Û":{"ha":991,"x_min":126,"x_max":873,"o":"m 873 353 q 783 80 873 174 q 499 -14 692 -14 q 215 82 304 -14 q 126 366 126 177 l 126 1004 l 273 1004 l 273 347 q 331 169 273 228 q 499 110 390 110 q 670 169 610 110 q 730 347 730 228 l 730 1004 l 873 1004 l 873 353 m 500 1227 l 396 1131 l 275 1131 l 451 1296 l 552 1296 l 724 1131 l 596 1131 l 500 1227 z "},"Ȕ":{"ha":991,"x_min":126,"x_max":873,"o":"m 873 353 q 783 80 873 174 q 499 -14 692 -14 q 215 82 304 -14 q 126 366 126 177 l 126 1004 l 273 1004 l 273 347 q 331 169 273 228 q 499 110 390 110 q 670 169 610 110 q 730 347 730 228 l 730 1004 l 873 1004 l 873 353 m 461 1116 l 415 1060 l 199 1223 l 269 1306 l 461 1116 m 694 1116 l 648 1060 l 433 1223 l 502 1306 l 694 1116 z "},"Ü":{"ha":991,"x_min":126,"x_max":873,"o":"m 873 353 q 783 80 873 174 q 499 -14 692 -14 q 215 82 304 -14 q 126 366 126 177 l 126 1004 l 273 1004 l 273 347 q 331 169 273 228 q 499 110 390 110 q 670 169 610 110 q 730 347 730 228 l 730 1004 l 873 1004 l 873 353 m 301 1287 l 450 1287 l 450 1145 l 301 1145 l 301 1287 m 549 1287 l 698 1287 l 698 1145 l 549 1145 l 549 1287 z "},"Ụ":{"ha":991,"x_min":126,"x_max":873,"o":"m 873 353 q 783 80 873 174 q 499 -14 692 -14 q 215 82 304 -14 q 126 366 126 177 l 126 1004 l 273 1004 l 273 347 q 331 169 273 228 q 499 110 390 110 q 670 169 610 110 q 730 347 730 228 l 730 1004 l 873 1004 l 873 353 z "},"Ù":{"ha":991,"x_min":126,"x_max":873,"o":"m 873 353 q 783 80 873 174 q 499 -14 692 -14 q 215 82 304 -14 q 126 366 126 177 l 126 1004 l 273 1004 l 273 347 q 331 169 273 228 q 499 110 390 110 q 670 169 610 110 q 730 347 730 228 l 730 1004 l 873 1004 l 873 353 m 674 1167 l 651 1099 l 298 1200 l 333 1303 l 674 1167 z "},"Ủ":{"ha":991,"x_min":126,"x_max":873,"o":"m 873 353 q 783 80 873 174 q 499 -14 692 -14 q 215 82 304 -14 q 126 366 126 177 l 126 1004 l 273 1004 l 273 347 q 331 169 273 228 q 499 110 390 110 q 670 169 610 110 q 730 347 730 228 l 730 1004 l 873 1004 l 873 353 m 444 1260 q 499 1278 472 1278 q 543 1256 530 1278 q 551 1230 551 1245 q 539 1195 551 1213 q 505 1165 526 1178 l 544 1103 q 609 1161 587 1128 q 631 1228 631 1193 q 608 1299 631 1264 q 563 1339 590 1324 q 503 1353 536 1353 q 405 1322 453 1353 l 444 1260 z "},"Ư":{"ha":1152,"x_min":126,"x_max":1074,"o":"m 1074 1027 q 1056 901 1074 949 q 998 828 1038 852 q 892 805 958 805 l 873 806 l 873 353 q 783 80 873 174 q 499 -14 692 -14 q 215 82 304 -14 q 126 366 126 177 l 126 1004 l 273 1004 l 273 347 q 331 169 273 228 q 499 110 390 110 q 670 169 610 110 q 730 347 730 228 l 730 1004 l 873 1004 l 873 892 q 925 905 906 894 q 953 944 943 915 q 966 1027 963 972 l 1074 1027 z "},"Ứ":{"ha":1152,"x_min":126,"x_max":1074,"o":"m 336 1099 l 313 1167 l 655 1303 l 690 1200 l 336 1099 m 1074 1027 q 1056 901 1074 949 q 998 828 1038 852 q 892 805 958 805 l 873 806 l 873 353 q 783 80 873 174 q 499 -14 692 -14 q 215 82 304 -14 q 126 366 126 177 l 126 1004 l 273 1004 l 273 347 q 331 169 273 228 q 499 110 390 110 q 670 169 610 110 q 730 347 730 228 l 730 1004 l 873 1004 l 873 892 q 925 905 906 894 q 953 944 943 915 q 966 1027 963 972 l 1074 1027 z "},"Ự":{"ha":1152,"x_min":126,"x_max":1074,"o":"m 1074 1027 q 1056 901 1074 949 q 998 828 1038 852 q 892 805 958 805 l 873 806 l 873 353 q 783 80 873 174 q 499 -14 692 -14 q 215 82 304 -14 q 126 366 126 177 l 126 1004 l 273 1004 l 273 347 q 331 169 273 228 q 499 110 390 110 q 670 169 610 110 q 730 347 730 228 l 730 1004 l 873 1004 l 873 892 q 925 905 906 894 q 953 944 943 915 q 966 1027 963 972 l 1074 1027 m 423 -118 l 572 -118 l 572 -259 l 423 -259 l 423 -118 z "},"Ừ":{"ha":1152,"x_min":126,"x_max":1074,"o":"m 651 1099 l 298 1200 l 333 1303 l 674 1167 l 651 1099 m 1074 1027 q 1056 901 1074 949 q 998 828 1038 852 q 892 805 958 805 l 873 806 l 873 353 q 783 80 873 174 q 499 -14 692 -14 q 215 82 304 -14 q 126 366 126 177 l 126 1004 l 273 1004 l 273 347 q 331 169 273 228 q 499 110 390 110 q 670 169 610 110 q 730 347 730 228 l 730 1004 l 873 1004 l 873 892 q 925 905 906 894 q 953 944 943 915 q 966 1027 963 972 l 1074 1027 z "},"Ử":{"ha":1152,"x_min":126,"x_max":1074,"o":"m 543 1256 q 499 1278 530 1278 q 444 1260 472 1278 l 405 1322 q 503 1353 453 1353 q 563 1339 536 1353 q 608 1299 590 1324 q 631 1228 631 1264 q 609 1161 631 1193 q 544 1103 587 1128 l 505 1165 q 539 1195 526 1178 q 551 1230 551 1213 q 543 1256 551 1245 m 1074 1027 q 1056 901 1074 949 q 998 828 1038 852 q 892 805 958 805 l 873 806 l 873 353 q 783 80 873 174 q 499 -14 692 -14 q 215 82 304 -14 q 126 366 126 177 l 126 1004 l 273 1004 l 273 347 q 331 169 273 228 q 499 110 390 110 q 670 169 610 110 q 730 347 730 228 l 730 1004 l 873 1004 l 873 892 q 925 905 906 894 q 953 944 943 915 q 966 1027 963 972 l 1074 1027 z "},"Ữ":{"ha":1152,"x_min":126,"x_max":1074,"o":"m 414 1199 q 363 1190 383 1199 q 314 1159 342 1180 l 289 1232 q 343 1272 317 1258 q 408 1286 370 1286 q 455 1281 432 1286 q 508 1265 477 1276 q 555 1251 535 1256 q 594 1247 575 1247 q 646 1257 624 1247 q 695 1288 669 1268 l 718 1204 q 594 1163 663 1163 q 547 1167 568 1163 q 497 1182 525 1172 q 453 1195 472 1190 q 414 1199 435 1199 m 1074 1027 q 1056 901 1074 949 q 998 828 1038 852 q 892 805 958 805 l 873 806 l 873 353 q 783 80 873 174 q 499 -14 692 -14 q 215 82 304 -14 q 126 366 126 177 l 126 1004 l 273 1004 l 273 347 q 331 169 273 228 q 499 110 390 110 q 670 169 610 110 q 730 347 730 228 l 730 1004 l 873 1004 l 873 892 q 925 905 906 894 q 953 944 943 915 q 966 1027 963 972 l 1074 1027 z "},"Ű":{"ha":991,"x_min":126,"x_max":873,"o":"m 873 353 q 783 80 873 174 q 499 -14 692 -14 q 215 82 304 -14 q 126 366 126 177 l 126 1004 l 273 1004 l 273 347 q 331 169 273 228 q 499 110 390 110 q 670 169 610 110 q 730 347 730 228 l 730 1004 l 873 1004 l 873 353 m 789 1223 l 574 1060 l 527 1116 l 719 1306 l 789 1223 m 554 1223 l 340 1060 l 292 1116 l 485 1306 l 554 1223 z "},"Ȗ":{"ha":991,"x_min":126,"x_max":873,"o":"m 873 353 q 783 80 873 174 q 499 -14 692 -14 q 215 82 304 -14 q 126 366 126 177 l 126 1004 l 273 1004 l 273 347 q 331 169 273 228 q 499 110 390 110 q 670 169 610 110 q 730 347 730 228 l 730 1004 l 873 1004 l 873 353 m 617 1190 q 499 1263 574 1263 q 428 1242 454 1263 q 383 1190 401 1222 l 285 1190 q 360 1302 303 1259 q 499 1345 417 1345 q 599 1324 553 1345 q 675 1268 644 1303 q 717 1190 705 1233 l 617 1190 z "},"Ū":{"ha":991,"x_min":126,"x_max":873,"o":"m 873 353 q 783 80 873 174 q 499 -14 692 -14 q 215 82 304 -14 q 126 366 126 177 l 126 1004 l 273 1004 l 273 347 q 331 169 273 228 q 499 110 390 110 q 670 169 610 110 q 730 347 730 228 l 730 1004 l 873 1004 l 873 353 m 715 1177 l 287 1177 l 287 1274 l 715 1274 l 715 1177 z "},"Ų":{"ha":991,"x_min":126,"x_max":873,"o":"m 873 1004 l 873 353 q 805 105 873 197 q 592 -8 736 14 q 511 -56 535 -33 q 487 -108 487 -79 q 501 -145 487 -133 q 548 -158 516 -158 q 604 -150 578 -158 q 648 -131 630 -142 l 648 -203 q 592 -224 628 -215 q 515 -233 555 -233 q 412 -203 448 -233 q 376 -122 376 -174 q 394 -61 376 -88 q 456 -12 413 -34 q 205 93 284 -2 q 126 366 126 188 l 126 1004 l 273 1004 l 273 347 q 331 169 273 228 q 499 110 390 110 q 670 169 610 110 q 730 347 730 228 l 730 1004 l 873 1004 z "},"Ů":{"ha":991,"x_min":126,"x_max":873,"o":"m 873 353 q 783 80 873 174 q 499 -14 692 -14 q 215 82 304 -14 q 126 366 126 177 l 126 1004 l 273 1004 l 273 347 q 331 169 273 228 q 499 110 390 110 q 670 169 610 110 q 730 347 730 228 l 730 1004 l 873 1004 l 873 353 m 647 1229 q 627 1156 647 1190 q 574 1104 608 1123 q 501 1085 541 1085 q 428 1104 461 1085 q 376 1157 395 1124 q 357 1232 357 1191 q 376 1302 357 1270 q 429 1353 396 1334 q 501 1372 462 1372 q 574 1352 541 1372 q 627 1301 608 1333 q 647 1229 647 1268 m 573 1228 q 552 1281 573 1260 q 500 1301 531 1301 q 448 1281 469 1301 q 426 1228 426 1260 q 448 1176 426 1199 q 500 1153 470 1153 q 552 1176 531 1153 q 573 1228 573 1199 z "},"Ũ":{"ha":991,"x_min":126,"x_max":873,"o":"m 873 353 q 783 80 873 174 q 499 -14 692 -14 q 215 82 304 -14 q 126 366 126 177 l 126 1004 l 273 1004 l 273 347 q 331 169 273 228 q 499 110 390 110 q 670 169 610 110 q 730 347 730 228 l 730 1004 l 873 1004 l 873 353 m 718 1204 q 594 1163 663 1163 q 547 1167 568 1163 q 497 1182 525 1172 q 453 1195 472 1190 q 414 1199 435 1199 q 363 1190 383 1199 q 314 1159 342 1180 l 289 1232 q 343 1272 317 1258 q 408 1286 370 1286 q 455 1281 432 1286 q 508 1265 477 1276 q 555 1251 535 1256 q 594 1247 575 1247 q 646 1257 624 1247 q 695 1288 669 1268 l 718 1204 z "},"V":{"ha":907,"x_min":18,"x_max":889,"o":"m 535 0 l 367 0 l 18 1004 l 157 1004 l 451 163 l 751 1004 l 889 1004 l 535 0 z "},"W":{"ha":1333,"x_min":33,"x_max":1299,"o":"m 1006 0 l 878 0 l 665 756 l 447 0 l 324 0 l 33 1004 l 176 1004 l 392 229 l 610 1004 l 719 1004 l 939 229 l 1158 1004 l 1299 1004 l 1006 0 z "},"Ẃ":{"ha":1333,"x_min":33,"x_max":1299,"o":"m 1006 0 l 878 0 l 665 756 l 447 0 l 324 0 l 33 1004 l 176 1004 l 392 229 l 610 1004 l 719 1004 l 939 229 l 1158 1004 l 1299 1004 l 1006 0 m 854 1200 l 501 1099 l 478 1167 l 819 1303 l 854 1200 z "},"Ŵ":{"ha":1333,"x_min":33,"x_max":1299,"o":"m 1006 0 l 878 0 l 665 756 l 447 0 l 324 0 l 33 1004 l 176 1004 l 392 229 l 610 1004 l 719 1004 l 939 229 l 1158 1004 l 1299 1004 l 1006 0 m 665 1227 l 560 1131 l 440 1131 l 615 1296 l 717 1296 l 888 1131 l 760 1131 l 665 1227 z "},"Ẅ":{"ha":1333,"x_min":33,"x_max":1299,"o":"m 1006 0 l 878 0 l 665 756 l 447 0 l 324 0 l 33 1004 l 176 1004 l 392 229 l 610 1004 l 719 1004 l 939 229 l 1158 1004 l 1299 1004 l 1006 0 m 465 1287 l 615 1287 l 615 1145 l 465 1145 l 465 1287 m 713 1287 l 863 1287 l 863 1145 l 713 1145 l 713 1287 z "},"Ẁ":{"ha":1333,"x_min":33,"x_max":1299,"o":"m 1006 0 l 878 0 l 665 756 l 447 0 l 324 0 l 33 1004 l 176 1004 l 392 229 l 610 1004 l 719 1004 l 939 229 l 1158 1004 l 1299 1004 l 1006 0 m 839 1167 l 816 1099 l 463 1200 l 497 1303 l 839 1167 z "},"X":{"ha":924,"x_min":33,"x_max":891,"o":"m 713 0 l 451 402 l 191 0 l 33 0 l 372 512 l 46 1004 l 224 1004 l 463 634 l 701 1004 l 858 1004 l 540 528 l 891 0 l 713 0 z "},"Y":{"ha":849,"x_min":11,"x_max":838,"o":"m 497 426 l 497 0 l 355 0 l 355 427 l 11 1004 l 166 1004 l 426 552 l 683 1004 l 838 1004 l 497 426 z "},"Ý":{"ha":849,"x_min":11,"x_max":838,"o":"m 497 426 l 497 0 l 355 0 l 355 427 l 11 1004 l 166 1004 l 426 552 l 683 1004 l 838 1004 l 497 426 m 627 1201 l 274 1100 l 251 1169 l 592 1305 l 627 1201 z "},"Ŷ":{"ha":849,"x_min":11,"x_max":838,"o":"m 497 426 l 497 0 l 355 0 l 355 427 l 11 1004 l 166 1004 l 426 552 l 683 1004 l 838 1004 l 497 426 m 438 1228 l 334 1133 l 213 1133 l 389 1297 l 490 1297 l 662 1133 l 534 1133 l 438 1228 z "},"Ÿ":{"ha":849,"x_min":11,"x_max":838,"o":"m 497 426 l 497 0 l 355 0 l 355 427 l 11 1004 l 166 1004 l 426 552 l 683 1004 l 838 1004 l 497 426 m 238 1288 l 388 1288 l 388 1147 l 238 1147 l 238 1288 m 486 1288 l 635 1288 l 635 1147 l 486 1147 l 486 1288 z "},"Ỵ":{"ha":849,"x_min":11,"x_max":838,"o":"m 497 426 l 497 0 l 355 0 l 355 427 l 11 1004 l 166 1004 l 426 552 l 683 1004 l 838 1004 l 497 426 z "},"Ỳ":{"ha":849,"x_min":11,"x_max":838,"o":"m 497 426 l 497 0 l 355 0 l 355 427 l 11 1004 l 166 1004 l 426 552 l 683 1004 l 838 1004 l 497 426 m 612 1169 l 589 1100 l 235 1201 l 270 1305 l 612 1169 z "},"Ỷ":{"ha":849,"x_min":11,"x_max":838,"o":"m 497 426 l 497 0 l 355 0 l 355 427 l 11 1004 l 166 1004 l 426 552 l 683 1004 l 838 1004 l 497 426 m 383 1262 q 438 1280 410 1280 q 481 1258 468 1280 q 489 1231 489 1247 q 477 1197 489 1214 q 443 1166 465 1180 l 483 1104 q 547 1162 525 1130 q 569 1229 569 1194 q 546 1300 569 1265 q 501 1340 528 1326 q 442 1354 474 1354 q 343 1323 392 1354 l 383 1262 z "},"Ỹ":{"ha":849,"x_min":11,"x_max":838,"o":"m 497 426 l 497 0 l 355 0 l 355 427 l 11 1004 l 166 1004 l 426 552 l 683 1004 l 838 1004 l 497 426 m 656 1206 q 532 1164 600 1164 q 484 1169 506 1164 q 435 1183 463 1174 q 391 1196 410 1192 q 351 1201 372 1201 q 300 1191 321 1201 q 251 1160 280 1181 l 226 1233 q 281 1274 254 1260 q 345 1288 308 1288 q 392 1282 369 1288 q 445 1267 415 1277 q 493 1253 473 1258 q 532 1248 513 1248 q 584 1259 561 1248 q 633 1289 606 1269 l 656 1206 z "},"Z":{"ha":882,"x_min":71,"x_max":814,"o":"m 71 76 l 614 882 l 97 882 l 97 1004 l 814 1004 l 814 931 l 265 124 l 810 124 l 810 0 l 71 0 l 71 76 z "},"Ź":{"ha":882,"x_min":71,"x_max":814,"o":"m 71 76 l 614 882 l 97 882 l 97 1004 l 814 1004 l 814 931 l 265 124 l 810 124 l 810 0 l 71 0 l 71 76 m 649 1200 l 296 1099 l 273 1167 l 615 1303 l 649 1200 z "},"Ž":{"ha":882,"x_min":71,"x_max":814,"o":"m 71 76 l 614 882 l 97 882 l 97 1004 l 814 1004 l 814 931 l 265 124 l 810 124 l 810 0 l 71 0 l 71 76 m 684 1291 l 513 1126 l 411 1126 l 235 1291 l 356 1291 l 460 1195 l 556 1291 l 684 1291 z "},"Ż":{"ha":882,"x_min":71,"x_max":814,"o":"m 71 76 l 614 882 l 97 882 l 97 1004 l 814 1004 l 814 931 l 265 124 l 810 124 l 810 0 l 71 0 l 71 76 m 385 1261 l 535 1261 l 535 1120 l 385 1120 l 385 1261 z "},"Ẓ":{"ha":882,"x_min":71,"x_max":814,"o":"m 71 76 l 614 882 l 97 882 l 97 1004 l 814 1004 l 814 931 l 265 124 l 810 124 l 810 0 l 71 0 l 71 76 z "},"a":{"ha":763,"x_min":60,"x_max":672,"o":"m 297 -14 q 173 11 227 -14 q 90 84 119 36 q 60 197 60 131 q 144 375 60 316 q 413 438 228 433 l 534 440 l 534 494 q 492 594 534 559 q 378 630 450 630 q 271 599 317 629 q 212 513 225 569 l 88 513 q 130 627 92 578 q 233 704 167 676 q 385 732 299 732 q 599 671 526 732 q 672 502 672 610 l 672 0 l 551 0 l 540 128 q 440 18 501 50 q 297 -14 380 -14 m 341 86 q 431 108 386 86 q 505 165 476 130 q 534 237 534 200 l 534 356 l 434 355 q 256 319 315 353 q 197 210 197 285 q 236 119 197 153 q 341 86 276 86 z "},"á":{"ha":763,"x_min":60,"x_max":672,"o":"m 297 -14 q 173 11 227 -14 q 90 84 119 36 q 60 197 60 131 q 144 375 60 316 q 413 438 228 433 l 534 440 l 534 494 q 492 594 534 559 q 378 630 450 630 q 271 599 317 629 q 212 513 225 569 l 88 513 q 130 627 92 578 q 233 704 167 676 q 385 732 299 732 q 599 671 526 732 q 672 502 672 610 l 672 0 l 551 0 l 540 128 q 440 18 501 50 q 297 -14 380 -14 m 341 86 q 431 108 386 86 q 505 165 476 130 q 534 237 534 200 l 534 356 l 434 355 q 256 319 315 353 q 197 210 197 285 q 236 119 197 153 q 341 86 276 86 m 574 914 l 221 813 l 198 881 l 540 1017 l 574 914 z "},"ă":{"ha":763,"x_min":60,"x_max":672,"o":"m 297 -14 q 173 11 227 -14 q 90 84 119 36 q 60 197 60 131 q 144 375 60 316 q 413 438 228 433 l 534 440 l 534 494 q 492 594 534 559 q 378 630 450 630 q 271 599 317 629 q 212 513 225 569 l 88 513 q 130 627 92 578 q 233 704 167 676 q 385 732 299 732 q 599 671 526 732 q 672 502 672 610 l 672 0 l 551 0 l 540 128 q 440 18 501 50 q 297 -14 380 -14 m 341 86 q 431 108 386 86 q 505 165 476 130 q 534 237 534 200 l 534 356 l 434 355 q 256 319 315 353 q 197 210 197 285 q 236 119 197 153 q 341 86 276 86 m 607 1003 q 564 925 594 960 q 489 869 534 890 q 388 848 444 848 q 249 891 306 848 q 174 1003 192 933 l 272 1003 q 317 951 291 972 q 388 930 344 930 q 506 1003 464 930 l 607 1003 z "},"ắ":{"ha":763,"x_min":60,"x_max":672,"o":"m 297 -14 q 173 11 227 -14 q 90 84 119 36 q 60 197 60 131 q 144 375 60 316 q 413 438 228 433 l 534 440 l 534 494 q 492 594 534 559 q 378 630 450 630 q 271 599 317 629 q 212 513 225 569 l 88 513 q 130 627 92 578 q 233 704 167 676 q 385 732 299 732 q 599 671 526 732 q 672 502 672 610 l 672 0 l 551 0 l 540 128 q 440 18 501 50 q 297 -14 380 -14 m 341 86 q 431 108 386 86 q 505 165 476 130 q 534 237 534 200 l 534 356 l 434 355 q 256 319 315 353 q 197 210 197 285 q 236 119 197 153 q 341 86 276 86 z "},"ặ":{"ha":763,"x_min":60,"x_max":672,"o":"m 297 -14 q 173 11 227 -14 q 90 84 119 36 q 60 197 60 131 q 144 375 60 316 q 413 438 228 433 l 534 440 l 534 494 q 492 594 534 559 q 378 630 450 630 q 271 599 317 629 q 212 513 225 569 l 88 513 q 130 627 92 578 q 233 704 167 676 q 385 732 299 732 q 599 671 526 732 q 672 502 672 610 l 672 0 l 551 0 l 540 128 q 440 18 501 50 q 297 -14 380 -14 m 341 86 q 431 108 386 86 q 505 165 476 130 q 534 237 534 200 l 534 356 l 434 355 q 256 319 315 353 q 197 210 197 285 q 236 119 197 153 q 341 86 276 86 m 607 1003 q 564 925 594 960 q 489 869 534 890 q 388 848 444 848 q 249 891 306 848 q 174 1003 192 933 l 272 1003 q 317 951 291 972 q 388 930 344 930 q 506 1003 464 930 l 607 1003 z "},"ằ":{"ha":763,"x_min":60,"x_max":672,"o":"m 297 -14 q 173 11 227 -14 q 90 84 119 36 q 60 197 60 131 q 144 375 60 316 q 413 438 228 433 l 534 440 l 534 494 q 492 594 534 559 q 378 630 450 630 q 271 599 317 629 q 212 513 225 569 l 88 513 q 130 627 92 578 q 233 704 167 676 q 385 732 299 732 q 599 671 526 732 q 672 502 672 610 l 672 0 l 551 0 l 540 128 q 440 18 501 50 q 297 -14 380 -14 m 341 86 q 431 108 386 86 q 505 165 476 130 q 534 237 534 200 l 534 356 l 434 355 q 256 319 315 353 q 197 210 197 285 q 236 119 197 153 q 341 86 276 86 z "},"ẳ":{"ha":763,"x_min":60,"x_max":672,"o":"m 297 -14 q 173 11 227 -14 q 90 84 119 36 q 60 197 60 131 q 144 375 60 316 q 413 438 228 433 l 534 440 l 534 494 q 492 594 534 559 q 378 630 450 630 q 271 599 317 629 q 212 513 225 569 l 88 513 q 130 627 92 578 q 233 704 167 676 q 385 732 299 732 q 599 671 526 732 q 672 502 672 610 l 672 0 l 551 0 l 540 128 q 440 18 501 50 q 297 -14 380 -14 m 341 86 q 431 108 386 86 q 505 165 476 130 q 534 237 534 200 l 534 356 l 434 355 q 256 319 315 353 q 197 210 197 285 q 236 119 197 153 q 341 86 276 86 z "},"ẵ":{"ha":763,"x_min":60,"x_max":672,"o":"m 297 -14 q 173 11 227 -14 q 90 84 119 36 q 60 197 60 131 q 144 375 60 316 q 413 438 228 433 l 534 440 l 534 494 q 492 594 534 559 q 378 630 450 630 q 271 599 317 629 q 212 513 225 569 l 88 513 q 130 627 92 578 q 233 704 167 676 q 385 732 299 732 q 599 671 526 732 q 672 502 672 610 l 672 0 l 551 0 l 540 128 q 440 18 501 50 q 297 -14 380 -14 m 341 86 q 431 108 386 86 q 505 165 476 130 q 534 237 534 200 l 534 356 l 434 355 q 256 319 315 353 q 197 210 197 285 q 236 119 197 153 q 341 86 276 86 z "},"â":{"ha":763,"x_min":60,"x_max":672,"o":"m 297 -14 q 173 11 227 -14 q 90 84 119 36 q 60 197 60 131 q 144 375 60 316 q 413 438 228 433 l 534 440 l 534 494 q 492 594 534 559 q 378 630 450 630 q 271 599 317 629 q 212 513 225 569 l 88 513 q 130 627 92 578 q 233 704 167 676 q 385 732 299 732 q 599 671 526 732 q 672 502 672 610 l 672 0 l 551 0 l 540 128 q 440 18 501 50 q 297 -14 380 -14 m 341 86 q 431 108 386 86 q 505 165 476 130 q 534 237 534 200 l 534 356 l 434 355 q 256 319 315 353 q 197 210 197 285 q 236 119 197 153 q 341 86 276 86 m 385 941 l 281 845 l 160 845 l 336 1010 l 438 1010 l 609 845 l 481 845 l 385 941 z "},"ấ":{"ha":763,"x_min":60,"x_max":672,"o":"m 297 -14 q 173 11 227 -14 q 90 84 119 36 q 60 197 60 131 q 144 375 60 316 q 413 438 228 433 l 534 440 l 534 494 q 492 594 534 559 q 378 630 450 630 q 271 599 317 629 q 212 513 225 569 l 88 513 q 130 627 92 578 q 233 704 167 676 q 385 732 299 732 q 599 671 526 732 q 672 502 672 610 l 672 0 l 551 0 l 540 128 q 440 18 501 50 q 297 -14 380 -14 m 341 86 q 431 108 386 86 q 505 165 476 130 q 534 237 534 200 l 534 356 l 434 355 q 256 319 315 353 q 197 210 197 285 q 236 119 197 153 q 341 86 276 86 z "},"ậ":{"ha":763,"x_min":60,"x_max":672,"o":"m 297 -14 q 173 11 227 -14 q 90 84 119 36 q 60 197 60 131 q 144 375 60 316 q 413 438 228 433 l 534 440 l 534 494 q 492 594 534 559 q 378 630 450 630 q 271 599 317 629 q 212 513 225 569 l 88 513 q 130 627 92 578 q 233 704 167 676 q 385 732 299 732 q 599 671 526 732 q 672 502 672 610 l 672 0 l 551 0 l 540 128 q 440 18 501 50 q 297 -14 380 -14 m 341 86 q 431 108 386 86 q 505 165 476 130 q 534 237 534 200 l 534 356 l 434 355 q 256 319 315 353 q 197 210 197 285 q 236 119 197 153 q 341 86 276 86 m 385 941 l 281 845 l 160 845 l 336 1010 l 438 1010 l 609 845 l 481 845 l 385 941 z "},"ầ":{"ha":763,"x_min":60,"x_max":672,"o":"m 297 -14 q 173 11 227 -14 q 90 84 119 36 q 60 197 60 131 q 144 375 60 316 q 413 438 228 433 l 534 440 l 534 494 q 492 594 534 559 q 378 630 450 630 q 271 599 317 629 q 212 513 225 569 l 88 513 q 130 627 92 578 q 233 704 167 676 q 385 732 299 732 q 599 671 526 732 q 672 502 672 610 l 672 0 l 551 0 l 540 128 q 440 18 501 50 q 297 -14 380 -14 m 341 86 q 431 108 386 86 q 505 165 476 130 q 534 237 534 200 l 534 356 l 434 355 q 256 319 315 353 q 197 210 197 285 q 236 119 197 153 q 341 86 276 86 z "},"ẩ":{"ha":763,"x_min":60,"x_max":672,"o":"m 297 -14 q 173 11 227 -14 q 90 84 119 36 q 60 197 60 131 q 144 375 60 316 q 413 438 228 433 l 534 440 l 534 494 q 492 594 534 559 q 378 630 450 630 q 271 599 317 629 q 212 513 225 569 l 88 513 q 130 627 92 578 q 233 704 167 676 q 385 732 299 732 q 599 671 526 732 q 672 502 672 610 l 672 0 l 551 0 l 540 128 q 440 18 501 50 q 297 -14 380 -14 m 341 86 q 431 108 386 86 q 505 165 476 130 q 534 237 534 200 l 534 356 l 434 355 q 256 319 315 353 q 197 210 197 285 q 236 119 197 153 q 341 86 276 86 z "},"ẫ":{"ha":763,"x_min":60,"x_max":672,"o":"m 297 -14 q 173 11 227 -14 q 90 84 119 36 q 60 197 60 131 q 144 375 60 316 q 413 438 228 433 l 534 440 l 534 494 q 492 594 534 559 q 378 630 450 630 q 271 599 317 629 q 212 513 225 569 l 88 513 q 130 627 92 578 q 233 704 167 676 q 385 732 299 732 q 599 671 526 732 q 672 502 672 610 l 672 0 l 551 0 l 540 128 q 440 18 501 50 q 297 -14 380 -14 m 341 86 q 431 108 386 86 q 505 165 476 130 q 534 237 534 200 l 534 356 l 434 355 q 256 319 315 353 q 197 210 197 285 q 236 119 197 153 q 341 86 276 86 z "},"ȁ":{"ha":763,"x_min":60,"x_max":672,"o":"m 297 -14 q 173 11 227 -14 q 90 84 119 36 q 60 197 60 131 q 144 375 60 316 q 413 438 228 433 l 534 440 l 534 494 q 492 594 534 559 q 378 630 450 630 q 271 599 317 629 q 212 513 225 569 l 88 513 q 130 627 92 578 q 233 704 167 676 q 385 732 299 732 q 599 671 526 732 q 672 502 672 610 l 672 0 l 551 0 l 540 128 q 440 18 501 50 q 297 -14 380 -14 m 341 86 q 431 108 386 86 q 505 165 476 130 q 534 237 534 200 l 534 356 l 434 355 q 256 319 315 353 q 197 210 197 285 q 236 119 197 153 q 341 86 276 86 m 346 830 l 299 774 l 84 937 l 154 1020 l 346 830 m 578 830 l 533 774 l 317 937 l 387 1020 l 578 830 z "},"ä":{"ha":763,"x_min":60,"x_max":672,"o":"m 297 -14 q 173 11 227 -14 q 90 84 119 36 q 60 197 60 131 q 144 375 60 316 q 413 438 228 433 l 534 440 l 534 494 q 492 594 534 559 q 378 630 450 630 q 271 599 317 629 q 212 513 225 569 l 88 513 q 130 627 92 578 q 233 704 167 676 q 385 732 299 732 q 599 671 526 732 q 672 502 672 610 l 672 0 l 551 0 l 540 128 q 440 18 501 50 q 297 -14 380 -14 m 341 86 q 431 108 386 86 q 505 165 476 130 q 534 237 534 200 l 534 356 l 434 355 q 256 319 315 353 q 197 210 197 285 q 236 119 197 153 q 341 86 276 86 m 185 1001 l 335 1001 l 335 859 l 185 859 l 185 1001 m 433 1001 l 583 1001 l 583 859 l 433 859 l 433 1001 z "},"ạ":{"ha":763,"x_min":60,"x_max":672,"o":"m 297 -14 q 173 11 227 -14 q 90 84 119 36 q 60 197 60 131 q 144 375 60 316 q 413 438 228 433 l 534 440 l 534 494 q 492 594 534 559 q 378 630 450 630 q 271 599 317 629 q 212 513 225 569 l 88 513 q 130 627 92 578 q 233 704 167 676 q 385 732 299 732 q 599 671 526 732 q 672 502 672 610 l 672 0 l 551 0 l 540 128 q 440 18 501 50 q 297 -14 380 -14 m 341 86 q 431 108 386 86 q 505 165 476 130 q 534 237 534 200 l 534 356 l 434 355 q 256 319 315 353 q 197 210 197 285 q 236 119 197 153 q 341 86 276 86 z "},"à":{"ha":763,"x_min":60,"x_max":672,"o":"m 297 -14 q 173 11 227 -14 q 90 84 119 36 q 60 197 60 131 q 144 375 60 316 q 413 438 228 433 l 534 440 l 534 494 q 492 594 534 559 q 378 630 450 630 q 271 599 317 629 q 212 513 225 569 l 88 513 q 130 627 92 578 q 233 704 167 676 q 385 732 299 732 q 599 671 526 732 q 672 502 672 610 l 672 0 l 551 0 l 540 128 q 440 18 501 50 q 297 -14 380 -14 m 341 86 q 431 108 386 86 q 505 165 476 130 q 534 237 534 200 l 534 356 l 434 355 q 256 319 315 353 q 197 210 197 285 q 236 119 197 153 q 341 86 276 86 m 559 881 l 536 813 l 183 914 l 217 1017 l 559 881 z "},"ả":{"ha":763,"x_min":60,"x_max":672,"o":"m 297 -14 q 173 11 227 -14 q 90 84 119 36 q 60 197 60 131 q 144 375 60 316 q 413 438 228 433 l 534 440 l 534 494 q 492 594 534 559 q 378 630 450 630 q 271 599 317 629 q 212 513 225 569 l 88 513 q 130 627 92 578 q 233 704 167 676 q 385 732 299 732 q 599 671 526 732 q 672 502 672 610 l 672 0 l 551 0 l 540 128 q 440 18 501 50 q 297 -14 380 -14 m 341 86 q 431 108 386 86 q 505 165 476 130 q 534 237 534 200 l 534 356 l 434 355 q 256 319 315 353 q 197 210 197 285 q 236 119 197 153 q 341 86 276 86 m 330 974 q 385 992 358 992 q 428 970 415 992 q 436 944 436 959 q 424 909 436 926 q 390 878 412 892 l 430 817 q 494 875 472 842 q 517 942 517 907 q 493 1013 517 978 q 449 1052 476 1038 q 389 1067 422 1067 q 290 1035 339 1067 l 330 974 z "},"ȃ":{"ha":763,"x_min":60,"x_max":672,"o":"m 297 -14 q 173 11 227 -14 q 90 84 119 36 q 60 197 60 131 q 144 375 60 316 q 413 438 228 433 l 534 440 l 534 494 q 492 594 534 559 q 378 630 450 630 q 271 599 317 629 q 212 513 225 569 l 88 513 q 130 627 92 578 q 233 704 167 676 q 385 732 299 732 q 599 671 526 732 q 672 502 672 610 l 672 0 l 551 0 l 540 128 q 440 18 501 50 q 297 -14 380 -14 m 341 86 q 431 108 386 86 q 505 165 476 130 q 534 237 534 200 l 534 356 l 434 355 q 256 319 315 353 q 197 210 197 285 q 236 119 197 153 q 341 86 276 86 m 501 903 q 383 977 459 977 q 313 956 339 977 q 267 903 286 935 l 169 903 q 244 1016 188 973 q 383 1059 301 1059 q 484 1038 438 1059 q 559 982 529 1017 q 602 903 590 947 l 501 903 z "},"ā":{"ha":763,"x_min":60,"x_max":672,"o":"m 297 -14 q 173 11 227 -14 q 90 84 119 36 q 60 197 60 131 q 144 375 60 316 q 413 438 228 433 l 534 440 l 534 494 q 492 594 534 559 q 378 630 450 630 q 271 599 317 629 q 212 513 225 569 l 88 513 q 130 627 92 578 q 233 704 167 676 q 385 732 299 732 q 599 671 526 732 q 672 502 672 610 l 672 0 l 551 0 l 540 128 q 440 18 501 50 q 297 -14 380 -14 m 341 86 q 431 108 386 86 q 505 165 476 130 q 534 237 534 200 l 534 356 l 434 355 q 256 319 315 353 q 197 210 197 285 q 236 119 197 153 q 341 86 276 86 m 599 891 l 172 891 l 172 988 l 599 988 l 599 891 z "},"ą":{"ha":763,"x_min":60,"x_max":697,"o":"m 597 -155 q 652 -147 626 -155 q 697 -128 678 -140 l 697 -201 q 640 -221 677 -212 q 564 -230 603 -230 q 460 -201 497 -230 q 424 -119 424 -172 q 452 -47 424 -78 q 550 9 480 -16 l 540 128 q 440 18 501 50 q 297 -14 380 -14 q 173 11 227 -14 q 90 84 119 36 q 60 197 60 131 q 144 375 60 316 q 413 438 228 433 l 534 440 l 534 494 q 492 594 534 559 q 378 630 450 630 q 271 599 317 629 q 212 513 225 569 l 88 513 q 130 627 92 578 q 233 704 167 676 q 385 732 299 732 q 599 671 526 732 q 672 502 672 610 l 672 0 l 651 0 q 562 -51 588 -27 q 535 -106 535 -74 q 550 -143 535 -131 q 597 -155 565 -155 m 534 356 l 434 355 q 256 319 315 353 q 197 210 197 285 q 236 119 197 153 q 341 86 276 86 q 431 108 386 86 q 505 165 476 130 q 534 237 534 200 l 534 356 z "},"å":{"ha":763,"x_min":60,"x_max":672,"o":"m 297 -14 q 173 11 227 -14 q 90 84 119 36 q 60 197 60 131 q 144 375 60 316 q 413 438 228 433 l 534 440 l 534 494 q 492 594 534 559 q 378 630 450 630 q 271 599 317 629 q 212 513 225 569 l 88 513 q 130 627 92 578 q 233 704 167 676 q 385 732 299 732 q 599 671 526 732 q 672 502 672 610 l 672 0 l 551 0 l 540 128 q 440 18 501 50 q 297 -14 380 -14 m 341 86 q 431 108 386 86 q 505 165 476 130 q 534 237 534 200 l 534 356 l 434 355 q 256 319 315 353 q 197 210 197 285 q 236 119 197 153 q 341 86 276 86 m 531 943 q 512 870 531 903 q 459 818 492 837 q 386 799 426 799 q 313 818 346 799 q 261 871 280 838 q 242 946 242 905 q 261 1016 242 984 q 314 1067 281 1048 q 386 1085 347 1085 q 459 1066 426 1085 q 512 1015 492 1047 q 531 943 531 982 m 458 942 q 437 995 458 974 q 385 1015 416 1015 q 332 994 354 1015 q 310 942 310 974 q 333 890 310 913 q 385 867 355 867 q 436 890 415 867 q 458 942 458 913 z "},"ǻ":{"ha":763,"x_min":60,"x_max":672,"o":"m 495 720 q 627 642 583 699 q 672 502 672 585 l 672 0 l 551 0 l 540 128 q 440 18 501 50 q 297 -14 380 -14 q 173 11 227 -14 q 90 84 119 36 q 60 197 60 131 q 144 375 60 316 q 413 438 228 433 l 534 440 l 534 494 q 492 594 534 559 q 378 630 450 630 q 271 599 317 629 q 212 513 225 569 l 88 513 q 146 646 93 591 q 288 722 199 701 q 261 765 270 740 q 251 818 251 790 q 283 903 251 867 q 363 949 315 939 l 384 1038 l 484 1038 l 444 942 q 508 894 484 928 q 533 815 533 860 q 523 763 533 787 q 495 720 513 738 m 390 888 q 338 866 360 888 q 316 814 316 845 q 326 778 316 795 q 354 750 337 760 q 390 739 372 739 q 442 761 421 739 q 464 814 464 784 q 443 866 464 845 q 390 888 422 888 m 534 356 l 434 355 q 256 319 315 353 q 197 210 197 285 q 236 119 197 153 q 341 86 276 86 q 431 108 386 86 q 505 165 476 130 q 534 237 534 200 l 534 356 z "},"ã":{"ha":763,"x_min":60,"x_max":672,"o":"m 297 -14 q 173 11 227 -14 q 90 84 119 36 q 60 197 60 131 q 144 375 60 316 q 413 438 228 433 l 534 440 l 534 494 q 492 594 534 559 q 378 630 450 630 q 271 599 317 629 q 212 513 225 569 l 88 513 q 130 627 92 578 q 233 704 167 676 q 385 732 299 732 q 599 671 526 732 q 672 502 672 610 l 672 0 l 551 0 l 540 128 q 440 18 501 50 q 297 -14 380 -14 m 341 86 q 431 108 386 86 q 505 165 476 130 q 534 237 534 200 l 534 356 l 434 355 q 256 319 315 353 q 197 210 197 285 q 236 119 197 153 q 341 86 276 86 m 603 918 q 479 876 547 876 q 431 881 453 876 q 382 896 410 886 q 338 909 357 904 q 299 913 319 913 q 248 903 268 913 q 199 873 227 894 l 174 946 q 228 986 201 972 q 292 1000 255 1000 q 339 995 317 1000 q 392 979 362 990 q 440 965 420 970 q 479 960 460 960 q 531 971 508 960 q 580 1001 553 982 l 603 918 z "},"æ":{"ha":1269,"x_min":60,"x_max":1213,"o":"m 678 330 q 707 212 678 267 q 786 123 736 156 q 894 90 835 90 q 983 105 945 90 q 1049 145 1021 120 q 1106 206 1076 169 l 1198 160 q 878 -14 1094 -14 q 715 26 781 -14 q 600 126 649 65 q 594 129 597 129 q 590 126 592 129 q 513 54 553 84 q 418 5 474 24 q 288 -14 362 -14 q 165 11 217 -14 q 87 81 114 35 q 60 188 60 127 q 148 356 60 293 q 410 430 236 418 l 538 439 l 538 492 q 498 597 538 560 q 382 635 458 635 q 281 607 328 635 q 198 521 233 578 l 78 557 q 199 688 123 644 q 390 732 275 732 q 546 702 486 731 q 634 613 606 672 q 738 702 676 672 q 878 732 801 732 q 1053 684 977 732 q 1171 546 1129 637 q 1213 331 1213 456 l 678 330 m 881 635 q 780 609 826 635 q 707 533 734 583 q 681 417 681 483 l 1072 416 q 1048 523 1072 472 q 981 605 1024 574 q 881 635 938 635 m 432 347 q 262 300 323 338 q 201 197 201 263 q 236 114 201 145 q 332 83 270 83 q 434 102 387 83 q 509 156 481 122 q 538 231 538 190 l 538 354 l 432 347 z "},"ǽ":{"ha":1269,"x_min":60,"x_max":1213,"o":"m 678 330 q 707 212 678 267 q 786 123 736 156 q 894 90 835 90 q 983 105 945 90 q 1049 145 1021 120 q 1106 206 1076 169 l 1198 160 q 878 -14 1094 -14 q 715 26 781 -14 q 600 126 649 65 q 594 129 597 129 q 590 126 592 129 q 513 54 553 84 q 418 5 474 24 q 288 -14 362 -14 q 165 11 217 -14 q 87 81 114 35 q 60 188 60 127 q 148 356 60 293 q 410 430 236 418 l 538 439 l 538 492 q 498 597 538 560 q 382 635 458 635 q 281 607 328 635 q 198 521 233 578 l 78 557 q 199 688 123 644 q 390 732 275 732 q 546 702 486 731 q 634 613 606 672 q 738 702 676 672 q 878 732 801 732 q 1053 684 977 732 q 1171 546 1129 637 q 1213 331 1213 456 l 678 330 m 881 635 q 780 609 826 635 q 707 533 734 583 q 681 417 681 483 l 1072 416 q 1048 523 1072 472 q 981 605 1024 574 q 881 635 938 635 m 432 347 q 262 300 323 338 q 201 197 201 263 q 236 114 201 145 q 332 83 270 83 q 434 102 387 83 q 509 156 481 122 q 538 231 538 190 l 538 354 l 432 347 m 815 914 l 461 813 l 438 881 l 780 1017 l 815 914 z "},"b":{"ha":818,"x_min":103,"x_max":761,"o":"m 461 -14 q 342 9 392 -14 q 265 64 293 32 q 222 128 236 96 l 208 0 l 103 0 l 103 1032 l 244 1032 l 244 594 q 328 690 274 649 q 473 732 383 732 q 632 685 567 732 q 729 554 697 638 q 761 363 761 471 q 727 162 761 247 q 626 32 693 77 q 461 -14 558 -14 m 431 93 q 567 159 517 93 q 616 363 616 226 q 568 558 616 492 q 431 624 521 624 q 289 563 329 624 q 244 428 248 503 l 244 296 q 269 192 246 238 q 334 119 292 146 q 431 93 376 93 z "},"c":{"ha":735,"x_min":57,"x_max":678,"o":"m 389 732 q 528 702 465 732 q 630 616 590 672 q 678 485 669 560 l 555 483 q 496 583 538 547 q 393 619 454 619 q 286 588 332 619 q 216 497 241 556 q 192 358 192 438 q 216 218 192 278 q 287 125 241 158 q 394 92 333 92 q 500 130 457 92 q 556 226 544 168 l 676 226 q 627 97 667 151 q 526 15 588 43 q 389 -14 464 -14 q 215 33 290 -14 q 98 163 140 79 q 57 356 57 247 q 98 551 57 465 q 215 684 140 637 q 389 732 290 732 z "},"ć":{"ha":735,"x_min":57,"x_max":678,"o":"m 389 732 q 528 702 465 732 q 630 616 590 672 q 678 485 669 560 l 555 483 q 496 583 538 547 q 393 619 454 619 q 286 588 332 619 q 216 497 241 556 q 192 358 192 438 q 216 218 192 278 q 287 125 241 158 q 394 92 333 92 q 500 130 457 92 q 556 226 544 168 l 676 226 q 627 97 667 151 q 526 15 588 43 q 389 -14 464 -14 q 215 33 290 -14 q 98 163 140 79 q 57 356 57 247 q 98 551 57 465 q 215 684 140 637 q 389 732 290 732 m 576 914 l 223 813 l 200 881 l 542 1017 l 576 914 z "},"č":{"ha":735,"x_min":57,"x_max":678,"o":"m 389 732 q 528 702 465 732 q 630 616 590 672 q 678 485 669 560 l 555 483 q 496 583 538 547 q 393 619 454 619 q 286 588 332 619 q 216 497 241 556 q 192 358 192 438 q 216 218 192 278 q 287 125 241 158 q 394 92 333 92 q 500 130 457 92 q 556 226 544 168 l 676 226 q 627 97 667 151 q 526 15 588 43 q 389 -14 464 -14 q 215 33 290 -14 q 98 163 140 79 q 57 356 57 247 q 98 551 57 465 q 215 684 140 637 q 389 732 290 732 m 611 1005 l 440 840 l 338 840 l 162 1005 l 283 1005 l 388 909 l 483 1005 l 611 1005 z "},"ç":{"ha":735,"x_min":57,"x_max":678,"o":"m 394 92 q 500 130 457 92 q 556 226 544 168 l 676 226 q 633 105 667 157 q 543 24 598 53 q 421 -12 488 -6 l 396 -76 q 493 -109 463 -79 q 524 -180 524 -140 q 503 -238 524 -213 q 447 -275 482 -262 q 370 -287 413 -287 q 233 -252 288 -287 l 256 -196 q 353 -228 301 -228 q 427 -179 427 -228 q 401 -135 427 -149 q 315 -119 374 -120 q 305 -115 305 -119 l 306 -109 l 349 -12 q 195 46 261 -3 q 93 174 129 94 q 57 356 57 254 q 98 551 57 465 q 215 684 140 637 q 389 732 290 732 q 528 702 465 732 q 630 616 590 672 q 678 485 669 560 l 555 483 q 496 583 538 547 q 393 619 454 619 q 286 588 332 619 q 216 497 241 556 q 192 358 192 438 q 216 218 192 278 q 287 125 241 158 q 394 92 333 92 z "},"ĉ":{"ha":735,"x_min":57,"x_max":678,"o":"m 389 732 q 528 702 465 732 q 630 616 590 672 q 678 485 669 560 l 555 483 q 496 583 538 547 q 393 619 454 619 q 286 588 332 619 q 216 497 241 556 q 192 358 192 438 q 216 218 192 278 q 287 125 241 158 q 394 92 333 92 q 500 130 457 92 q 556 226 544 168 l 676 226 q 627 97 667 151 q 526 15 588 43 q 389 -14 464 -14 q 215 33 290 -14 q 98 163 140 79 q 57 356 57 247 q 98 551 57 465 q 215 684 140 637 q 389 732 290 732 m 388 941 l 283 845 l 163 845 l 338 1010 l 440 1010 l 611 845 l 483 845 l 388 941 z "},"ċ":{"ha":735,"x_min":57,"x_max":678,"o":"m 389 732 q 528 702 465 732 q 630 616 590 672 q 678 485 669 560 l 555 483 q 496 583 538 547 q 393 619 454 619 q 286 588 332 619 q 216 497 241 556 q 192 358 192 438 q 216 218 192 278 q 287 125 241 158 q 394 92 333 92 q 500 130 457 92 q 556 226 544 168 l 676 226 q 627 97 667 151 q 526 15 588 43 q 389 -14 464 -14 q 215 33 290 -14 q 98 163 140 79 q 57 356 57 247 q 98 551 57 465 q 215 684 140 637 q 389 732 290 732 m 313 975 l 462 975 l 462 834 l 313 834 l 313 975 z "},"d":{"ha":819,"x_min":57,"x_max":716,"o":"m 357 -14 q 192 32 260 -14 q 91 162 125 77 q 57 363 57 247 q 89 554 57 471 q 186 685 121 638 q 345 732 251 732 q 452 713 405 732 q 529 667 499 694 q 574 611 559 639 l 574 1032 l 716 1032 l 716 0 l 610 0 l 594 147 q 519 35 574 84 q 357 -14 464 -14 m 384 93 q 482 118 439 93 q 549 186 525 143 q 574 282 574 230 l 574 440 q 553 520 572 478 q 493 593 535 563 q 385 624 451 624 q 246 558 295 624 q 197 363 197 492 q 247 160 197 226 q 384 93 297 93 z "},"ð":{"ha":811,"x_min":57,"x_max":754,"o":"m 754 360 q 711 165 754 249 q 589 33 669 80 q 403 -14 510 -14 q 223 32 302 -14 q 101 159 144 78 q 57 342 57 240 q 101 528 57 446 q 223 658 145 611 q 398 704 301 704 q 477 691 442 704 q 538 652 513 677 q 469 756 510 708 q 366 846 427 803 l 164 732 l 129 788 l 305 884 q 152 953 238 921 l 238 1019 q 413 945 333 989 l 551 1022 l 581 965 l 475 906 q 685 669 617 808 q 754 360 754 531 m 407 88 q 513 120 467 88 q 584 211 559 152 q 610 346 610 269 q 584 481 610 422 q 512 573 558 540 q 406 606 466 606 q 300 573 347 606 q 227 481 253 540 q 201 346 201 422 q 227 211 201 270 q 300 120 253 153 q 407 88 347 88 z "},"ď":{"ha":983,"x_min":57,"x_max":924,"o":"m 357 -14 q 192 32 260 -14 q 91 162 125 77 q 57 363 57 247 q 89 554 57 471 q 186 685 121 638 q 345 732 251 732 q 452 713 405 732 q 529 667 499 694 q 574 611 559 639 l 574 1032 l 716 1032 l 716 0 l 610 0 l 594 147 q 519 35 574 84 q 357 -14 464 -14 m 384 93 q 482 118 439 93 q 549 186 525 143 q 574 282 574 230 l 574 440 q 553 520 572 478 q 493 593 535 563 q 385 624 451 624 q 246 558 295 624 q 197 363 197 492 q 247 160 197 226 q 384 93 297 93 m 851 859 l 812 867 l 812 1005 l 924 1005 l 924 860 l 868 729 l 799 729 l 851 859 z "},"đ":{"ha":885,"x_min":57,"x_max":821,"o":"m 821 823 l 716 823 l 716 0 l 610 0 l 594 147 q 519 35 574 84 q 357 -14 464 -14 q 192 32 260 -14 q 91 162 125 77 q 57 363 57 247 q 89 554 57 471 q 186 685 121 638 q 345 732 251 732 q 452 713 405 732 q 529 667 499 694 q 574 611 559 639 l 574 823 l 385 823 l 385 910 l 574 910 l 574 1032 l 716 1032 l 716 910 l 821 910 l 821 823 m 574 440 q 553 520 572 478 q 493 593 535 563 q 385 624 451 624 q 246 558 295 624 q 197 363 197 492 q 247 160 197 226 q 384 93 297 93 q 482 118 439 93 q 549 186 525 143 q 574 282 574 230 l 574 440 z "},"ḍ":{"ha":819,"x_min":57,"x_max":716,"o":"m 357 -14 q 192 32 260 -14 q 91 162 125 77 q 57 363 57 247 q 89 554 57 471 q 186 685 121 638 q 345 732 251 732 q 452 713 405 732 q 529 667 499 694 q 574 611 559 639 l 574 1032 l 716 1032 l 716 0 l 610 0 l 594 147 q 519 35 574 84 q 357 -14 464 -14 m 384 93 q 482 118 439 93 q 549 186 525 143 q 574 282 574 230 l 574 440 q 553 520 572 478 q 493 593 535 563 q 385 624 451 624 q 246 558 295 624 q 197 363 197 492 q 247 160 197 226 q 384 93 297 93 z "},"e":{"ha":763,"x_min":57,"x_max":705,"o":"m 199 325 q 221 206 199 258 q 287 125 243 154 q 394 95 331 95 q 569 213 528 95 l 701 213 q 640 89 685 140 q 533 12 596 38 q 398 -14 469 -14 q 219 30 297 -14 q 100 157 142 74 q 57 351 57 240 q 96 550 57 464 q 210 684 135 636 q 388 732 285 732 q 560 688 489 732 q 668 564 631 644 q 705 374 705 483 l 705 325 l 199 325 m 570 419 q 550 525 570 478 q 488 599 529 572 q 388 626 447 626 q 284 596 327 626 q 220 519 242 567 q 199 419 199 472 l 570 419 z "},"é":{"ha":763,"x_min":57,"x_max":705,"o":"m 199 325 q 221 206 199 258 q 287 125 243 154 q 394 95 331 95 q 569 213 528 95 l 701 213 q 640 89 685 140 q 533 12 596 38 q 398 -14 469 -14 q 219 30 297 -14 q 100 157 142 74 q 57 351 57 240 q 96 550 57 464 q 210 684 135 636 q 388 732 285 732 q 560 688 489 732 q 668 564 631 644 q 705 374 705 483 l 705 325 l 199 325 m 570 419 q 550 525 570 478 q 488 599 529 572 q 388 626 447 626 q 284 596 327 626 q 220 519 242 567 q 199 419 199 472 l 570 419 m 577 914 l 224 813 l 201 881 l 542 1017 l 577 914 z "},"ĕ":{"ha":763,"x_min":57,"x_max":705,"o":"m 199 325 q 221 206 199 258 q 287 125 243 154 q 394 95 331 95 q 569 213 528 95 l 701 213 q 640 89 685 140 q 533 12 596 38 q 398 -14 469 -14 q 219 30 297 -14 q 100 157 142 74 q 57 351 57 240 q 96 550 57 464 q 210 684 135 636 q 388 732 285 732 q 560 688 489 732 q 668 564 631 644 q 705 374 705 483 l 705 325 l 199 325 m 570 419 q 550 525 570 478 q 488 599 529 572 q 388 626 447 626 q 284 596 327 626 q 220 519 242 567 q 199 419 199 472 l 570 419 m 610 1003 q 567 925 597 960 q 492 869 537 890 q 391 848 447 848 q 252 891 308 848 q 177 1003 195 933 l 275 1003 q 320 951 294 972 q 391 930 347 930 q 509 1003 467 930 l 610 1003 z "},"ě":{"ha":771,"x_min":57,"x_max":705,"o":"m 199 325 q 221 206 199 258 q 287 125 243 154 q 394 95 331 95 q 569 213 528 95 l 701 213 q 640 89 685 140 q 533 12 596 38 q 398 -14 469 -14 q 219 30 297 -14 q 100 157 142 74 q 57 351 57 240 q 96 550 57 464 q 210 684 135 636 q 388 732 285 732 q 560 688 489 732 q 668 564 631 644 q 705 374 705 483 l 705 325 l 199 325 m 570 419 q 550 525 570 478 q 488 599 529 572 q 388 626 447 626 q 284 596 327 626 q 220 519 242 567 q 199 419 199 472 l 570 419 m 615 1005 l 443 840 l 342 840 l 165 1005 l 287 1005 l 391 909 l 487 1005 l 615 1005 z "},"ê":{"ha":763,"x_min":57,"x_max":705,"o":"m 199 325 q 221 206 199 258 q 287 125 243 154 q 394 95 331 95 q 569 213 528 95 l 701 213 q 640 89 685 140 q 533 12 596 38 q 398 -14 469 -14 q 219 30 297 -14 q 100 157 142 74 q 57 351 57 240 q 96 550 57 464 q 210 684 135 636 q 388 732 285 732 q 560 688 489 732 q 668 564 631 644 q 705 374 705 483 l 705 325 l 199 325 m 570 419 q 550 525 570 478 q 488 599 529 572 q 388 626 447 626 q 284 596 327 626 q 220 519 242 567 q 199 419 199 472 l 570 419 m 388 941 l 284 845 l 163 845 l 339 1010 l 440 1010 l 612 845 l 484 845 l 388 941 z "},"ế":{"ha":763,"x_min":57,"x_max":705,"o":"m 199 325 q 221 206 199 258 q 287 125 243 154 q 394 95 331 95 q 569 213 528 95 l 701 213 q 640 89 685 140 q 533 12 596 38 q 398 -14 469 -14 q 219 30 297 -14 q 100 157 142 74 q 57 351 57 240 q 96 550 57 464 q 210 684 135 636 q 388 732 285 732 q 560 688 489 732 q 668 564 631 644 q 705 374 705 483 l 705 325 l 199 325 m 570 419 q 550 525 570 478 q 488 599 529 572 q 388 626 447 626 q 284 596 327 626 q 220 519 242 567 q 199 419 199 472 l 570 419 z "},"ệ":{"ha":763,"x_min":57,"x_max":705,"o":"m 199 325 q 221 206 199 258 q 287 125 243 154 q 394 95 331 95 q 569 213 528 95 l 701 213 q 640 89 685 140 q 533 12 596 38 q 398 -14 469 -14 q 219 30 297 -14 q 100 157 142 74 q 57 351 57 240 q 96 550 57 464 q 210 684 135 636 q 388 732 285 732 q 560 688 489 732 q 668 564 631 644 q 705 374 705 483 l 705 325 l 199 325 m 570 419 q 550 525 570 478 q 488 599 529 572 q 388 626 447 626 q 284 596 327 626 q 220 519 242 567 q 199 419 199 472 l 570 419 m 388 941 l 284 845 l 163 845 l 339 1010 l 440 1010 l 612 845 l 484 845 l 388 941 z "},"ề":{"ha":763,"x_min":57,"x_max":705,"o":"m 199 325 q 221 206 199 258 q 287 125 243 154 q 394 95 331 95 q 569 213 528 95 l 701 213 q 640 89 685 140 q 533 12 596 38 q 398 -14 469 -14 q 219 30 297 -14 q 100 157 142 74 q 57 351 57 240 q 96 550 57 464 q 210 684 135 636 q 388 732 285 732 q 560 688 489 732 q 668 564 631 644 q 705 374 705 483 l 705 325 l 199 325 m 570 419 q 550 525 570 478 q 488 599 529 572 q 388 626 447 626 q 284 596 327 626 q 220 519 242 567 q 199 419 199 472 l 570 419 z "},"ể":{"ha":763,"x_min":57,"x_max":705,"o":"m 199 325 q 221 206 199 258 q 287 125 243 154 q 394 95 331 95 q 569 213 528 95 l 701 213 q 640 89 685 140 q 533 12 596 38 q 398 -14 469 -14 q 219 30 297 -14 q 100 157 142 74 q 57 351 57 240 q 96 550 57 464 q 210 684 135 636 q 388 732 285 732 q 560 688 489 732 q 668 564 631 644 q 705 374 705 483 l 705 325 l 199 325 m 570 419 q 550 525 570 478 q 488 599 529 572 q 388 626 447 626 q 284 596 327 626 q 220 519 242 567 q 199 419 199 472 l 570 419 z "},"ễ":{"ha":763,"x_min":57,"x_max":705,"o":"m 199 325 q 221 206 199 258 q 287 125 243 154 q 394 95 331 95 q 569 213 528 95 l 701 213 q 640 89 685 140 q 533 12 596 38 q 398 -14 469 -14 q 219 30 297 -14 q 100 157 142 74 q 57 351 57 240 q 96 550 57 464 q 210 684 135 636 q 388 732 285 732 q 560 688 489 732 q 668 564 631 644 q 705 374 705 483 l 705 325 l 199 325 m 570 419 q 550 525 570 478 q 488 599 529 572 q 388 626 447 626 q 284 596 327 626 q 220 519 242 567 q 199 419 199 472 l 570 419 z "},"ȅ":{"ha":763,"x_min":57,"x_max":705,"o":"m 199 325 q 221 206 199 258 q 287 125 243 154 q 394 95 331 95 q 569 213 528 95 l 701 213 q 640 89 685 140 q 533 12 596 38 q 398 -14 469 -14 q 219 30 297 -14 q 100 157 142 74 q 57 351 57 240 q 96 550 57 464 q 210 684 135 636 q 388 732 285 732 q 560 688 489 732 q 668 564 631 644 q 705 374 705 483 l 705 325 l 199 325 m 570 419 q 550 525 570 478 q 488 599 529 572 q 388 626 447 626 q 284 596 327 626 q 220 519 242 567 q 199 419 199 472 l 570 419 m 349 830 l 302 774 l 87 937 l 157 1020 l 349 830 m 581 830 l 535 774 l 320 937 l 390 1020 l 581 830 z "},"ë":{"ha":763,"x_min":57,"x_max":705,"o":"m 199 325 q 221 206 199 258 q 287 125 243 154 q 394 95 331 95 q 569 213 528 95 l 701 213 q 640 89 685 140 q 533 12 596 38 q 398 -14 469 -14 q 219 30 297 -14 q 100 157 142 74 q 57 351 57 240 q 96 550 57 464 q 210 684 135 636 q 388 732 285 732 q 560 688 489 732 q 668 564 631 644 q 705 374 705 483 l 705 325 l 199 325 m 570 419 q 550 525 570 478 q 488 599 529 572 q 388 626 447 626 q 284 596 327 626 q 220 519 242 567 q 199 419 199 472 l 570 419 m 188 1001 l 338 1001 l 338 859 l 188 859 l 188 1001 m 436 1001 l 585 1001 l 585 859 l 436 859 l 436 1001 z "},"ė":{"ha":763,"x_min":57,"x_max":705,"o":"m 199 325 q 221 206 199 258 q 287 125 243 154 q 394 95 331 95 q 569 213 528 95 l 701 213 q 640 89 685 140 q 533 12 596 38 q 398 -14 469 -14 q 219 30 297 -14 q 100 157 142 74 q 57 351 57 240 q 96 550 57 464 q 210 684 135 636 q 388 732 285 732 q 560 688 489 732 q 668 564 631 644 q 705 374 705 483 l 705 325 l 199 325 m 570 419 q 550 525 570 478 q 488 599 529 572 q 388 626 447 626 q 284 596 327 626 q 220 519 242 567 q 199 419 199 472 l 570 419 m 314 975 l 463 975 l 463 834 l 314 834 l 314 975 z "},"ẹ":{"ha":763,"x_min":57,"x_max":705,"o":"m 199 325 q 221 206 199 258 q 287 125 243 154 q 394 95 331 95 q 569 213 528 95 l 701 213 q 640 89 685 140 q 533 12 596 38 q 398 -14 469 -14 q 219 30 297 -14 q 100 157 142 74 q 57 351 57 240 q 96 550 57 464 q 210 684 135 636 q 388 732 285 732 q 560 688 489 732 q 668 564 631 644 q 705 374 705 483 l 705 325 l 199 325 m 570 419 q 550 525 570 478 q 488 599 529 572 q 388 626 447 626 q 284 596 327 626 q 220 519 242 567 q 199 419 199 472 l 570 419 z "},"è":{"ha":763,"x_min":57,"x_max":705,"o":"m 199 325 q 221 206 199 258 q 287 125 243 154 q 394 95 331 95 q 569 213 528 95 l 701 213 q 640 89 685 140 q 533 12 596 38 q 398 -14 469 -14 q 219 30 297 -14 q 100 157 142 74 q 57 351 57 240 q 96 550 57 464 q 210 684 135 636 q 388 732 285 732 q 560 688 489 732 q 668 564 631 644 q 705 374 705 483 l 705 325 l 199 325 m 570 419 q 550 525 570 478 q 488 599 529 572 q 388 626 447 626 q 284 596 327 626 q 220 519 242 567 q 199 419 199 472 l 570 419 m 562 881 l 539 813 l 185 914 l 220 1017 l 562 881 z "},"ẻ":{"ha":763,"x_min":57,"x_max":705,"o":"m 199 325 q 221 206 199 258 q 287 125 243 154 q 394 95 331 95 q 569 213 528 95 l 701 213 q 640 89 685 140 q 533 12 596 38 q 398 -14 469 -14 q 219 30 297 -14 q 100 157 142 74 q 57 351 57 240 q 96 550 57 464 q 210 684 135 636 q 388 732 285 732 q 560 688 489 732 q 668 564 631 644 q 705 374 705 483 l 705 325 l 199 325 m 570 419 q 550 525 570 478 q 488 599 529 572 q 388 626 447 626 q 284 596 327 626 q 220 519 242 567 q 199 419 199 472 l 570 419 m 333 974 q 388 992 360 992 q 431 970 418 992 q 439 944 439 959 q 427 909 439 926 q 393 878 415 892 l 433 817 q 497 875 475 842 q 519 942 519 907 q 496 1013 519 978 q 451 1052 478 1038 q 392 1067 424 1067 q 293 1035 342 1067 l 333 974 z "},"ȇ":{"ha":763,"x_min":57,"x_max":705,"o":"m 199 325 q 221 206 199 258 q 287 125 243 154 q 394 95 331 95 q 569 213 528 95 l 701 213 q 640 89 685 140 q 533 12 596 38 q 398 -14 469 -14 q 219 30 297 -14 q 100 157 142 74 q 57 351 57 240 q 96 550 57 464 q 210 684 135 636 q 388 732 285 732 q 560 688 489 732 q 668 564 631 644 q 705 374 705 483 l 705 325 l 199 325 m 570 419 q 550 525 570 478 q 488 599 529 572 q 388 626 447 626 q 284 596 327 626 q 220 519 242 567 q 199 419 199 472 l 570 419 m 504 903 q 386 977 462 977 q 315 956 342 977 q 270 903 289 935 l 172 903 q 247 1016 190 973 q 386 1059 304 1059 q 486 1038 441 1059 q 562 982 532 1017 q 605 903 592 947 l 504 903 z "},"ē":{"ha":763,"x_min":57,"x_max":705,"o":"m 199 325 q 221 206 199 258 q 287 125 243 154 q 394 95 331 95 q 569 213 528 95 l 701 213 q 640 89 685 140 q 533 12 596 38 q 398 -14 469 -14 q 219 30 297 -14 q 100 157 142 74 q 57 351 57 240 q 96 550 57 464 q 210 684 135 636 q 388 732 285 732 q 560 688 489 732 q 668 564 631 644 q 705 374 705 483 l 705 325 l 199 325 m 570 419 q 550 525 570 478 q 488 599 529 572 q 388 626 447 626 q 284 596 327 626 q 220 519 242 567 q 199 419 199 472 l 570 419 m 602 891 l 174 891 l 174 988 l 602 988 l 602 891 z "},"ę":{"ha":763,"x_min":57,"x_max":705,"o":"m 199 325 q 221 206 199 258 q 287 125 243 154 q 394 95 331 95 q 569 213 528 95 l 701 213 q 646 95 686 144 q 548 19 606 47 l 554 18 q 453 -36 483 -11 q 423 -94 423 -61 q 438 -131 423 -119 q 484 -143 452 -143 q 540 -135 514 -143 q 584 -117 566 -128 l 584 -189 q 528 -209 565 -201 q 451 -218 491 -218 q 348 -189 384 -218 q 312 -108 312 -160 q 324 -56 312 -79 q 367 -12 337 -33 q 204 40 274 -6 q 95 165 134 85 q 57 351 57 245 q 96 550 57 464 q 210 684 135 636 q 388 732 285 732 q 560 688 489 732 q 668 564 631 644 q 705 374 705 483 l 705 325 l 199 325 m 388 626 q 284 596 327 626 q 220 519 242 567 q 199 419 199 472 l 570 419 q 550 525 570 478 q 488 599 529 572 q 388 626 447 626 z "},"ẽ":{"ha":763,"x_min":57,"x_max":705,"o":"m 199 325 q 221 206 199 258 q 287 125 243 154 q 394 95 331 95 q 569 213 528 95 l 701 213 q 640 89 685 140 q 533 12 596 38 q 398 -14 469 -14 q 219 30 297 -14 q 100 157 142 74 q 57 351 57 240 q 96 550 57 464 q 210 684 135 636 q 388 732 285 732 q 560 688 489 732 q 668 564 631 644 q 705 374 705 483 l 705 325 l 199 325 m 570 419 q 550 525 570 478 q 488 599 529 572 q 388 626 447 626 q 284 596 327 626 q 220 519 242 567 q 199 419 199 472 l 570 419 m 606 918 q 482 876 550 876 q 434 881 456 876 q 385 896 413 886 q 341 909 360 904 q 301 913 322 913 q 250 903 271 913 q 201 873 230 894 l 176 946 q 231 986 204 972 q 295 1000 258 1000 q 342 995 319 1000 q 395 979 365 990 q 443 965 423 970 q 482 960 463 960 q 534 971 511 960 q 583 1001 556 982 l 606 918 z "},"ə":{"ha":763,"x_min":58,"x_max":706,"o":"m 563 393 q 542 512 564 460 q 475 593 519 564 q 368 623 431 623 q 194 505 234 623 l 62 505 q 122 629 78 578 q 230 706 167 681 q 365 732 293 732 q 543 688 466 732 q 663 561 620 644 q 706 367 706 478 q 666 168 706 254 q 552 34 627 82 q 374 -14 477 -14 q 202 30 274 -14 q 94 154 131 74 q 58 344 58 235 l 58 393 l 563 393 m 193 299 q 213 193 193 240 q 274 119 233 146 q 375 92 315 92 q 478 122 435 92 q 542 199 521 151 q 563 299 564 247 l 193 299 z "},"f":{"ha":546,"x_min":42,"x_max":509,"o":"m 502 615 l 332 615 l 332 0 l 190 0 l 190 615 l 42 615 l 42 718 l 190 718 l 190 828 q 235 959 190 914 q 368 1004 280 1004 l 508 1004 l 509 905 l 404 905 q 346 883 363 905 q 330 813 330 861 l 330 718 l 502 718 l 502 615 z "},"g":{"ha":854,"x_min":40,"x_max":807,"o":"m 404 -237 q 205 -215 287 -237 q 82 -150 124 -192 q 40 -51 40 -108 q 61 17 40 -12 q 106 63 81 46 q 161 94 131 79 q 169 98 165 96 q 176 101 173 99 q 150 116 172 104 q 114 149 128 128 q 100 195 100 169 q 134 259 100 231 q 231 301 167 288 q 127 387 160 337 q 94 502 94 437 q 135 624 94 573 q 247 702 175 675 q 412 729 319 729 q 527 714 479 729 q 619 668 575 699 l 807 745 l 806 619 l 681 597 q 697 549 690 577 q 703 503 703 521 q 669 388 703 440 q 567 305 635 336 q 399 274 498 274 q 351 276 370 274 q 260 261 288 274 q 233 231 233 249 q 246 211 233 218 q 288 199 259 203 q 368 192 316 195 l 410 190 l 522 183 q 703 123 644 174 q 763 -14 763 72 q 721 -133 763 -83 q 599 -210 679 -183 q 404 -237 518 -237 m 403 362 q 526 398 484 362 q 568 500 568 433 q 523 607 568 569 q 403 645 478 645 q 281 606 326 645 q 237 500 237 567 q 281 398 237 434 q 403 362 324 362 m 428 -149 q 577 -122 530 -149 q 625 -37 625 -94 q 594 32 625 7 q 498 61 564 57 l 303 74 q 247 61 276 75 q 199 21 218 47 q 181 -35 181 -5 q 428 -149 181 -149 z "},"ğ":{"ha":854,"x_min":40,"x_max":807,"o":"m 404 -237 q 205 -215 287 -237 q 82 -150 124 -192 q 40 -51 40 -108 q 61 17 40 -12 q 106 63 81 46 q 161 94 131 79 q 169 98 165 96 q 176 101 173 99 q 150 116 172 104 q 114 149 128 128 q 100 195 100 169 q 134 259 100 231 q 231 301 167 288 q 127 387 160 337 q 94 502 94 437 q 135 624 94 573 q 247 702 175 675 q 412 729 319 729 q 527 714 479 729 q 619 668 575 699 l 807 745 l 806 619 l 681 597 q 697 549 690 577 q 703 503 703 521 q 669 388 703 440 q 567 305 635 336 q 399 274 498 274 q 351 276 370 274 q 260 261 288 274 q 233 231 233 249 q 246 211 233 218 q 288 199 259 203 q 368 192 316 195 l 410 190 l 522 183 q 703 123 644 174 q 763 -14 763 72 q 721 -133 763 -83 q 599 -210 679 -183 q 404 -237 518 -237 m 403 362 q 526 398 484 362 q 568 500 568 433 q 523 607 568 569 q 403 645 478 645 q 281 606 326 645 q 237 500 237 567 q 281 398 237 434 q 403 362 324 362 m 428 -149 q 577 -122 530 -149 q 625 -37 625 -94 q 594 32 625 7 q 498 61 564 57 l 303 74 q 247 61 276 75 q 199 21 218 47 q 181 -35 181 -5 q 428 -149 181 -149 m 631 1003 q 589 925 619 960 q 513 869 558 890 q 413 848 468 848 q 273 891 330 848 q 199 1003 217 933 l 297 1003 q 342 951 315 972 q 413 930 368 930 q 531 1003 488 930 l 631 1003 z "},"ĝ":{"ha":854,"x_min":40,"x_max":807,"o":"m 404 -237 q 205 -215 287 -237 q 82 -150 124 -192 q 40 -51 40 -108 q 61 17 40 -12 q 106 63 81 46 q 161 94 131 79 q 169 98 165 96 q 176 101 173 99 q 150 116 172 104 q 114 149 128 128 q 100 195 100 169 q 134 259 100 231 q 231 301 167 288 q 127 387 160 337 q 94 502 94 437 q 135 624 94 573 q 247 702 175 675 q 412 729 319 729 q 527 714 479 729 q 619 668 575 699 l 807 745 l 806 619 l 681 597 q 697 549 690 577 q 703 503 703 521 q 669 388 703 440 q 567 305 635 336 q 399 274 498 274 q 351 276 370 274 q 260 261 288 274 q 233 231 233 249 q 246 211 233 218 q 288 199 259 203 q 368 192 316 195 l 410 190 l 522 183 q 703 123 644 174 q 763 -14 763 72 q 721 -133 763 -83 q 599 -210 679 -183 q 404 -237 518 -237 m 403 362 q 526 398 484 362 q 568 500 568 433 q 523 607 568 569 q 403 645 478 645 q 281 606 326 645 q 237 500 237 567 q 281 398 237 434 q 403 362 324 362 m 428 -149 q 577 -122 530 -149 q 625 -37 625 -94 q 594 32 625 7 q 498 61 564 57 l 303 74 q 247 61 276 75 q 199 21 218 47 q 181 -35 181 -5 q 428 -149 181 -149 m 409 941 l 305 845 l 184 845 l 360 1010 l 461 1010 l 633 845 l 505 845 l 409 941 z "},"ģ":{"ha":854,"x_min":40,"x_max":807,"o":"m 325 969 l 391 1069 l 454 1069 l 389 960 l 442 960 l 442 838 l 325 838 l 325 969 m 404 -237 q 205 -215 287 -237 q 82 -150 124 -192 q 40 -51 40 -108 q 61 17 40 -12 q 106 63 81 46 q 161 94 131 79 q 169 98 165 96 q 176 101 173 99 q 150 116 172 104 q 114 149 128 128 q 100 195 100 169 q 134 259 100 231 q 231 301 167 288 q 127 387 160 337 q 94 502 94 437 q 135 624 94 573 q 247 702 175 675 q 412 729 319 729 q 527 714 479 729 q 619 668 575 699 l 807 745 l 806 619 l 681 597 q 697 549 690 577 q 703 503 703 521 q 669 388 703 440 q 567 305 635 336 q 399 274 498 274 q 351 276 370 274 q 260 261 288 274 q 233 231 233 249 q 246 211 233 218 q 288 199 259 203 q 368 192 316 195 l 410 190 l 522 183 q 703 123 644 174 q 763 -14 763 72 q 721 -133 763 -83 q 599 -210 679 -183 q 404 -237 518 -237 m 403 362 q 526 398 484 362 q 568 500 568 433 q 523 607 568 569 q 403 645 478 645 q 281 606 326 645 q 237 500 237 567 q 281 398 237 434 q 403 362 324 362 m 428 -149 q 577 -122 530 -149 q 625 -37 625 -94 q 594 32 625 7 q 498 61 564 57 l 303 74 q 247 61 276 75 q 199 21 218 47 q 181 -35 181 -5 q 428 -149 181 -149 z "},"ġ":{"ha":854,"x_min":40,"x_max":807,"o":"m 404 -237 q 205 -215 287 -237 q 82 -150 124 -192 q 40 -51 40 -108 q 61 17 40 -12 q 106 63 81 46 q 161 94 131 79 q 169 98 165 96 q 176 101 173 99 q 150 116 172 104 q 114 149 128 128 q 100 195 100 169 q 134 259 100 231 q 231 301 167 288 q 127 387 160 337 q 94 502 94 437 q 135 624 94 573 q 247 702 175 675 q 412 729 319 729 q 527 714 479 729 q 619 668 575 699 l 807 745 l 806 619 l 681 597 q 697 549 690 577 q 703 503 703 521 q 669 388 703 440 q 567 305 635 336 q 399 274 498 274 q 351 276 370 274 q 260 261 288 274 q 233 231 233 249 q 246 211 233 218 q 288 199 259 203 q 368 192 316 195 l 410 190 l 522 183 q 703 123 644 174 q 763 -14 763 72 q 721 -133 763 -83 q 599 -210 679 -183 q 404 -237 518 -237 m 403 362 q 526 398 484 362 q 568 500 568 433 q 523 607 568 569 q 403 645 478 645 q 281 606 326 645 q 237 500 237 567 q 281 398 237 434 q 403 362 324 362 m 428 -149 q 577 -122 530 -149 q 625 -37 625 -94 q 594 32 625 7 q 498 61 564 57 l 303 74 q 247 61 276 75 q 199 21 218 47 q 181 -35 181 -5 q 428 -149 181 -149 m 335 975 l 484 975 l 484 834 l 335 834 l 335 975 z "},"h":{"ha":805,"x_min":103,"x_max":714,"o":"m 103 1032 l 242 1032 l 242 619 q 327 696 272 666 q 463 726 383 726 q 590 699 533 726 q 681 623 647 672 q 714 511 714 574 l 714 0 l 572 0 l 572 485 q 530 578 572 544 q 420 612 488 612 q 333 597 373 612 q 268 551 292 581 q 244 478 244 521 l 244 0 l 103 0 l 103 1032 z "},"ħ":{"ha":826,"x_min":28,"x_max":734,"o":"m 483 726 q 610 699 553 726 q 701 623 667 672 q 734 511 734 574 l 734 0 l 592 0 l 592 485 q 550 578 592 544 q 440 612 508 612 q 353 597 393 612 q 289 551 313 581 q 265 478 265 521 l 265 0 l 123 0 l 123 823 l 28 823 l 28 910 l 123 910 l 123 1032 l 263 1032 l 263 910 l 464 910 l 464 823 l 263 823 l 263 619 q 348 696 292 666 q 483 726 403 726 z "},"ĥ":{"ha":805,"x_min":103,"x_max":735,"o":"m 103 1032 l 242 1032 l 242 619 q 327 696 272 666 q 463 726 383 726 q 590 699 533 726 q 681 623 647 672 q 714 511 714 574 l 714 0 l 572 0 l 572 485 q 530 578 572 544 q 420 612 488 612 q 333 597 373 612 q 268 551 292 581 q 244 478 244 521 l 244 0 l 103 0 l 103 1032 m 512 941 l 408 845 l 287 845 l 463 1010 l 564 1010 l 735 845 l 608 845 l 512 941 z "},"ḥ":{"ha":805,"x_min":103,"x_max":714,"o":"m 103 1032 l 242 1032 l 242 619 q 327 696 272 666 q 463 726 383 726 q 590 699 533 726 q 681 623 647 672 q 714 511 714 574 l 714 0 l 572 0 l 572 485 q 530 578 572 544 q 420 612 488 612 q 333 597 373 612 q 268 551 292 581 q 244 478 244 521 l 244 0 l 103 0 l 103 1032 z "},"i":{"ha":368,"x_min":110,"x_max":260,"o":"m 260 860 l 110 860 l 110 1002 l 260 1002 l 260 860 m 257 0 l 115 0 l 115 718 l 257 718 l 257 0 z "},"ı":{"ha":360,"x_min":110,"x_max":253,"o":"m 253 0 l 110 0 l 110 718 l 253 718 l 253 0 z "},"í":{"ha":360,"x_min":-4,"x_max":372,"o":"m 253 0 l 110 0 l 110 718 l 253 718 l 253 0 m 372 914 l 19 813 l -4 881 l 338 1017 l 372 914 z "},"ĭ":{"ha":360,"x_min":-28,"x_max":404,"o":"m 253 0 l 110 0 l 110 718 l 253 718 l 253 0 m 404 1003 q 361 925 392 960 q 286 869 331 890 q 185 848 241 848 q 46 891 103 848 q -28 1003 -10 933 l 69 1003 q 115 951 88 972 q 185 930 141 930 q 303 1003 261 930 l 404 1003 z "},"î":{"ha":360,"x_min":-42,"x_max":406,"o":"m 253 0 l 110 0 l 110 718 l 253 718 l 253 0 m 183 941 l 78 845 l -42 845 l 133 1010 l 235 1010 l 406 845 l 278 845 l 183 941 z "},"ȉ":{"ha":360,"x_min":-118,"x_max":376,"o":"m 253 0 l 110 0 l 110 718 l 253 718 l 253 0 m 144 830 l 97 774 l -118 937 l -48 1020 l 144 830 m 376 830 l 331 774 l 115 937 l 185 1020 l 376 830 z "},"ï":{"ha":360,"x_min":-17,"x_max":380,"o":"m 253 0 l 110 0 l 110 718 l 253 718 l 253 0 m -17 1001 l 132 1001 l 132 859 l -17 859 l -17 1001 m 231 1001 l 380 1001 l 380 859 l 231 859 l 231 1001 z "},"ị":{"ha":369,"x_min":111,"x_max":261,"o":"m 261 860 l 111 860 l 111 1002 l 261 1002 l 261 860 m 258 0 l 115 0 l 115 718 l 258 718 l 258 0 z "},"ì":{"ha":360,"x_min":-20,"x_max":356,"o":"m 253 0 l 110 0 l 110 718 l 253 718 l 253 0 m 356 881 l 333 813 l -20 914 l 15 1017 l 356 881 z "},"ỉ":{"ha":360,"x_min":88,"x_max":314,"o":"m 253 0 l 110 0 l 110 718 l 253 718 l 253 0 m 127 974 q 182 992 155 992 q 226 970 213 992 q 233 944 233 959 q 221 909 233 926 q 188 878 209 892 l 227 817 q 292 875 269 842 q 314 942 314 907 q 290 1013 314 978 q 246 1052 273 1038 q 186 1067 219 1067 q 88 1035 136 1067 l 127 974 z "},"ȋ":{"ha":360,"x_min":-33,"x_max":399,"o":"m 253 0 l 110 0 l 110 718 l 253 718 l 253 0 m 299 903 q 181 977 256 977 q 110 956 136 977 q 65 903 83 935 l -33 903 q 42 1016 -15 973 q 181 1059 99 1059 q 281 1038 235 1059 q 357 982 326 1017 q 399 903 387 947 l 299 903 z "},"ī":{"ha":360,"x_min":-31,"x_max":397,"o":"m 253 0 l 110 0 l 110 718 l 253 718 l 253 0 m 397 891 l -31 891 l -31 988 l 397 988 l 397 891 z "},"į":{"ha":360,"x_min":4,"x_max":276,"o":"m 258 834 l 108 834 l 108 975 l 258 975 l 258 834 m 176 -156 q 232 -149 206 -156 q 276 -130 258 -141 l 276 -202 q 220 -223 257 -214 q 144 -231 183 -231 q 40 -202 76 -231 q 4 -121 4 -173 q 28 -52 4 -82 q 110 0 51 -23 l 110 718 l 253 718 l 253 0 l 235 0 q 143 -51 170 -27 q 115 -107 115 -76 q 130 -144 115 -132 q 176 -156 144 -156 z "},"ĩ":{"ha":360,"x_min":-29,"x_max":400,"o":"m 253 0 l 110 0 l 110 718 l 253 718 l 253 0 m 400 918 q 276 876 344 876 q 228 881 250 876 q 179 896 207 886 q 135 909 154 904 q 96 913 117 913 q 45 903 65 913 q -4 873 24 894 l -29 946 q 25 986 -1 972 q 90 1000 52 1000 q 136 995 114 1000 q 190 979 159 990 q 237 965 217 970 q 276 960 257 960 q 328 971 306 960 q 377 1001 351 982 l 400 918 z "},"j":{"ha":375,"x_min":-31,"x_max":270,"o":"m 270 860 l 120 860 l 120 1002 l 270 1002 l 270 860 m 266 -26 q 246 -141 266 -97 q 180 -208 226 -186 q 60 -231 135 -231 q 0 -226 22 -231 q -30 -214 -23 -221 l -31 -119 l 38 -115 q 105 -90 85 -111 q 124 -22 124 -69 l 124 718 l 266 718 l 266 -26 z "},"ȷ":{"ha":372,"x_min":-31,"x_max":267,"o":"m 267 -26 q 219 -181 267 -131 q 60 -231 171 -231 q -10 -225 9 -231 q -30 -214 -30 -220 l -31 -119 l 38 -115 q 105 -90 85 -111 q 124 -22 124 -68 l 124 718 l 267 718 l 267 -26 z "},"ĵ":{"ha":372,"x_min":-31,"x_max":418,"o":"m 267 -26 q 219 -181 267 -131 q 60 -231 171 -231 q -10 -225 9 -231 q -30 -214 -30 -220 l -31 -119 l 38 -115 q 105 -90 85 -111 q 124 -22 124 -68 l 124 718 l 267 718 l 267 -26 m 194 941 l 90 845 l -31 845 l 145 1010 l 247 1010 l 418 845 l 290 845 l 194 941 z "},"k":{"ha":785,"x_min":103,"x_max":745,"o":"m 597 0 l 378 351 l 244 213 l 244 0 l 103 0 l 103 1032 l 244 1032 l 244 370 l 569 718 l 728 718 l 469 442 l 745 0 l 597 0 z "},"ķ":{"ha":785,"x_min":103,"x_max":745,"o":"m 597 0 l 378 351 l 244 213 l 244 0 l 103 0 l 103 1032 l 244 1032 l 244 370 l 569 718 l 728 718 l 469 442 l 745 0 l 597 0 z "},"ĸ":{"ha":802,"x_min":103,"x_max":763,"o":"m 597 0 l 396 363 l 244 213 l 244 0 l 103 0 l 103 718 l 244 718 l 244 358 l 586 718 l 739 718 l 492 469 l 763 0 l 597 0 z "},"l":{"ha":414,"x_min":106,"x_max":365,"o":"m 297 -10 q 177 17 219 -10 q 121 86 135 44 q 106 188 106 129 l 106 1032 l 247 1032 l 247 203 q 327 94 247 101 l 365 93 l 365 3 q 297 -10 328 -10 z "},"ĺ":{"ha":414,"x_min":-13,"x_max":365,"o":"m 297 -10 q 177 17 219 -10 q 121 86 135 44 q 106 188 106 129 l 106 1032 l 247 1032 l 247 203 q 327 94 247 101 l 365 93 l 365 3 q 297 -10 328 -10 m 363 1256 l 10 1154 l -13 1223 l 328 1359 l 363 1256 z "},"ľ":{"ha":414,"x_min":106,"x_max":440,"o":"m 297 -10 q 177 17 219 -10 q 121 86 135 44 q 106 188 106 129 l 106 1032 l 247 1032 l 247 203 q 327 94 247 101 l 365 93 l 365 3 q 297 -10 328 -10 m 368 882 l 328 890 l 328 1028 l 440 1028 l 440 883 l 385 752 l 315 752 l 368 882 z "},"ļ":{"ha":414,"x_min":88,"x_max":365,"o":"m 297 -10 q 177 17 219 -10 q 121 86 135 44 q 106 188 106 129 l 106 1032 l 247 1032 l 247 203 q 327 94 247 101 l 365 93 l 365 3 q 297 -10 328 -10 z "},"ŀ":{"ha":502,"x_min":106,"x_max":525,"o":"m 297 -10 q 177 17 219 -10 q 121 86 135 44 q 106 188 106 129 l 106 1032 l 247 1032 l 247 203 q 327 94 247 101 l 365 93 l 365 3 q 297 -10 328 -10 m 525 315 l 357 315 l 357 476 l 525 476 l 525 315 z "},"ł":{"ha":407,"x_min":23,"x_max":414,"o":"m 414 93 l 414 3 q 345 -10 376 -10 q 226 17 267 -10 q 169 86 184 44 q 155 188 155 129 l 155 326 l 23 220 l 23 349 l 155 453 l 155 1032 l 295 1032 l 295 563 l 392 639 l 392 517 l 295 439 l 295 203 q 376 94 295 101 l 414 93 z "},"m":{"ha":1209,"x_min":103,"x_max":1118,"o":"m 103 718 l 240 718 l 240 619 q 458 732 315 732 q 580 703 522 732 q 665 620 638 674 q 758 702 699 672 q 884 732 817 732 q 995 708 942 732 q 1083 629 1048 685 q 1118 482 1118 573 l 1118 0 l 976 0 l 976 469 q 936 588 976 552 q 835 623 897 623 q 724 586 768 623 q 681 472 681 550 l 681 0 l 539 0 l 539 503 q 518 568 539 540 q 465 609 497 595 q 399 623 432 623 q 326 608 361 623 q 267 564 290 594 q 244 490 244 533 l 244 0 l 103 0 l 103 718 z "},"n":{"ha":806,"x_min":103,"x_max":715,"o":"m 103 718 l 241 718 l 241 619 q 463 728 315 728 q 590 698 533 728 q 681 610 647 667 q 715 473 715 552 l 715 0 l 572 0 l 572 458 q 531 572 572 531 q 422 612 490 612 q 333 597 374 612 q 269 552 293 582 q 244 479 244 522 l 244 0 l 103 0 l 103 718 z "},"ń":{"ha":806,"x_min":103,"x_max":715,"o":"m 103 718 l 241 718 l 241 619 q 463 728 315 728 q 590 698 533 728 q 681 610 647 667 q 715 473 715 552 l 715 0 l 572 0 l 572 458 q 531 572 572 531 q 422 612 490 612 q 333 597 374 612 q 269 552 293 582 q 244 479 244 522 l 244 0 l 103 0 l 103 718 m 606 914 l 252 813 l 229 881 l 571 1017 l 606 914 z "},"ň":{"ha":806,"x_min":103,"x_max":715,"o":"m 103 718 l 241 718 l 241 619 q 463 728 315 728 q 590 698 533 728 q 681 610 647 667 q 715 473 715 552 l 715 0 l 572 0 l 572 458 q 531 572 572 531 q 422 612 490 612 q 333 597 374 612 q 269 552 293 582 q 244 479 244 522 l 244 0 l 103 0 l 103 718 m 640 1005 l 468 840 l 367 840 l 190 1005 l 312 1005 l 416 909 l 512 1005 l 640 1005 z "},"ņ":{"ha":806,"x_min":103,"x_max":715,"o":"m 103 718 l 241 718 l 241 619 q 463 728 315 728 q 590 698 533 728 q 681 610 647 667 q 715 473 715 552 l 715 0 l 572 0 l 572 458 q 531 572 572 531 q 422 612 490 612 q 333 597 374 612 q 269 552 293 582 q 244 479 244 522 l 244 0 l 103 0 l 103 718 z "},"ṅ":{"ha":806,"x_min":103,"x_max":715,"o":"m 103 718 l 241 718 l 241 619 q 463 728 315 728 q 590 698 533 728 q 681 610 647 667 q 715 473 715 552 l 715 0 l 572 0 l 572 458 q 531 572 572 531 q 422 612 490 612 q 333 597 374 612 q 269 552 293 582 q 244 479 244 522 l 244 0 l 103 0 l 103 718 m 342 975 l 491 975 l 491 834 l 342 834 l 342 975 z "},"ŋ":{"ha":820,"x_min":103,"x_max":715,"o":"m 511 -231 q 429 -216 429 -231 l 429 -120 l 488 -117 q 553 -93 533 -115 q 573 -23 573 -72 l 573 492 q 541 589 573 554 q 442 624 509 624 q 246 520 345 624 l 246 0 l 103 0 l 104 718 l 242 718 l 242 608 q 374 703 315 674 q 499 732 433 732 q 613 706 565 732 q 688 633 662 680 q 715 524 715 586 l 715 -17 q 661 -174 715 -118 q 511 -231 608 -231 z "},"ñ":{"ha":806,"x_min":103,"x_max":715,"o":"m 103 718 l 241 718 l 241 619 q 463 728 315 728 q 590 698 533 728 q 681 610 647 667 q 715 473 715 552 l 715 0 l 572 0 l 572 458 q 531 572 572 531 q 422 612 490 612 q 333 597 374 612 q 269 552 293 582 q 244 479 244 522 l 244 0 l 103 0 l 103 718 m 634 918 q 510 876 578 876 q 463 881 484 876 q 413 896 441 886 q 369 909 388 904 q 330 913 351 913 q 279 903 299 913 q 230 873 258 894 l 205 946 q 259 986 233 972 q 324 1000 286 1000 q 370 995 348 1000 q 424 979 393 990 q 471 965 451 970 q 510 960 491 960 q 562 971 540 960 q 611 1001 585 982 l 634 918 z "},"o":{"ha":776,"x_min":57,"x_max":720,"o":"m 388 -14 q 211 33 285 -14 q 97 163 136 79 q 57 354 57 246 q 98 551 57 465 q 214 684 138 637 q 390 732 289 732 q 566 684 492 732 q 681 551 641 636 q 720 356 720 465 q 680 164 720 247 q 565 33 640 80 q 388 -14 490 -14 m 390 97 q 532 170 485 97 q 579 360 579 243 q 532 550 579 477 q 390 622 485 622 q 282 588 325 622 q 218 494 239 553 q 197 360 197 435 q 218 226 197 285 q 282 131 239 166 q 390 97 326 97 z "},"ó":{"ha":776,"x_min":57,"x_max":720,"o":"m 388 -14 q 211 33 285 -14 q 97 163 136 79 q 57 354 57 246 q 98 551 57 465 q 214 684 138 637 q 390 732 289 732 q 566 684 492 732 q 681 551 641 636 q 720 356 720 465 q 680 164 720 247 q 565 33 640 80 q 388 -14 490 -14 m 390 97 q 532 170 485 97 q 579 360 579 243 q 532 550 579 477 q 390 622 485 622 q 282 588 325 622 q 218 494 239 553 q 197 360 197 435 q 218 226 197 285 q 282 131 239 166 q 390 97 326 97 m 579 914 l 226 813 l 203 881 l 544 1017 l 579 914 z "},"ŏ":{"ha":776,"x_min":57,"x_max":720,"o":"m 388 -14 q 211 33 285 -14 q 97 163 136 79 q 57 354 57 246 q 98 551 57 465 q 214 684 138 637 q 390 732 289 732 q 566 684 492 732 q 681 551 641 636 q 720 356 720 465 q 680 164 720 247 q 565 33 640 80 q 388 -14 490 -14 m 390 97 q 532 170 485 97 q 579 360 579 243 q 532 550 579 477 q 390 622 485 622 q 282 588 325 622 q 218 494 239 553 q 197 360 197 435 q 218 226 197 285 q 282 131 239 166 q 390 97 326 97 m 612 1003 q 569 925 599 960 q 494 869 539 890 q 393 848 449 848 q 254 891 310 848 q 179 1003 197 933 l 277 1003 q 322 951 296 972 q 393 930 349 930 q 511 1003 469 930 l 612 1003 z "},"ô":{"ha":776,"x_min":57,"x_max":720,"o":"m 388 -14 q 211 33 285 -14 q 97 163 136 79 q 57 354 57 246 q 98 551 57 465 q 214 684 138 637 q 390 732 289 732 q 566 684 492 732 q 681 551 641 636 q 720 356 720 465 q 680 164 720 247 q 565 33 640 80 q 388 -14 490 -14 m 390 97 q 532 170 485 97 q 579 360 579 243 q 532 550 579 477 q 390 622 485 622 q 282 588 325 622 q 218 494 239 553 q 197 360 197 435 q 218 226 197 285 q 282 131 239 166 q 390 97 326 97 m 390 941 l 286 845 l 165 845 l 341 1010 l 442 1010 l 614 845 l 486 845 l 390 941 z "},"ố":{"ha":776,"x_min":57,"x_max":720,"o":"m 388 -14 q 211 33 285 -14 q 97 163 136 79 q 57 354 57 246 q 98 551 57 465 q 214 684 138 637 q 390 732 289 732 q 566 684 492 732 q 681 551 641 636 q 720 356 720 465 q 680 164 720 247 q 565 33 640 80 q 388 -14 490 -14 m 390 97 q 532 170 485 97 q 579 360 579 243 q 532 550 579 477 q 390 622 485 622 q 282 588 325 622 q 218 494 239 553 q 197 360 197 435 q 218 226 197 285 q 282 131 239 166 q 390 97 326 97 z "},"ộ":{"ha":776,"x_min":57,"x_max":720,"o":"m 388 -14 q 211 33 285 -14 q 97 163 136 79 q 57 354 57 246 q 98 551 57 465 q 214 684 138 637 q 390 732 289 732 q 566 684 492 732 q 681 551 641 636 q 720 356 720 465 q 680 164 720 247 q 565 33 640 80 q 388 -14 490 -14 m 390 97 q 532 170 485 97 q 579 360 579 243 q 532 550 579 477 q 390 622 485 622 q 282 588 325 622 q 218 494 239 553 q 197 360 197 435 q 218 226 197 285 q 282 131 239 166 q 390 97 326 97 m 390 941 l 286 845 l 165 845 l 341 1010 l 442 1010 l 614 845 l 486 845 l 390 941 z "},"ồ":{"ha":776,"x_min":57,"x_max":720,"o":"m 388 -14 q 211 33 285 -14 q 97 163 136 79 q 57 354 57 246 q 98 551 57 465 q 214 684 138 637 q 390 732 289 732 q 566 684 492 732 q 681 551 641 636 q 720 356 720 465 q 680 164 720 247 q 565 33 640 80 q 388 -14 490 -14 m 390 97 q 532 170 485 97 q 579 360 579 243 q 532 550 579 477 q 390 622 485 622 q 282 588 325 622 q 218 494 239 553 q 197 360 197 435 q 218 226 197 285 q 282 131 239 166 q 390 97 326 97 z "},"ổ":{"ha":776,"x_min":57,"x_max":720,"o":"m 388 -14 q 211 33 285 -14 q 97 163 136 79 q 57 354 57 246 q 98 551 57 465 q 214 684 138 637 q 390 732 289 732 q 566 684 492 732 q 681 551 641 636 q 720 356 720 465 q 680 164 720 247 q 565 33 640 80 q 388 -14 490 -14 m 390 97 q 532 170 485 97 q 579 360 579 243 q 532 550 579 477 q 390 622 485 622 q 282 588 325 622 q 218 494 239 553 q 197 360 197 435 q 218 226 197 285 q 282 131 239 166 q 390 97 326 97 z "},"ỗ":{"ha":776,"x_min":57,"x_max":720,"o":"m 388 -14 q 211 33 285 -14 q 97 163 136 79 q 57 354 57 246 q 98 551 57 465 q 214 684 138 637 q 390 732 289 732 q 566 684 492 732 q 681 551 641 636 q 720 356 720 465 q 680 164 720 247 q 565 33 640 80 q 388 -14 490 -14 m 390 97 q 532 170 485 97 q 579 360 579 243 q 532 550 579 477 q 390 622 485 622 q 282 588 325 622 q 218 494 239 553 q 197 360 197 435 q 218 226 197 285 q 282 131 239 166 q 390 97 326 97 z "},"ȍ":{"ha":776,"x_min":57,"x_max":720,"o":"m 388 -14 q 211 33 285 -14 q 97 163 136 79 q 57 354 57 246 q 98 551 57 465 q 214 684 138 637 q 390 732 289 732 q 566 684 492 732 q 681 551 641 636 q 720 356 720 465 q 680 164 720 247 q 565 33 640 80 q 388 -14 490 -14 m 390 97 q 532 170 485 97 q 579 360 579 243 q 532 550 579 477 q 390 622 485 622 q 282 588 325 622 q 218 494 239 553 q 197 360 197 435 q 218 226 197 285 q 282 131 239 166 q 390 97 326 97 m 351 830 l 304 774 l 89 937 l 159 1020 l 351 830 m 583 830 l 538 774 l 322 937 l 392 1020 l 583 830 z "},"ö":{"ha":776,"x_min":57,"x_max":720,"o":"m 388 -14 q 211 33 285 -14 q 97 163 136 79 q 57 354 57 246 q 98 551 57 465 q 214 684 138 637 q 390 732 289 732 q 566 684 492 732 q 681 551 641 636 q 720 356 720 465 q 680 164 720 247 q 565 33 640 80 q 388 -14 490 -14 m 390 97 q 532 170 485 97 q 579 360 579 243 q 532 550 579 477 q 390 622 485 622 q 282 588 325 622 q 218 494 239 553 q 197 360 197 435 q 218 226 197 285 q 282 131 239 166 q 390 97 326 97 m 190 1001 l 340 1001 l 340 859 l 190 859 l 190 1001 m 438 1001 l 588 1001 l 588 859 l 438 859 l 438 1001 z "},"ọ":{"ha":776,"x_min":57,"x_max":720,"o":"m 388 -14 q 211 33 285 -14 q 97 163 136 79 q 57 354 57 246 q 98 551 57 465 q 214 684 138 637 q 390 732 289 732 q 566 684 492 732 q 681 551 641 636 q 720 356 720 465 q 680 164 720 247 q 565 33 640 80 q 388 -14 490 -14 m 390 97 q 532 170 485 97 q 579 360 579 243 q 532 550 579 477 q 390 622 485 622 q 282 588 325 622 q 218 494 239 553 q 197 360 197 435 q 218 226 197 285 q 282 131 239 166 q 390 97 326 97 z "},"ò":{"ha":776,"x_min":57,"x_max":720,"o":"m 388 -14 q 211 33 285 -14 q 97 163 136 79 q 57 354 57 246 q 98 551 57 465 q 214 684 138 637 q 390 732 289 732 q 566 684 492 732 q 681 551 641 636 q 720 356 720 465 q 680 164 720 247 q 565 33 640 80 q 388 -14 490 -14 m 390 97 q 532 170 485 97 q 579 360 579 243 q 532 550 579 477 q 390 622 485 622 q 282 588 325 622 q 218 494 239 553 q 197 360 197 435 q 218 226 197 285 q 282 131 239 166 q 390 97 326 97 m 564 881 l 541 813 l 188 914 l 222 1017 l 564 881 z "},"ỏ":{"ha":776,"x_min":57,"x_max":720,"o":"m 388 -14 q 211 33 285 -14 q 97 163 136 79 q 57 354 57 246 q 98 551 57 465 q 214 684 138 637 q 390 732 289 732 q 566 684 492 732 q 681 551 641 636 q 720 356 720 465 q 680 164 720 247 q 565 33 640 80 q 388 -14 490 -14 m 390 97 q 532 170 485 97 q 579 360 579 243 q 532 550 579 477 q 390 622 485 622 q 282 588 325 622 q 218 494 239 553 q 197 360 197 435 q 218 226 197 285 q 282 131 239 166 q 390 97 326 97 m 335 974 q 390 992 363 992 q 433 970 420 992 q 441 944 441 959 q 429 909 441 926 q 395 878 417 892 l 435 817 q 499 875 477 842 q 522 942 522 907 q 498 1013 522 978 q 453 1052 481 1038 q 394 1067 426 1067 q 295 1035 344 1067 l 335 974 z "},"ơ":{"ha":938,"x_min":57,"x_max":883,"o":"m 883 701 q 865 576 882 624 q 809 504 847 528 q 706 480 770 481 q 720 356 720 422 q 680 164 720 247 q 565 33 640 80 q 388 -14 490 -14 q 211 33 285 -14 q 97 163 136 79 q 57 354 57 246 q 98 551 57 465 q 214 684 138 637 q 390 732 289 732 q 559 689 487 732 q 673 567 631 645 q 730 577 710 567 q 761 616 750 588 q 774 701 772 644 l 883 701 m 390 97 q 532 170 485 97 q 579 360 579 243 q 532 550 579 477 q 390 622 485 622 q 282 588 325 622 q 218 494 239 553 q 197 360 197 435 q 218 226 197 285 q 282 131 239 166 q 390 97 326 97 z "},"ớ":{"ha":938,"x_min":57,"x_max":883,"o":"m 226 813 l 203 881 l 544 1017 l 579 914 l 226 813 m 883 701 q 865 576 882 624 q 809 504 847 528 q 706 480 770 481 q 720 356 720 422 q 680 164 720 247 q 565 33 640 80 q 388 -14 490 -14 q 211 33 285 -14 q 97 163 136 79 q 57 354 57 246 q 98 551 57 465 q 214 684 138 637 q 390 732 289 732 q 559 689 487 732 q 673 567 631 645 q 730 577 710 567 q 761 616 750 588 q 774 701 772 644 l 883 701 m 390 97 q 532 170 485 97 q 579 360 579 243 q 532 550 579 477 q 390 622 485 622 q 282 588 325 622 q 218 494 239 553 q 197 360 197 435 q 218 226 197 285 q 282 131 239 166 q 390 97 326 97 z "},"ợ":{"ha":938,"x_min":57,"x_max":883,"o":"m 883 701 q 865 576 882 624 q 809 504 847 528 q 706 480 770 481 q 720 356 720 422 q 680 164 720 247 q 565 33 640 80 q 388 -14 490 -14 q 211 33 285 -14 q 97 163 136 79 q 57 354 57 246 q 98 551 57 465 q 214 684 138 637 q 390 732 289 732 q 559 689 487 732 q 673 567 631 645 q 730 577 710 567 q 761 616 750 588 q 774 701 772 644 l 883 701 m 390 97 q 532 170 485 97 q 579 360 579 243 q 532 550 579 477 q 390 622 485 622 q 282 588 325 622 q 218 494 239 553 q 197 360 197 435 q 218 226 197 285 q 282 131 239 166 q 390 97 326 97 m 314 -119 l 463 -119 l 463 -260 l 314 -260 l 314 -119 z "},"ờ":{"ha":938,"x_min":57,"x_max":883,"o":"m 541 813 l 188 914 l 222 1017 l 564 881 l 541 813 m 883 701 q 865 576 882 624 q 809 504 847 528 q 706 480 770 481 q 720 356 720 422 q 680 164 720 247 q 565 33 640 80 q 388 -14 490 -14 q 211 33 285 -14 q 97 163 136 79 q 57 354 57 246 q 98 551 57 465 q 214 684 138 637 q 390 732 289 732 q 559 689 487 732 q 673 567 631 645 q 730 577 710 567 q 761 616 750 588 q 774 701 772 644 l 883 701 m 390 97 q 532 170 485 97 q 579 360 579 243 q 532 550 579 477 q 390 622 485 622 q 282 588 325 622 q 218 494 239 553 q 197 360 197 435 q 218 226 197 285 q 282 131 239 166 q 390 97 326 97 z "},"ở":{"ha":938,"x_min":57,"x_max":883,"o":"m 433 970 q 390 992 420 992 q 335 974 363 992 l 295 1035 q 394 1067 344 1067 q 453 1052 426 1067 q 498 1013 481 1038 q 522 942 522 978 q 499 875 522 907 q 435 817 477 842 l 395 878 q 429 909 417 892 q 441 944 441 926 q 433 970 441 959 m 883 701 q 865 576 882 624 q 809 504 847 528 q 706 480 770 481 q 720 356 720 422 q 680 164 720 247 q 565 33 640 80 q 388 -14 490 -14 q 211 33 285 -14 q 97 163 136 79 q 57 354 57 246 q 98 551 57 465 q 214 684 138 637 q 390 732 289 732 q 559 689 487 732 q 673 567 631 645 q 730 577 710 567 q 761 616 750 588 q 774 701 772 644 l 883 701 m 390 97 q 532 170 485 97 q 579 360 579 243 q 532 550 579 477 q 390 622 485 622 q 282 588 325 622 q 218 494 239 553 q 197 360 197 435 q 218 226 197 285 q 282 131 239 166 q 390 97 326 97 z "},"ỡ":{"ha":938,"x_min":57,"x_max":883,"o":"m 303 913 q 252 903 273 913 q 203 873 232 894 l 178 946 q 233 986 206 972 q 297 1000 260 1000 q 344 995 322 1000 q 397 979 367 990 q 445 965 425 970 q 484 960 465 960 q 536 971 513 960 q 585 1001 558 982 l 608 918 q 484 876 552 876 q 436 881 458 876 q 387 896 415 886 q 343 909 362 904 q 303 913 324 913 m 883 701 q 865 576 882 624 q 809 504 847 528 q 706 480 770 481 q 720 356 720 422 q 680 164 720 247 q 565 33 640 80 q 388 -14 490 -14 q 211 33 285 -14 q 97 163 136 79 q 57 354 57 246 q 98 551 57 465 q 214 684 138 637 q 390 732 289 732 q 559 689 487 732 q 673 567 631 645 q 730 577 710 567 q 761 616 750 588 q 774 701 772 644 l 883 701 m 390 97 q 532 170 485 97 q 579 360 579 243 q 532 550 579 477 q 390 622 485 622 q 282 588 325 622 q 218 494 239 553 q 197 360 197 435 q 218 226 197 285 q 282 131 239 166 q 390 97 326 97 z "},"ő":{"ha":776,"x_min":57,"x_max":720,"o":"m 388 -14 q 211 33 285 -14 q 97 163 136 79 q 57 354 57 246 q 98 551 57 465 q 214 684 138 637 q 390 732 289 732 q 566 684 492 732 q 681 551 641 636 q 720 356 720 465 q 680 164 720 247 q 565 33 640 80 q 388 -14 490 -14 m 390 97 q 532 170 485 97 q 579 360 579 243 q 532 550 579 477 q 390 622 485 622 q 282 588 325 622 q 218 494 239 553 q 197 360 197 435 q 218 226 197 285 q 282 131 239 166 q 390 97 326 97 m 678 937 l 463 774 l 417 830 l 608 1020 l 678 937 m 444 937 l 230 774 l 182 830 l 375 1019 l 444 937 z "},"ȏ":{"ha":776,"x_min":57,"x_max":720,"o":"m 388 -14 q 211 33 285 -14 q 97 163 136 79 q 57 354 57 246 q 98 551 57 465 q 214 684 138 637 q 390 732 289 732 q 566 684 492 732 q 681 551 641 636 q 720 356 720 465 q 680 164 720 247 q 565 33 640 80 q 388 -14 490 -14 m 390 97 q 532 170 485 97 q 579 360 579 243 q 532 550 579 477 q 390 622 485 622 q 282 588 325 622 q 218 494 239 553 q 197 360 197 435 q 218 226 197 285 q 282 131 239 166 q 390 97 326 97 m 506 903 q 388 977 464 977 q 317 956 344 977 q 272 903 291 935 l 174 903 q 249 1016 192 973 q 388 1059 306 1059 q 489 1038 443 1059 q 564 982 534 1017 q 607 903 594 947 l 506 903 z "},"ō":{"ha":776,"x_min":57,"x_max":720,"o":"m 388 -14 q 211 33 285 -14 q 97 163 136 79 q 57 354 57 246 q 98 551 57 465 q 214 684 138 637 q 390 732 289 732 q 566 684 492 732 q 681 551 641 636 q 720 356 720 465 q 680 164 720 247 q 565 33 640 80 q 388 -14 490 -14 m 390 97 q 532 170 485 97 q 579 360 579 243 q 532 550 579 477 q 390 622 485 622 q 282 588 325 622 q 218 494 239 553 q 197 360 197 435 q 218 226 197 285 q 282 131 239 166 q 390 97 326 97 m 604 891 l 176 891 l 176 988 l 604 988 l 604 891 z "},"ǫ":{"ha":776,"x_min":57,"x_max":720,"o":"m 491 0 q 396 -52 424 -28 q 368 -108 368 -77 q 383 -145 368 -133 q 429 -158 397 -158 q 485 -150 459 -158 q 529 -131 511 -142 l 529 -203 q 473 -224 510 -215 q 397 -233 436 -233 q 293 -203 329 -233 q 257 -122 257 -174 q 276 -60 257 -87 q 340 -11 294 -33 q 188 48 251 -1 q 91 175 124 97 q 57 354 57 254 q 98 551 57 465 q 214 684 138 637 q 390 732 289 732 q 566 684 492 732 q 681 551 641 636 q 720 356 720 465 q 693 194 720 267 q 615 71 666 121 q 491 0 563 21 m 197 360 q 218 226 197 285 q 282 131 239 166 q 390 97 326 97 q 532 170 485 97 q 579 360 579 243 q 532 550 579 477 q 390 622 485 622 q 282 588 325 622 q 218 494 239 553 q 197 360 197 435 z "},"ø":{"ha":820,"x_min":29,"x_max":785,"o":"m 688 572 q 738 356 738 480 q 698 164 738 247 q 583 33 658 80 q 406 -14 508 -14 q 275 10 333 -14 q 173 77 216 33 l 84 -8 l 29 50 l 124 142 q 74 354 74 231 q 115 551 74 465 q 231 684 156 637 q 407 732 306 732 q 538 708 479 732 q 640 638 597 683 l 731 724 l 785 666 l 688 572 m 215 360 q 230 243 215 295 l 549 550 q 407 622 499 622 q 299 588 342 622 q 235 494 256 553 q 215 360 215 435 m 597 360 q 583 472 597 423 l 266 167 q 408 97 316 97 q 550 170 503 97 q 597 360 597 243 z "},"ǿ":{"ha":820,"x_min":29,"x_max":785,"o":"m 688 572 q 738 356 738 480 q 698 164 738 247 q 583 33 658 80 q 406 -14 508 -14 q 275 10 333 -14 q 173 77 216 33 l 84 -8 l 29 50 l 124 142 q 74 354 74 231 q 115 551 74 465 q 231 684 156 637 q 407 732 306 732 q 538 708 479 732 q 640 638 597 683 l 731 724 l 785 666 l 688 572 m 215 360 q 230 243 215 295 l 549 550 q 407 622 499 622 q 299 588 342 622 q 235 494 256 553 q 215 360 215 435 m 597 360 q 583 472 597 423 l 266 167 q 408 97 316 97 q 550 170 503 97 q 597 360 597 243 m 597 914 l 244 813 l 221 881 l 563 1017 l 597 914 z "},"õ":{"ha":776,"x_min":57,"x_max":720,"o":"m 388 -14 q 211 33 285 -14 q 97 163 136 79 q 57 354 57 246 q 98 551 57 465 q 214 684 138 637 q 390 732 289 732 q 566 684 492 732 q 681 551 641 636 q 720 356 720 465 q 680 164 720 247 q 565 33 640 80 q 388 -14 490 -14 m 390 97 q 532 170 485 97 q 579 360 579 243 q 532 550 579 477 q 390 622 485 622 q 282 588 325 622 q 218 494 239 553 q 197 360 197 435 q 218 226 197 285 q 282 131 239 166 q 390 97 326 97 m 608 918 q 484 876 552 876 q 436 881 458 876 q 387 896 415 886 q 343 909 362 904 q 303 913 324 913 q 252 903 273 913 q 203 873 232 894 l 178 946 q 233 986 206 972 q 297 1000 260 1000 q 344 995 322 1000 q 397 979 367 990 q 445 965 425 970 q 484 960 465 960 q 536 971 513 960 q 585 1001 558 982 l 608 918 z "},"œ":{"ha":1344,"x_min":57,"x_max":1287,"o":"m 405 -14 q 223 32 302 -14 q 100 162 144 78 q 57 354 57 246 q 101 551 57 465 q 225 684 146 637 q 406 732 305 732 q 560 695 492 732 q 670 594 628 659 q 683 585 678 585 q 694 594 688 585 q 802 695 735 658 q 951 732 869 732 q 1128 684 1053 732 q 1245 545 1204 636 q 1287 331 1287 455 l 753 331 q 782 208 753 263 q 861 122 811 153 q 970 90 910 90 q 1085 118 1034 90 q 1178 206 1137 147 l 1272 160 q 1139 27 1214 67 q 956 -14 1063 -14 q 803 21 872 -14 q 691 119 735 56 q 680 128 685 128 q 667 115 674 128 q 556 20 623 53 q 405 -14 489 -14 m 957 635 q 854 608 900 635 q 781 531 808 581 q 756 417 755 481 l 1147 416 q 1124 523 1147 473 q 1057 604 1100 573 q 957 635 1013 635 m 407 88 q 516 120 470 88 q 586 213 562 152 q 610 358 610 274 q 585 505 610 443 q 515 599 560 566 q 406 631 469 631 q 298 599 344 631 q 226 505 251 566 q 201 358 201 443 q 226 214 201 274 q 298 120 251 153 q 407 88 344 88 z "},"p":{"ha":817,"x_min":103,"x_max":760,"o":"m 103 718 l 244 718 l 244 621 q 332 699 278 666 q 464 732 385 732 q 615 691 548 732 q 721 569 682 651 q 760 368 760 487 q 719 161 760 247 q 606 31 678 75 q 443 -14 534 -14 q 334 13 383 -14 q 244 100 285 39 l 244 -224 l 103 -224 l 103 718 m 419 93 q 525 125 478 93 q 598 218 572 157 q 625 365 625 279 q 598 507 625 449 q 525 594 570 565 q 425 624 479 624 q 334 599 375 624 q 268 536 292 574 q 244 462 244 499 l 244 208 q 320 124 274 156 q 419 93 366 93 z "},"þ":{"ha":817,"x_min":103,"x_max":760,"o":"m 244 621 q 298 674 272 652 q 367 714 324 697 q 469 732 410 732 q 619 691 553 732 q 723 569 685 651 q 760 368 760 487 q 722 160 760 247 q 615 30 684 74 q 456 -14 547 -14 q 267 55 346 -14 q 251 65 255 65 q 246 60 247 65 q 244 46 244 56 l 244 -224 l 103 -224 l 103 1004 l 244 1004 l 244 621 m 244 166 q 323 105 283 126 q 412 83 364 83 q 519 115 473 83 q 590 210 565 147 q 616 368 616 274 q 561 569 616 504 q 417 634 506 634 q 329 613 369 634 q 267 559 290 592 q 244 492 244 526 l 244 166 z "},"q":{"ha":818,"x_min":57,"x_max":715,"o":"m 573 -224 l 573 106 q 487 17 540 47 q 366 -14 434 -14 q 205 30 275 -14 q 96 160 135 74 q 57 368 57 247 q 96 569 57 487 q 202 691 135 651 q 353 732 269 732 q 449 716 407 732 q 518 680 492 699 q 574 632 544 660 l 574 718 l 715 718 l 715 -224 l 573 -224 m 405 88 q 498 117 460 88 q 554 195 535 147 q 573 299 573 244 l 573 442 q 551 535 573 492 q 489 603 529 578 q 399 629 449 629 q 299 600 344 629 q 228 513 255 572 q 201 367 201 453 q 228 218 201 281 q 300 121 254 155 q 405 88 347 88 z "},"r":{"ha":537,"x_min":103,"x_max":499,"o":"m 103 718 l 238 718 l 238 574 q 334 688 267 644 q 499 732 402 732 l 499 596 q 468 597 489 597 q 298 553 351 597 q 244 437 244 510 l 244 0 l 103 0 l 103 718 z "},"ŕ":{"ha":537,"x_min":103,"x_max":499,"o":"m 103 718 l 238 718 l 238 574 q 334 688 267 644 q 499 732 402 732 l 499 596 q 468 597 489 597 q 298 553 351 597 q 244 437 244 510 l 244 0 l 103 0 l 103 718 m 486 914 l 133 813 l 110 881 l 451 1017 l 486 914 z "},"ř":{"ha":537,"x_min":71,"x_max":520,"o":"m 103 718 l 238 718 l 238 574 q 334 688 267 644 q 499 732 402 732 l 499 596 q 468 597 489 597 q 298 553 351 597 q 244 437 244 510 l 244 0 l 103 0 l 103 718 m 520 1005 l 349 840 l 247 840 l 71 1005 l 192 1005 l 297 909 l 392 1005 l 520 1005 z "},"ŗ":{"ha":537,"x_min":81,"x_max":499,"o":"m 103 718 l 238 718 l 238 574 q 334 688 267 644 q 499 732 402 732 l 499 596 q 468 597 489 597 q 298 553 351 597 q 244 437 244 510 l 244 0 l 103 0 l 103 718 z "},"ȑ":{"ha":537,"x_min":-4,"x_max":499,"o":"m 103 718 l 238 718 l 238 574 q 334 688 267 644 q 499 732 402 732 l 499 596 q 468 597 489 597 q 298 553 351 597 q 244 437 244 510 l 244 0 l 103 0 l 103 718 m 258 830 l 211 774 l -4 937 l 66 1020 l 258 830 m 490 830 l 444 774 l 229 937 l 299 1020 l 490 830 z "},"ṛ":{"ha":537,"x_min":103,"x_max":499,"o":"m 103 718 l 238 718 l 238 574 q 334 688 267 644 q 499 732 402 732 l 499 596 q 468 597 489 597 q 298 553 351 597 q 244 437 244 510 l 244 0 l 103 0 l 103 718 z "},"ȓ":{"ha":537,"x_min":81,"x_max":513,"o":"m 103 718 l 238 718 l 238 574 q 334 688 267 644 q 499 732 402 732 l 499 596 q 468 597 489 597 q 298 553 351 597 q 244 437 244 510 l 244 0 l 103 0 l 103 718 m 413 903 q 294 977 370 977 q 224 956 250 977 q 178 903 197 935 l 81 903 q 156 1016 99 973 q 294 1059 213 1059 q 395 1038 349 1059 q 470 982 440 1017 q 513 903 501 947 l 413 903 z "},"s":{"ha":719,"x_min":68,"x_max":652,"o":"m 371 -14 q 228 11 294 -14 q 121 87 163 36 q 68 212 78 138 l 197 212 q 258 121 210 150 q 370 92 306 92 q 484 118 442 92 q 526 194 526 145 q 424 289 526 265 l 286 324 q 142 392 192 347 q 92 517 92 438 q 127 632 92 583 q 225 706 162 681 q 372 732 288 732 q 511 707 451 732 q 605 635 571 682 q 640 522 639 588 l 515 522 q 468 599 508 571 q 369 627 428 627 q 264 603 308 627 q 220 524 220 579 q 249 468 220 489 q 340 433 278 447 l 479 399 q 612 319 572 374 q 652 201 652 265 q 615 85 652 133 q 514 11 578 36 q 371 -14 450 -14 z "},"ś":{"ha":719,"x_min":68,"x_max":652,"o":"m 371 -14 q 228 11 294 -14 q 121 87 163 36 q 68 212 78 138 l 197 212 q 258 121 210 150 q 370 92 306 92 q 484 118 442 92 q 526 194 526 145 q 424 289 526 265 l 286 324 q 142 392 192 347 q 92 517 92 438 q 127 632 92 583 q 225 706 162 681 q 372 732 288 732 q 511 707 451 732 q 605 635 571 682 q 640 522 639 588 l 515 522 q 468 599 508 571 q 369 627 428 627 q 264 603 308 627 q 220 524 220 579 q 249 468 220 489 q 340 433 278 447 l 479 399 q 612 319 572 374 q 652 201 652 265 q 615 85 652 133 q 514 11 578 36 q 371 -14 450 -14 m 543 914 l 190 813 l 167 881 l 508 1017 l 543 914 z "},"š":{"ha":719,"x_min":68,"x_max":652,"o":"m 371 -14 q 228 11 294 -14 q 121 87 163 36 q 68 212 78 138 l 197 212 q 258 121 210 150 q 370 92 306 92 q 484 118 442 92 q 526 194 526 145 q 424 289 526 265 l 286 324 q 142 392 192 347 q 92 517 92 438 q 127 632 92 583 q 225 706 162 681 q 372 732 288 732 q 511 707 451 732 q 605 635 571 682 q 640 522 639 588 l 515 522 q 468 599 508 571 q 369 627 428 627 q 264 603 308 627 q 220 524 220 579 q 249 468 220 489 q 340 433 278 447 l 479 399 q 612 319 572 374 q 652 201 652 265 q 615 85 652 133 q 514 11 578 36 q 371 -14 450 -14 m 578 1005 l 406 840 l 305 840 l 128 1005 l 250 1005 l 354 909 l 450 1005 l 578 1005 z "},"ş":{"ha":719,"x_min":68,"x_max":652,"o":"m 652 201 q 618 89 652 136 q 525 16 584 42 q 392 -13 466 -10 l 367 -76 q 465 -109 434 -79 q 495 -180 495 -140 q 474 -238 495 -213 q 419 -275 453 -262 q 342 -287 384 -287 q 205 -252 260 -287 l 228 -196 q 325 -228 273 -228 q 399 -179 399 -228 q 372 -135 399 -149 q 287 -119 346 -120 q 276 -115 276 -119 l 278 -109 l 321 -11 q 150 57 219 1 q 68 212 81 114 l 197 212 q 258 121 210 150 q 370 92 306 92 q 484 118 442 92 q 526 194 526 145 q 424 289 526 265 l 286 324 q 142 392 192 347 q 92 517 92 438 q 127 632 92 583 q 225 706 162 681 q 372 732 288 732 q 511 707 451 732 q 605 635 571 682 q 640 522 639 588 l 515 522 q 468 599 508 571 q 369 627 428 627 q 264 603 308 627 q 220 524 220 579 q 249 468 220 489 q 340 433 278 447 l 479 399 q 612 319 572 374 q 652 201 652 265 z "},"ŝ":{"ha":719,"x_min":68,"x_max":652,"o":"m 371 -14 q 228 11 294 -14 q 121 87 163 36 q 68 212 78 138 l 197 212 q 258 121 210 150 q 370 92 306 92 q 484 118 442 92 q 526 194 526 145 q 424 289 526 265 l 286 324 q 142 392 192 347 q 92 517 92 438 q 127 632 92 583 q 225 706 162 681 q 372 732 288 732 q 511 707 451 732 q 605 635 571 682 q 640 522 639 588 l 515 522 q 468 599 508 571 q 369 627 428 627 q 264 603 308 627 q 220 524 220 579 q 249 468 220 489 q 340 433 278 447 l 479 399 q 612 319 572 374 q 652 201 652 265 q 615 85 652 133 q 514 11 578 36 q 371 -14 450 -14 m 354 941 l 250 845 l 129 845 l 305 1010 l 406 1010 l 578 845 l 450 845 l 354 941 z "},"ș":{"ha":719,"x_min":68,"x_max":652,"o":"m 371 -14 q 228 11 294 -14 q 121 87 163 36 q 68 212 78 138 l 197 212 q 258 121 210 150 q 370 92 306 92 q 484 118 442 92 q 526 194 526 145 q 424 289 526 265 l 286 324 q 142 392 192 347 q 92 517 92 438 q 127 632 92 583 q 225 706 162 681 q 372 732 288 732 q 511 707 451 732 q 605 635 571 682 q 640 522 639 588 l 515 522 q 468 599 508 571 q 369 627 428 627 q 264 603 308 627 q 220 524 220 579 q 249 468 220 489 q 340 433 278 447 l 479 399 q 612 319 572 374 q 652 201 652 265 q 615 85 652 133 q 514 11 578 36 q 371 -14 450 -14 z "},"ṣ":{"ha":719,"x_min":68,"x_max":652,"o":"m 371 -14 q 228 11 294 -14 q 121 87 163 36 q 68 212 78 138 l 197 212 q 258 121 210 150 q 370 92 306 92 q 484 118 442 92 q 526 194 526 145 q 424 289 526 265 l 286 324 q 142 392 192 347 q 92 517 92 438 q 127 632 92 583 q 225 706 162 681 q 372 732 288 732 q 511 707 451 732 q 605 635 571 682 q 640 522 639 588 l 515 522 q 468 599 508 571 q 369 627 428 627 q 264 603 308 627 q 220 524 220 579 q 249 468 220 489 q 340 433 278 447 l 479 399 q 612 319 572 374 q 652 201 652 265 q 615 85 652 133 q 514 11 578 36 q 371 -14 450 -14 z "},"ß":{"ha":865,"x_min":42,"x_max":797,"o":"m 453 1004 q 593 978 537 1004 q 676 909 649 953 q 703 809 703 865 q 683 725 703 760 q 628 667 663 691 q 535 617 592 644 q 480 583 493 595 q 466 550 466 571 q 472 527 466 536 q 492 513 478 519 q 533 497 506 506 l 549 491 q 675 433 626 461 q 761 355 725 406 q 797 226 797 303 q 761 95 797 149 q 663 14 726 42 q 519 -14 600 -14 q 417 -1 467 -14 q 331 34 366 12 l 379 126 q 443 95 414 106 q 512 84 472 84 q 625 118 583 84 q 667 211 667 151 q 645 281 667 253 q 592 324 624 308 q 503 360 560 340 q 427 395 458 376 q 375 445 396 415 q 355 522 355 476 q 381 605 355 571 q 465 675 408 640 q 483 687 481 685 q 531 721 513 706 q 560 756 548 735 q 572 805 572 777 q 538 878 572 851 q 442 906 503 906 q 318 858 364 906 q 273 725 273 811 l 273 0 l 133 0 l 133 597 l 42 597 l 42 699 l 132 699 q 169 856 133 788 q 277 965 206 925 q 453 1004 349 1004 z "},"t":{"ha":531,"x_min":42,"x_max":467,"o":"m 301 615 l 302 185 q 310 131 302 149 q 336 107 319 113 q 385 101 353 101 l 467 101 l 467 8 q 358 -5 432 -5 q 238 16 281 -5 q 176 75 194 36 q 158 176 158 115 l 158 615 l 42 615 l 42 718 l 162 718 l 187 928 l 301 928 l 301 719 l 463 719 l 463 615 l 301 615 z "},"ŧ":{"ha":554,"x_min":60,"x_max":487,"o":"m 487 101 l 487 8 q 376 -5 451 -5 q 256 16 300 -5 q 195 75 213 36 q 177 176 177 115 l 177 352 l 65 352 l 65 440 l 177 440 l 177 615 l 60 615 l 60 718 l 181 718 l 206 928 l 321 928 l 321 719 l 483 719 l 483 615 l 321 615 l 321 440 l 453 440 l 453 352 l 322 352 l 322 185 q 330 131 322 149 q 356 107 338 113 q 405 101 373 101 l 487 101 z "},"ť":{"ha":531,"x_min":42,"x_max":535,"o":"m 301 615 l 302 185 q 310 131 302 149 q 336 107 319 113 q 385 101 353 101 l 467 101 l 467 8 q 358 -5 432 -5 q 238 16 281 -5 q 176 75 194 36 q 158 176 158 115 l 158 615 l 42 615 l 42 718 l 162 718 l 187 928 l 301 928 l 301 719 l 463 719 l 463 615 l 301 615 m 463 910 l 423 917 l 423 1056 l 535 1056 l 535 910 l 479 780 l 410 780 l 463 910 z "},"ţ":{"ha":531,"x_min":42,"x_max":467,"o":"m 342 -5 l 315 -72 q 413 -105 382 -74 q 443 -175 443 -135 q 422 -233 443 -208 q 367 -270 401 -258 q 290 -283 332 -283 q 153 -247 208 -283 l 176 -191 q 273 -224 221 -224 q 347 -174 347 -224 q 320 -130 347 -144 q 235 -115 294 -115 q 224 -110 224 -115 l 226 -104 l 273 3 q 184 61 210 19 q 158 176 158 103 l 158 615 l 42 615 l 42 718 l 162 718 l 187 928 l 301 928 l 301 719 l 463 719 l 463 615 l 301 615 l 302 185 q 310 131 302 149 q 336 107 319 113 q 385 101 353 101 l 467 101 l 467 8 q 358 -5 432 -5 l 342 -5 z "},"ț":{"ha":531,"x_min":42,"x_max":467,"o":"m 301 615 l 302 185 q 310 131 302 149 q 336 107 319 113 q 385 101 353 101 l 467 101 l 467 8 q 358 -5 432 -5 q 238 16 281 -5 q 176 75 194 36 q 158 176 158 115 l 158 615 l 42 615 l 42 718 l 162 718 l 187 928 l 301 928 l 301 719 l 463 719 l 463 615 l 301 615 z "},"ṭ":{"ha":531,"x_min":42,"x_max":467,"o":"m 301 615 l 302 185 q 310 131 302 149 q 336 107 319 113 q 385 101 353 101 l 467 101 l 467 8 q 358 -5 432 -5 q 238 16 281 -5 q 176 75 194 36 q 158 176 158 115 l 158 615 l 42 615 l 42 718 l 162 718 l 187 928 l 301 928 l 301 719 l 463 719 l 463 615 l 301 615 z "},"u":{"ha":817,"x_min":103,"x_max":715,"o":"m 373 -13 q 247 13 309 -13 q 144 93 185 38 q 103 230 103 148 l 103 719 l 244 719 l 244 245 q 268 159 244 193 q 328 111 292 126 q 405 96 365 96 q 488 114 450 96 q 548 166 526 131 q 571 251 571 201 l 571 719 l 715 719 l 712 1 l 601 1 l 585 139 q 541 53 574 88 q 465 3 508 19 q 373 -13 421 -13 z "},"ú":{"ha":817,"x_min":103,"x_max":715,"o":"m 373 -13 q 247 13 309 -13 q 144 93 185 38 q 103 230 103 148 l 103 719 l 244 719 l 244 245 q 268 159 244 193 q 328 111 292 126 q 405 96 365 96 q 488 114 450 96 q 548 166 526 131 q 571 251 571 201 l 571 719 l 715 719 l 712 1 l 601 1 l 585 139 q 541 53 574 88 q 465 3 508 19 q 373 -13 421 -13 m 597 914 l 243 813 l 220 881 l 562 1017 l 597 914 z "},"ŭ":{"ha":817,"x_min":103,"x_max":715,"o":"m 373 -13 q 247 13 309 -13 q 144 93 185 38 q 103 230 103 148 l 103 719 l 244 719 l 244 245 q 268 159 244 193 q 328 111 292 126 q 405 96 365 96 q 488 114 450 96 q 548 166 526 131 q 571 251 571 201 l 571 719 l 715 719 l 712 1 l 601 1 l 585 139 q 541 53 574 88 q 465 3 508 19 q 373 -13 421 -13 m 628 1003 q 586 925 616 960 q 510 869 556 890 q 410 848 465 848 q 270 891 327 848 q 196 1003 214 933 l 294 1003 q 339 951 313 972 q 410 930 365 930 q 528 1003 485 930 l 628 1003 z "},"û":{"ha":817,"x_min":103,"x_max":715,"o":"m 373 -13 q 247 13 309 -13 q 144 93 185 38 q 103 230 103 148 l 103 719 l 244 719 l 244 245 q 268 159 244 193 q 328 111 292 126 q 405 96 365 96 q 488 114 450 96 q 548 166 526 131 q 571 251 571 201 l 571 719 l 715 719 l 712 1 l 601 1 l 585 139 q 541 53 574 88 q 465 3 508 19 q 373 -13 421 -13 m 407 941 l 303 845 l 182 845 l 358 1010 l 459 1010 l 631 845 l 503 845 l 407 941 z "},"ȕ":{"ha":817,"x_min":103,"x_max":715,"o":"m 373 -13 q 247 13 309 -13 q 144 93 185 38 q 103 230 103 148 l 103 719 l 244 719 l 244 245 q 268 159 244 193 q 328 111 292 126 q 405 96 365 96 q 488 114 450 96 q 548 166 526 131 q 571 251 571 201 l 571 719 l 715 719 l 712 1 l 601 1 l 585 139 q 541 53 574 88 q 465 3 508 19 q 373 -13 421 -13 m 368 830 l 322 774 l 106 937 l 176 1020 l 368 830 m 601 830 l 555 774 l 340 937 l 409 1020 l 601 830 z "},"ü":{"ha":817,"x_min":103,"x_max":715,"o":"m 373 -13 q 247 13 309 -13 q 144 93 185 38 q 103 230 103 148 l 103 719 l 244 719 l 244 245 q 268 159 244 193 q 328 111 292 126 q 405 96 365 96 q 488 114 450 96 q 548 166 526 131 q 571 251 571 201 l 571 719 l 715 719 l 712 1 l 601 1 l 585 139 q 541 53 574 88 q 465 3 508 19 q 373 -13 421 -13 m 207 1001 l 356 1001 l 356 859 l 207 859 l 207 1001 m 455 1001 l 604 1001 l 604 859 l 455 859 l 455 1001 z "},"ụ":{"ha":817,"x_min":103,"x_max":715,"o":"m 373 -13 q 247 13 309 -13 q 144 93 185 38 q 103 230 103 148 l 103 719 l 244 719 l 244 245 q 268 159 244 193 q 328 111 292 126 q 405 96 365 96 q 488 114 450 96 q 548 166 526 131 q 571 251 571 201 l 571 719 l 715 719 l 712 1 l 601 1 l 585 139 q 541 53 574 88 q 465 3 508 19 q 373 -13 421 -13 z "},"ù":{"ha":817,"x_min":103,"x_max":715,"o":"m 373 -13 q 247 13 309 -13 q 144 93 185 38 q 103 230 103 148 l 103 719 l 244 719 l 244 245 q 268 159 244 193 q 328 111 292 126 q 405 96 365 96 q 488 114 450 96 q 548 166 526 131 q 571 251 571 201 l 571 719 l 715 719 l 712 1 l 601 1 l 585 139 q 541 53 574 88 q 465 3 508 19 q 373 -13 421 -13 m 581 881 l 558 813 l 204 914 l 239 1017 l 581 881 z "},"ủ":{"ha":817,"x_min":103,"x_max":715,"o":"m 373 -13 q 247 13 309 -13 q 144 93 185 38 q 103 230 103 148 l 103 719 l 244 719 l 244 245 q 268 159 244 193 q 328 111 292 126 q 405 96 365 96 q 488 114 450 96 q 548 166 526 131 q 571 251 571 201 l 571 719 l 715 719 l 712 1 l 601 1 l 585 139 q 541 53 574 88 q 465 3 508 19 q 373 -13 421 -13 m 351 974 q 406 992 379 992 q 450 970 437 992 q 458 944 458 959 q 445 909 458 926 q 412 878 433 892 l 451 817 q 516 875 494 842 q 538 942 538 907 q 515 1013 538 978 q 470 1052 497 1038 q 410 1067 443 1067 q 312 1035 360 1067 l 351 974 z "},"ư":{"ha":978,"x_min":103,"x_max":917,"o":"m 917 773 q 898 647 916 695 q 841 574 881 598 q 735 551 801 551 q 714 551 722 551 l 712 1 l 601 1 l 585 139 q 541 53 574 88 q 465 3 508 19 q 373 -13 421 -13 q 247 13 309 -13 q 144 93 185 38 q 103 230 103 148 l 103 719 l 244 719 l 244 245 q 268 159 244 193 q 328 111 292 126 q 405 96 365 96 q 488 114 450 96 q 548 166 526 131 q 571 251 571 201 l 571 719 l 715 719 l 715 638 q 767 650 749 640 q 795 689 785 661 q 808 773 806 717 l 917 773 z "},"ứ":{"ha":978,"x_min":103,"x_max":917,"o":"m 243 813 l 220 881 l 562 1017 l 597 914 l 243 813 m 917 773 q 898 647 916 695 q 841 574 881 598 q 735 551 801 551 q 714 551 722 551 l 712 1 l 601 1 l 585 139 q 541 53 574 88 q 465 3 508 19 q 373 -13 421 -13 q 247 13 309 -13 q 144 93 185 38 q 103 230 103 148 l 103 719 l 244 719 l 244 245 q 268 159 244 193 q 328 111 292 126 q 405 96 365 96 q 488 114 450 96 q 548 166 526 131 q 571 251 571 201 l 571 719 l 715 719 l 715 638 q 767 650 749 640 q 795 689 785 661 q 808 773 806 717 l 917 773 z "},"ự":{"ha":978,"x_min":103,"x_max":917,"o":"m 917 773 q 898 647 916 695 q 841 574 881 598 q 735 551 801 551 q 714 551 722 551 l 712 1 l 601 1 l 585 139 q 541 53 574 88 q 465 3 508 19 q 373 -13 421 -13 q 247 13 309 -13 q 144 93 185 38 q 103 230 103 148 l 103 719 l 244 719 l 244 245 q 268 159 244 193 q 328 111 292 126 q 405 96 365 96 q 488 114 450 96 q 548 166 526 131 q 571 251 571 201 l 571 719 l 715 719 l 715 638 q 767 650 749 640 q 795 689 785 661 q 808 773 806 717 l 917 773 m 332 -119 l 481 -119 l 481 -260 l 332 -260 l 332 -119 z "},"ừ":{"ha":978,"x_min":103,"x_max":917,"o":"m 558 813 l 204 914 l 239 1017 l 581 881 l 558 813 m 917 773 q 898 647 916 695 q 841 574 881 598 q 735 551 801 551 q 714 551 722 551 l 712 1 l 601 1 l 585 139 q 541 53 574 88 q 465 3 508 19 q 373 -13 421 -13 q 247 13 309 -13 q 144 93 185 38 q 103 230 103 148 l 103 719 l 244 719 l 244 245 q 268 159 244 193 q 328 111 292 126 q 405 96 365 96 q 488 114 450 96 q 548 166 526 131 q 571 251 571 201 l 571 719 l 715 719 l 715 638 q 767 650 749 640 q 795 689 785 661 q 808 773 806 717 l 917 773 z "},"ử":{"ha":978,"x_min":103,"x_max":917,"o":"m 450 970 q 406 992 437 992 q 351 974 379 992 l 312 1035 q 410 1067 360 1067 q 470 1052 443 1067 q 515 1013 497 1038 q 538 942 538 978 q 516 875 538 907 q 451 817 494 842 l 412 878 q 445 909 433 892 q 458 944 458 926 q 450 970 458 959 m 917 773 q 898 647 916 695 q 841 574 881 598 q 735 551 801 551 q 714 551 722 551 l 712 1 l 601 1 l 585 139 q 541 53 574 88 q 465 3 508 19 q 373 -13 421 -13 q 247 13 309 -13 q 144 93 185 38 q 103 230 103 148 l 103 719 l 244 719 l 244 245 q 268 159 244 193 q 328 111 292 126 q 405 96 365 96 q 488 114 450 96 q 548 166 526 131 q 571 251 571 201 l 571 719 l 715 719 l 715 638 q 767 650 749 640 q 795 689 785 661 q 808 773 806 717 l 917 773 z "},"ữ":{"ha":978,"x_min":103,"x_max":917,"o":"m 320 913 q 269 903 290 913 q 220 873 249 894 l 195 946 q 250 986 223 972 q 314 1000 276 1000 q 361 995 338 1000 q 414 979 383 990 q 461 965 442 970 q 501 960 481 960 q 552 971 530 960 q 601 1001 575 982 l 624 918 q 501 876 569 876 q 453 881 474 876 q 403 896 431 886 q 360 909 378 904 q 320 913 341 913 m 917 773 q 898 647 916 695 q 841 574 881 598 q 735 551 801 551 q 714 551 722 551 l 712 1 l 601 1 l 585 139 q 541 53 574 88 q 465 3 508 19 q 373 -13 421 -13 q 247 13 309 -13 q 144 93 185 38 q 103 230 103 148 l 103 719 l 244 719 l 244 245 q 268 159 244 193 q 328 111 292 126 q 405 96 365 96 q 488 114 450 96 q 548 166 526 131 q 571 251 571 201 l 571 719 l 715 719 l 715 638 q 767 650 749 640 q 795 689 785 661 q 808 773 806 717 l 917 773 z "},"ű":{"ha":817,"x_min":103,"x_max":715,"o":"m 373 -13 q 247 13 309 -13 q 144 93 185 38 q 103 230 103 148 l 103 719 l 244 719 l 244 245 q 268 159 244 193 q 328 111 292 126 q 405 96 365 96 q 488 114 450 96 q 548 166 526 131 q 571 251 571 201 l 571 719 l 715 719 l 712 1 l 601 1 l 585 139 q 541 53 574 88 q 465 3 508 19 q 373 -13 421 -13 m 696 937 l 481 774 l 434 830 l 626 1020 l 696 937 m 461 937 l 247 774 l 199 830 l 392 1019 l 461 937 z "},"ȗ":{"ha":817,"x_min":103,"x_max":715,"o":"m 373 -13 q 247 13 309 -13 q 144 93 185 38 q 103 230 103 148 l 103 719 l 244 719 l 244 245 q 268 159 244 193 q 328 111 292 126 q 405 96 365 96 q 488 114 450 96 q 548 166 526 131 q 571 251 571 201 l 571 719 l 715 719 l 712 1 l 601 1 l 585 139 q 541 53 574 88 q 465 3 508 19 q 373 -13 421 -13 m 523 903 q 405 977 481 977 q 334 956 360 977 q 289 903 308 935 l 191 903 q 266 1016 209 973 q 405 1059 323 1059 q 505 1038 460 1059 q 581 982 551 1017 q 624 903 611 947 l 523 903 z "},"ū":{"ha":817,"x_min":103,"x_max":715,"o":"m 373 -13 q 247 13 309 -13 q 144 93 185 38 q 103 230 103 148 l 103 719 l 244 719 l 244 245 q 268 159 244 193 q 328 111 292 126 q 405 96 365 96 q 488 114 450 96 q 548 166 526 131 q 571 251 571 201 l 571 719 l 715 719 l 712 1 l 601 1 l 585 139 q 541 53 574 88 q 465 3 508 19 q 373 -13 421 -13 m 622 891 l 194 891 l 194 988 l 622 988 l 622 891 z "},"ų":{"ha":817,"x_min":103,"x_max":735,"o":"m 635 -157 q 691 -149 665 -157 q 735 -131 717 -142 l 735 -203 q 679 -223 716 -215 q 603 -232 642 -232 q 499 -203 535 -232 q 463 -122 463 -174 q 493 -46 463 -78 q 600 10 524 -14 l 585 139 q 541 53 574 88 q 465 3 508 19 q 373 -13 421 -13 q 247 13 309 -13 q 144 93 185 38 q 103 230 103 148 l 103 719 l 244 719 l 244 245 q 268 159 244 193 q 328 111 292 126 q 405 96 365 96 q 488 114 450 96 q 548 166 526 131 q 571 251 571 201 l 571 719 l 715 719 l 712 1 l 697 1 q 602 -52 631 -27 q 574 -108 574 -76 q 589 -145 574 -133 q 635 -157 603 -157 z "},"ů":{"ha":817,"x_min":103,"x_max":715,"o":"m 373 -13 q 247 13 309 -13 q 144 93 185 38 q 103 230 103 148 l 103 719 l 244 719 l 244 245 q 268 159 244 193 q 328 111 292 126 q 405 96 365 96 q 488 114 450 96 q 548 166 526 131 q 571 251 571 201 l 571 719 l 715 719 l 712 1 l 601 1 l 585 139 q 541 53 574 88 q 465 3 508 19 q 373 -13 421 -13 m 553 943 q 534 870 553 903 q 481 818 515 837 q 408 799 448 799 q 335 818 368 799 q 283 871 302 838 q 264 946 264 905 q 283 1016 264 984 q 336 1067 303 1048 q 408 1085 369 1085 q 481 1066 448 1085 q 534 1015 515 1047 q 553 943 553 982 m 480 942 q 459 995 480 974 q 407 1015 438 1015 q 355 994 376 1015 q 333 942 333 974 q 355 890 333 913 q 407 867 377 867 q 459 890 438 867 q 480 942 480 913 z "},"ũ":{"ha":817,"x_min":103,"x_max":715,"o":"m 373 -13 q 247 13 309 -13 q 144 93 185 38 q 103 230 103 148 l 103 719 l 244 719 l 244 245 q 268 159 244 193 q 328 111 292 126 q 405 96 365 96 q 488 114 450 96 q 548 166 526 131 q 571 251 571 201 l 571 719 l 715 719 l 712 1 l 601 1 l 585 139 q 541 53 574 88 q 465 3 508 19 q 373 -13 421 -13 m 624 918 q 501 876 569 876 q 453 881 474 876 q 403 896 431 886 q 360 909 378 904 q 320 913 341 913 q 269 903 290 913 q 220 873 249 894 l 195 946 q 250 986 223 972 q 314 1000 276 1000 q 361 995 338 1000 q 414 979 383 990 q 461 965 442 970 q 501 960 481 960 q 552 971 530 960 q 601 1001 575 982 l 624 918 z "},"v":{"ha":715,"x_min":36,"x_max":680,"o":"m 419 0 l 297 0 l 36 718 l 168 718 l 352 179 l 363 179 l 548 718 l 680 718 l 419 0 z "},"w":{"ha":1090,"x_min":36,"x_max":1054,"o":"m 834 0 l 701 0 l 543 513 l 391 0 l 260 0 l 36 718 l 166 718 l 325 185 l 335 185 l 492 718 l 598 718 l 760 187 l 770 187 l 923 718 l 1054 718 l 834 0 z "},"ẃ":{"ha":1090,"x_min":36,"x_max":1054,"o":"m 834 0 l 701 0 l 543 513 l 391 0 l 260 0 l 36 718 l 166 718 l 325 185 l 335 185 l 492 718 l 598 718 l 760 187 l 770 187 l 923 718 l 1054 718 l 834 0 m 740 914 l 386 813 l 363 881 l 705 1017 l 740 914 z "},"ŵ":{"ha":1090,"x_min":36,"x_max":1054,"o":"m 834 0 l 701 0 l 543 513 l 391 0 l 260 0 l 36 718 l 166 718 l 325 185 l 335 185 l 492 718 l 598 718 l 760 187 l 770 187 l 923 718 l 1054 718 l 834 0 m 550 941 l 446 845 l 325 845 l 501 1010 l 602 1010 l 774 845 l 646 845 l 550 941 z "},"ẅ":{"ha":1090,"x_min":36,"x_max":1054,"o":"m 834 0 l 701 0 l 543 513 l 391 0 l 260 0 l 36 718 l 166 718 l 325 185 l 335 185 l 492 718 l 598 718 l 760 187 l 770 187 l 923 718 l 1054 718 l 834 0 m 350 1001 l 499 1001 l 499 859 l 350 859 l 350 1001 m 598 1001 l 747 1001 l 747 859 l 598 859 l 598 1001 z "},"ẁ":{"ha":1090,"x_min":36,"x_max":1054,"o":"m 834 0 l 701 0 l 543 513 l 391 0 l 260 0 l 36 718 l 166 718 l 325 185 l 335 185 l 492 718 l 598 718 l 760 187 l 770 187 l 923 718 l 1054 718 l 834 0 m 724 881 l 701 813 l 347 914 l 382 1017 l 724 881 z "},"x":{"ha":790,"x_min":40,"x_max":750,"o":"m 597 0 l 394 273 l 193 0 l 40 0 l 317 374 l 63 718 l 216 718 l 395 475 l 575 718 l 728 718 l 473 374 l 750 0 l 597 0 z "},"y":{"ha":762,"x_min":36,"x_max":726,"o":"m 187 -229 q 115 -224 144 -229 q 72 -210 86 -218 l 72 -119 l 146 -120 q 227 -111 197 -122 q 270 -82 257 -99 q 293 -43 284 -65 l 316 19 l 36 718 l 178 718 l 383 179 l 587 718 l 726 718 l 425 -45 q 361 -156 397 -115 q 283 -213 325 -197 q 187 -229 241 -229 z "},"ý":{"ha":762,"x_min":36,"x_max":726,"o":"m 187 -229 q 115 -224 144 -229 q 72 -210 86 -218 l 72 -119 l 146 -120 q 227 -111 197 -122 q 270 -82 257 -99 q 293 -43 284 -65 l 316 19 l 36 718 l 178 718 l 383 179 l 587 718 l 726 718 l 425 -45 q 361 -156 397 -115 q 283 -213 325 -197 q 187 -229 241 -229 m 585 914 l 231 813 l 208 881 l 550 1017 l 585 914 z "},"ŷ":{"ha":762,"x_min":36,"x_max":726,"o":"m 187 -229 q 115 -224 144 -229 q 72 -210 86 -218 l 72 -119 l 146 -120 q 227 -111 197 -122 q 270 -82 257 -99 q 293 -43 284 -65 l 316 19 l 36 718 l 178 718 l 383 179 l 587 718 l 726 718 l 425 -45 q 361 -156 397 -115 q 283 -213 325 -197 q 187 -229 241 -229 m 396 941 l 292 845 l 171 845 l 347 1010 l 448 1010 l 619 845 l 492 845 l 396 941 z "},"ÿ":{"ha":762,"x_min":36,"x_max":726,"o":"m 187 -229 q 115 -224 144 -229 q 72 -210 86 -218 l 72 -119 l 146 -120 q 227 -111 197 -122 q 270 -82 257 -99 q 293 -43 284 -65 l 316 19 l 36 718 l 178 718 l 383 179 l 587 718 l 726 718 l 425 -45 q 361 -156 397 -115 q 283 -213 325 -197 q 187 -229 241 -229 m 196 1001 l 345 1001 l 345 859 l 196 859 l 196 1001 m 444 1001 l 593 1001 l 593 859 l 444 859 l 444 1001 z "},"ỵ":{"ha":762,"x_min":36,"x_max":726,"o":"m 187 -229 q 115 -224 144 -229 q 72 -210 86 -218 l 72 -119 l 146 -120 q 227 -111 197 -122 q 270 -82 257 -99 q 293 -43 284 -65 l 316 19 l 36 718 l 178 718 l 383 179 l 587 718 l 726 718 l 425 -45 q 361 -156 397 -115 q 283 -213 325 -197 q 187 -229 241 -229 z "},"ỳ":{"ha":762,"x_min":36,"x_max":726,"o":"m 187 -229 q 115 -224 144 -229 q 72 -210 86 -218 l 72 -119 l 146 -120 q 227 -111 197 -122 q 270 -82 257 -99 q 293 -43 284 -65 l 316 19 l 36 718 l 178 718 l 383 179 l 587 718 l 726 718 l 425 -45 q 361 -156 397 -115 q 283 -213 325 -197 q 187 -229 241 -229 m 569 881 l 547 813 l 193 914 l 228 1017 l 569 881 z "},"ỷ":{"ha":762,"x_min":36,"x_max":726,"o":"m 187 -229 q 115 -224 144 -229 q 72 -210 86 -218 l 72 -119 l 146 -120 q 227 -111 197 -122 q 270 -82 257 -99 q 293 -43 284 -65 l 316 19 l 36 718 l 178 718 l 383 179 l 587 718 l 726 718 l 425 -45 q 361 -156 397 -115 q 283 -213 325 -197 q 187 -229 241 -229 m 340 974 q 394 992 367 992 q 438 970 425 992 q 446 944 446 959 q 434 909 446 926 q 400 878 422 892 l 440 817 q 504 875 482 842 q 526 942 526 907 q 503 1013 526 978 q 458 1052 485 1038 q 399 1067 431 1067 q 300 1035 349 1067 l 340 974 z "},"ỹ":{"ha":762,"x_min":36,"x_max":726,"o":"m 187 -229 q 115 -224 144 -229 q 72 -210 86 -218 l 72 -119 l 146 -120 q 227 -111 197 -122 q 270 -82 257 -99 q 293 -43 284 -65 l 316 19 l 36 718 l 178 718 l 383 179 l 587 718 l 726 718 l 425 -45 q 361 -156 397 -115 q 283 -213 325 -197 q 187 -229 241 -229 m 613 918 q 490 876 558 876 q 442 881 463 876 q 392 896 420 886 q 349 909 367 904 q 309 913 330 913 q 258 903 278 913 q 209 873 238 894 l 184 946 q 239 986 212 972 q 303 1000 265 1000 q 350 995 327 1000 q 403 979 372 990 q 450 965 431 970 q 490 960 470 960 q 541 971 519 960 q 590 1001 564 982 l 613 918 z "},"z":{"ha":702,"x_min":60,"x_max":637,"o":"m 60 83 l 461 617 l 85 617 l 85 718 l 631 718 l 631 634 l 231 101 l 637 101 l 637 0 l 60 0 l 60 83 z "},"ź":{"ha":702,"x_min":60,"x_max":637,"o":"m 60 83 l 461 617 l 85 617 l 85 718 l 631 718 l 631 634 l 231 101 l 637 101 l 637 0 l 60 0 l 60 83 m 553 914 l 199 813 l 176 881 l 518 1017 l 553 914 z "},"ž":{"ha":702,"x_min":60,"x_max":637,"o":"m 60 83 l 461 617 l 85 617 l 85 718 l 631 718 l 631 634 l 231 101 l 637 101 l 637 0 l 60 0 l 60 83 m 588 1005 l 416 840 l 315 840 l 138 1005 l 260 1005 l 364 909 l 460 1005 l 588 1005 z "},"ż":{"ha":702,"x_min":60,"x_max":637,"o":"m 60 83 l 461 617 l 85 617 l 85 718 l 631 718 l 631 634 l 231 101 l 637 101 l 637 0 l 60 0 l 60 83 m 289 975 l 438 975 l 438 834 l 289 834 l 289 975 z "},"ẓ":{"ha":702,"x_min":60,"x_max":637,"o":"m 60 83 l 461 617 l 85 617 l 85 718 l 631 718 l 631 634 l 231 101 l 637 101 l 637 0 l 60 0 l 60 83 z "},"ﬁ":{"ha":915,"x_min":42,"x_max":806,"o":"m 502 615 l 332 615 l 332 0 l 190 0 l 190 615 l 42 615 l 42 718 l 190 718 l 190 828 q 235 959 190 914 q 368 1004 280 1004 l 508 1004 l 509 905 l 404 905 q 346 883 363 905 q 330 813 330 861 l 330 718 l 502 718 l 502 615 m 806 860 l 656 860 l 656 1002 l 806 1002 l 806 860 m 803 0 l 660 0 l 660 718 l 803 718 l 803 0 z "},"ﬂ":{"ha":960,"x_min":42,"x_max":911,"o":"m 502 615 l 332 615 l 332 0 l 190 0 l 190 615 l 42 615 l 42 718 l 190 718 l 190 828 q 235 959 190 914 q 368 1004 280 1004 l 508 1004 l 509 905 l 404 905 q 346 883 363 905 q 330 813 330 861 l 330 718 l 502 718 l 502 615 m 843 -10 q 723 17 765 -10 q 667 86 681 44 q 652 188 652 129 l 652 1032 l 792 1032 l 792 203 q 873 94 792 101 l 911 93 l 911 3 q 843 -10 874 -10 z "},"ª":{"ha":559,"x_min":60,"x_max":467,"o":"m 209 550 q 99 584 138 550 q 60 676 60 618 q 119 782 60 742 q 288 828 178 822 l 359 834 l 359 865 q 334 927 359 908 q 265 947 308 947 q 202 933 228 947 q 156 883 176 919 l 71 905 q 144 988 97 960 q 269 1015 192 1015 q 408 977 363 1015 q 453 867 453 938 l 453 701 q 458 607 453 646 l 467 558 l 369 558 l 358 616 q 286 566 320 581 q 209 550 253 550 m 244 617 q 329 649 293 617 q 352 675 344 663 q 359 701 359 687 l 359 774 l 299 770 q 194 743 230 766 q 158 681 158 719 q 181 634 158 652 q 244 617 204 617 z "},"º":{"ha":552,"x_min":57,"x_max":496,"o":"m 276 1017 q 392 988 342 1017 q 469 905 442 958 q 496 783 496 851 q 469 663 496 715 q 392 581 442 610 q 276 552 342 552 q 159 581 208 552 q 83 663 110 610 q 57 783 57 715 q 84 905 57 852 q 161 988 112 958 q 276 1017 211 1017 m 276 947 q 189 905 218 947 q 159 786 159 863 q 189 665 159 707 q 276 622 218 622 q 363 665 333 622 q 393 786 393 707 q 363 905 393 863 q 276 947 333 947 z "},"π":{"ha":919,"x_min":36,"x_max":877,"o":"m 725 615 l 725 0 l 588 0 l 588 615 l 306 615 q 282 278 306 454 q 224 0 258 101 l 94 0 q 149 289 126 124 q 171 601 171 453 q 168 611 171 608 q 160 615 165 615 l 36 615 l 36 718 l 877 718 l 877 615 l 725 615 z "},"⁰":{"ha":569,"x_min":17,"x_max":474,"o":"m 247 1173 q 368 1136 317 1173 q 447 1025 419 1099 q 474 847 474 952 q 447 669 474 742 q 368 560 419 597 q 246 524 317 524 q 124 560 175 524 q 45 668 72 597 q 17 845 17 740 q 45 1024 17 951 q 125 1135 73 1098 q 247 1173 176 1173 m 247 599 q 346 658 313 599 q 378 846 378 717 q 345 1038 378 978 q 246 1098 313 1098 q 146 1037 180 1098 q 113 846 113 976 q 146 658 113 717 q 247 599 179 599 z "},"¹":{"ha":416,"x_min":8,"x_max":219,"o":"m 128 1025 l 8 1025 l 8 1081 q 121 1100 88 1081 q 157 1160 154 1119 l 219 1160 l 219 528 l 128 528 l 128 1025 z "},"²":{"ha":509,"x_min":32,"x_max":476,"o":"m 45 612 q 71 709 45 669 q 134 776 97 750 q 232 836 171 803 q 311 882 281 863 q 360 929 340 902 q 379 992 379 956 q 346 1067 379 1038 q 258 1097 313 1097 q 162 1063 199 1097 q 119 972 125 1029 l 32 972 q 60 1074 33 1028 q 138 1147 86 1120 q 261 1174 189 1174 q 373 1151 325 1174 q 447 1087 421 1128 q 473 992 473 1046 q 447 895 473 935 q 385 830 422 855 q 289 774 349 805 q 211 729 239 747 q 164 684 183 710 q 144 623 144 658 l 144 611 l 476 611 l 476 533 l 45 533 l 45 612 z "},"³":{"ha":552,"x_min":35,"x_max":508,"o":"m 42 979 q 72 1084 42 1040 q 152 1151 101 1128 q 264 1174 202 1174 q 383 1155 331 1174 q 463 1099 434 1135 q 492 1010 492 1062 q 461 924 492 962 q 372 867 431 887 q 471 809 434 849 q 508 708 508 768 q 476 610 508 651 q 389 546 444 568 q 263 524 333 524 q 145 548 196 524 q 65 615 94 571 q 35 717 36 658 l 123 717 q 169 630 132 660 q 264 600 206 600 q 372 630 331 600 q 412 710 412 660 q 369 792 412 763 q 260 823 326 822 l 202 824 l 202 899 l 256 901 q 327 916 296 901 q 377 954 359 931 q 395 1006 395 978 q 379 1053 395 1032 q 333 1088 363 1075 q 263 1101 303 1101 q 170 1070 209 1101 q 130 979 132 1040 l 42 979 z "},"⁴":{"ha":574,"x_min":25,"x_max":512,"o":"m 408 1160 l 408 763 l 512 763 l 512 685 l 408 685 l 408 528 l 321 528 l 322 685 l 25 685 l 25 765 l 318 1160 l 408 1160 m 320 763 l 320 1045 l 110 763 l 320 763 z "},"⁵":{"ha":553,"x_min":35,"x_max":517,"o":"m 479 1160 l 476 1083 l 172 1083 l 156 889 q 224 927 188 915 q 303 940 260 940 q 411 916 363 940 q 489 845 460 892 q 517 735 517 799 q 489 620 517 669 q 408 545 460 572 q 285 519 355 519 q 176 539 226 519 q 89 595 125 559 q 35 678 52 631 l 111 713 q 177 625 135 658 q 278 593 219 593 q 383 630 344 593 q 423 731 423 667 q 405 801 423 770 q 354 848 386 831 q 283 865 322 865 q 213 853 243 865 q 151 807 183 842 q 145 806 148 806 q 140 807 143 806 l 68 832 l 97 1160 l 479 1160 z "},"⁶":{"ha":532,"x_min":34,"x_max":501,"o":"m 284 1179 q 384 1159 338 1179 q 459 1102 430 1140 q 494 1012 488 1064 l 411 1012 q 366 1081 399 1056 q 286 1106 334 1106 q 172 1049 212 1106 q 131 885 131 992 q 133 845 131 873 q 194 917 151 890 q 291 944 238 944 q 401 920 353 944 q 475 851 449 897 q 501 746 501 806 q 473 634 501 683 q 395 558 446 585 q 278 531 345 531 q 149 569 203 531 q 64 677 94 607 q 34 845 34 748 q 63 1022 34 947 q 149 1138 92 1097 q 284 1179 205 1179 m 276 874 q 212 858 243 874 q 162 817 181 842 q 143 763 143 791 q 159 679 143 715 q 206 623 176 643 q 276 603 237 603 q 343 620 313 603 q 389 669 372 638 q 406 742 406 701 q 371 839 406 803 q 276 874 337 874 z "},"⁷":{"ha":508,"x_min":46,"x_max":494,"o":"m 494 1160 l 494 1083 q 388 906 441 1011 q 299 697 335 801 q 257 528 263 594 l 160 528 q 199 684 169 592 q 279 882 228 776 q 398 1083 330 988 l 46 1083 l 46 1160 l 494 1160 z "},"⁸":{"ha":553,"x_min":26,"x_max":513,"o":"m 269 1175 q 380 1155 331 1175 q 456 1096 428 1135 q 484 1003 484 1057 q 458 920 484 953 q 386 867 432 886 q 447 838 417 861 q 494 780 476 814 q 513 710 513 746 q 482 615 513 656 q 397 552 452 574 q 269 530 342 530 q 141 552 196 530 q 56 615 85 574 q 26 710 26 656 q 44 780 26 746 q 91 838 62 814 q 152 867 121 861 q 80 920 106 886 q 53 1003 53 953 q 81 1096 53 1057 q 158 1155 109 1135 q 269 1175 207 1175 m 269 903 q 359 930 325 903 q 393 1005 393 956 q 359 1082 393 1053 q 269 1110 324 1110 q 179 1082 213 1110 q 144 1005 144 1053 q 178 930 144 956 q 269 903 213 903 m 269 600 q 376 630 336 600 q 416 711 416 660 q 398 771 416 744 q 347 812 380 797 q 269 826 313 826 q 191 812 225 826 q 140 771 158 797 q 122 711 122 744 q 161 630 122 660 q 269 600 201 600 z "},"⁹":{"ha":561,"x_min":29,"x_max":496,"o":"m 243 531 q 142 551 189 531 q 66 609 96 571 q 29 697 35 647 l 115 697 q 159 630 125 655 q 240 604 192 604 q 362 660 318 604 q 406 832 406 717 q 405 868 406 843 q 345 791 388 820 q 244 763 301 763 q 133 787 181 763 q 58 857 85 811 q 31 965 31 903 q 58 1076 31 1028 q 135 1151 85 1124 q 253 1178 185 1178 q 382 1141 327 1178 q 466 1033 437 1103 q 496 865 496 963 q 466 683 496 758 q 380 569 436 608 q 243 531 323 531 m 254 837 q 318 852 288 837 q 368 894 349 868 q 387 948 387 919 q 371 1031 388 995 q 324 1088 354 1067 q 253 1108 293 1108 q 188 1090 217 1108 q 144 1041 160 1073 q 128 969 128 1010 q 161 872 128 907 q 254 837 194 837 z "},"⁄":{"ha":353,"x_min":-211,"x_max":556,"o":"m -119 -6 l -211 -4 l 466 1015 l 556 1015 l -119 -6 z "},"½":{"ha":1315,"x_min":8,"x_max":1261,"o":"m 128 881 l 8 881 l 8 937 q 121 956 88 937 q 157 1015 154 974 l 219 1015 l 219 383 l 128 383 l 128 881 m 297 -6 l 205 -4 l 882 1015 l 972 1015 l 297 -6 m 831 78 q 857 176 831 135 q 919 243 883 217 q 1017 303 956 269 q 1096 349 1067 329 q 1145 396 1126 369 q 1165 458 1165 423 q 1132 534 1165 505 q 1043 563 1099 563 q 947 530 984 563 q 905 438 910 496 l 817 438 q 845 541 819 495 q 923 614 872 587 q 1047 640 974 640 q 1158 618 1110 640 q 1232 554 1206 595 q 1258 458 1258 513 q 1233 361 1258 401 q 1170 297 1207 322 q 1074 240 1134 272 q 996 195 1024 214 q 949 151 968 177 q 930 90 930 125 l 930 78 l 1261 78 l 1261 0 l 831 0 l 831 78 z "},"⅓":{"ha":1321,"x_min":8,"x_max":1276,"o":"m 128 881 l 8 881 l 8 937 q 121 956 88 937 q 157 1015 154 974 l 219 1015 l 219 383 l 128 383 l 128 881 m 297 -6 l 205 -4 l 882 1015 l 972 1015 l 297 -6 m 811 442 q 841 546 811 502 q 920 613 870 590 q 1033 636 971 636 q 1151 617 1100 636 q 1232 561 1203 598 q 1260 472 1260 524 q 1230 387 1260 424 q 1140 329 1200 349 q 1240 271 1203 312 q 1276 171 1276 231 q 1245 72 1276 114 q 1158 9 1213 31 q 1032 -13 1102 -13 q 914 10 965 -13 q 834 77 863 33 q 803 180 805 121 l 892 180 q 938 93 901 123 q 1033 63 975 63 q 1140 93 1100 63 q 1181 172 1181 123 q 1138 255 1181 225 q 1028 285 1095 285 l 971 287 l 971 361 l 1025 363 q 1096 378 1065 364 q 1146 417 1128 393 q 1164 469 1164 440 q 1148 516 1164 494 q 1102 550 1132 538 q 1032 563 1072 563 q 939 533 978 563 q 899 442 901 502 l 811 442 z "},"⅔":{"ha":1431,"x_min":32,"x_max":1386,"o":"m 45 466 q 71 564 45 523 q 134 631 97 604 q 232 690 171 657 q 311 736 281 717 q 360 783 340 756 q 379 846 379 810 q 346 922 379 892 q 258 951 313 951 q 162 917 199 951 q 119 826 125 883 l 32 826 q 60 928 33 883 q 138 1001 86 974 q 261 1028 189 1028 q 373 1005 325 1028 q 447 941 421 983 q 473 846 473 900 q 447 749 473 789 q 385 684 422 709 q 289 628 349 659 q 211 583 239 601 q 164 539 183 565 q 144 477 144 513 l 144 465 l 476 465 l 476 388 l 45 388 l 45 466 m 406 -6 l 315 -4 l 992 1015 l 1081 1015 l 406 -6 m 921 442 q 950 546 921 502 q 1030 613 980 590 q 1142 636 1081 636 q 1261 617 1210 636 q 1341 561 1313 598 q 1370 472 1370 524 q 1340 387 1370 424 q 1250 329 1310 349 q 1349 271 1313 312 q 1386 171 1386 231 q 1355 72 1386 114 q 1267 9 1323 31 q 1142 -13 1212 -13 q 1023 10 1074 -13 q 943 77 972 33 q 913 180 915 121 l 1001 180 q 1048 93 1010 123 q 1142 63 1085 63 q 1250 93 1210 63 q 1290 172 1290 123 q 1248 255 1290 225 q 1138 285 1205 285 l 1081 287 l 1081 361 l 1135 363 q 1206 378 1174 364 q 1256 417 1238 393 q 1274 469 1274 440 q 1258 516 1274 494 q 1212 550 1242 538 q 1142 563 1182 563 q 1049 533 1088 563 q 1008 442 1010 502 l 921 442 z "},"¼":{"ha":1293,"x_min":8,"x_max":1231,"o":"m 128 881 l 8 881 l 8 937 q 121 956 88 937 q 157 1015 154 974 l 219 1015 l 219 383 l 128 383 l 128 881 m 297 -6 l 205 -4 l 882 1015 l 972 1015 l 297 -6 m 1128 632 l 1128 235 l 1231 235 l 1231 158 l 1128 158 l 1128 0 l 1040 0 l 1041 158 l 744 158 l 744 237 l 1038 632 l 1128 632 m 1040 235 l 1040 517 l 829 235 l 1040 235 z "},"¾":{"ha":1429,"x_min":35,"x_max":1367,"o":"m 42 833 q 72 938 42 894 q 152 1005 101 982 q 264 1028 202 1028 q 383 1009 331 1028 q 463 953 434 990 q 492 864 492 916 q 461 778 492 816 q 372 721 431 741 q 471 663 434 703 q 508 563 508 622 q 476 464 508 506 q 389 400 444 422 q 263 378 333 378 q 145 402 196 378 q 65 469 94 425 q 35 572 36 513 l 123 572 q 169 484 132 515 q 264 454 206 454 q 372 484 331 454 q 412 564 412 515 q 369 647 412 617 q 260 677 326 676 l 202 678 l 202 753 l 256 755 q 327 770 296 756 q 377 808 359 785 q 395 860 395 832 q 379 908 395 886 q 333 942 363 929 q 263 955 303 955 q 170 924 209 955 q 130 833 132 894 l 42 833 m 433 -6 l 341 -4 l 1018 1015 l 1108 1015 l 433 -6 m 1264 632 l 1264 235 l 1367 235 l 1367 158 l 1264 158 l 1264 0 l 1176 0 l 1177 158 l 881 158 l 881 237 l 1174 632 l 1264 632 m 1176 235 l 1176 517 l 965 235 l 1176 235 z "},"⅛":{"ha":1322,"x_min":8,"x_max":1281,"o":"m 128 881 l 8 881 l 8 937 q 121 956 88 937 q 157 1015 154 974 l 219 1015 l 219 383 l 128 383 l 128 881 m 297 -6 l 205 -4 l 882 1015 l 972 1015 l 297 -6 m 1038 636 q 1148 616 1099 636 q 1225 557 1197 596 q 1253 464 1253 518 q 1227 381 1253 415 q 1155 328 1201 347 q 1215 299 1186 322 q 1263 241 1244 275 q 1281 172 1281 207 q 1251 76 1281 117 q 1166 13 1221 35 q 1038 -9 1110 -9 q 909 13 965 -9 q 824 76 854 35 q 794 172 794 117 q 813 241 794 207 q 860 299 831 275 q 921 328 890 322 q 849 381 875 347 q 822 464 822 415 q 850 557 822 518 q 927 616 878 596 q 1038 636 976 636 m 1038 365 q 1128 391 1094 365 q 1162 466 1162 417 q 1127 543 1162 515 q 1038 572 1093 572 q 948 543 982 572 q 913 466 913 514 q 947 391 913 417 q 1038 365 981 365 m 1038 61 q 1145 91 1105 61 q 1185 172 1185 122 q 1167 232 1185 206 q 1115 273 1149 258 q 1038 288 1082 288 q 960 273 994 288 q 908 232 926 258 q 890 172 890 206 q 930 91 890 122 q 1038 61 970 61 z "},"⅜":{"ha":1457,"x_min":35,"x_max":1417,"o":"m 42 833 q 72 938 42 894 q 152 1005 101 982 q 264 1028 202 1028 q 383 1009 331 1028 q 463 953 434 990 q 492 864 492 916 q 461 778 492 816 q 372 721 431 741 q 471 663 434 703 q 508 563 508 622 q 476 464 508 506 q 389 400 444 422 q 263 378 333 378 q 145 402 196 378 q 65 469 94 425 q 35 572 36 513 l 123 572 q 169 484 132 515 q 264 454 206 454 q 372 484 331 454 q 412 564 412 515 q 369 647 412 617 q 260 677 326 676 l 202 678 l 202 753 l 256 755 q 327 770 296 756 q 377 808 359 785 q 395 860 395 832 q 379 908 395 886 q 333 942 363 929 q 263 955 303 955 q 170 924 209 955 q 130 833 132 894 l 42 833 m 433 -6 l 341 -4 l 1018 1015 l 1108 1015 l 433 -6 m 1174 636 q 1284 616 1235 636 q 1361 557 1333 596 q 1389 464 1389 518 q 1363 381 1389 415 q 1291 328 1337 347 q 1351 299 1322 322 q 1399 241 1381 275 q 1417 172 1417 207 q 1387 76 1417 117 q 1302 13 1357 35 q 1174 -9 1247 -9 q 1045 13 1101 -9 q 960 76 990 35 q 931 172 931 117 q 949 241 931 207 q 996 299 967 275 q 1057 328 1026 322 q 985 381 1011 347 q 958 464 958 415 q 986 557 958 518 q 1063 616 1014 596 q 1174 636 1112 636 m 1174 365 q 1264 391 1230 365 q 1298 466 1298 417 q 1264 543 1298 515 q 1174 572 1229 572 q 1084 543 1118 572 q 1049 466 1049 514 q 1083 391 1049 417 q 1174 365 1117 365 m 1174 61 q 1281 91 1241 61 q 1321 172 1321 122 q 1303 232 1321 206 q 1251 273 1285 258 q 1174 288 1218 288 q 1096 273 1130 288 q 1044 232 1063 258 q 1026 172 1026 206 q 1066 91 1026 122 q 1174 61 1106 61 z "},"⅝":{"ha":1458,"x_min":35,"x_max":1419,"o":"m 479 1015 l 476 939 l 172 939 l 156 744 q 224 783 188 771 q 303 795 260 795 q 411 771 363 795 q 489 701 460 747 q 517 590 517 655 q 489 476 517 525 q 408 401 460 427 q 285 374 355 374 q 176 394 226 374 q 89 451 125 415 q 35 533 52 487 l 111 568 q 177 481 135 513 q 278 449 219 449 q 383 486 344 449 q 423 587 423 523 q 405 656 423 626 q 354 703 386 687 q 283 720 322 720 q 213 709 243 720 q 151 663 183 697 q 145 661 148 661 q 140 663 143 661 l 68 688 l 97 1015 l 479 1015 m 434 -6 l 342 -4 l 1019 1015 l 1109 1015 l 434 -6 m 1175 636 q 1286 616 1237 636 q 1363 557 1335 596 q 1390 464 1390 518 q 1364 381 1390 415 q 1292 328 1338 347 q 1353 299 1324 322 q 1400 241 1382 275 q 1419 172 1419 207 q 1389 76 1419 117 q 1303 13 1358 35 q 1175 -9 1248 -9 q 1047 13 1102 -9 q 962 76 992 35 q 932 172 932 117 q 950 241 932 207 q 998 299 968 275 q 1058 328 1027 322 q 986 381 1013 347 q 960 464 960 415 q 988 557 960 518 q 1064 616 1015 596 q 1175 636 1113 636 m 1175 365 q 1265 391 1231 365 q 1299 466 1299 417 q 1265 543 1299 515 q 1175 572 1231 572 q 1085 543 1119 572 q 1051 466 1051 514 q 1085 391 1051 417 q 1175 365 1119 365 m 1175 61 q 1282 91 1242 61 q 1322 172 1322 122 q 1304 232 1322 206 q 1253 273 1286 258 q 1175 288 1219 288 q 1098 273 1131 288 q 1046 232 1064 258 q 1028 172 1028 206 q 1068 91 1028 122 q 1175 61 1108 61 z "},"⅞":{"ha":1413,"x_min":46,"x_max":1373,"o":"m 494 1014 l 494 938 q 388 760 441 865 q 299 551 335 655 q 257 382 263 448 l 160 382 q 199 538 169 446 q 279 736 228 631 q 398 938 330 842 l 46 938 l 46 1014 l 494 1014 m 389 -6 l 297 -4 l 974 1015 l 1064 1015 l 389 -6 m 1129 636 q 1240 616 1191 636 q 1317 557 1289 596 q 1344 464 1344 518 q 1318 381 1344 415 q 1247 328 1292 347 q 1307 299 1278 322 q 1355 241 1336 275 q 1373 172 1373 207 q 1343 76 1373 117 q 1257 13 1313 35 q 1129 -9 1202 -9 q 1001 13 1056 -9 q 916 76 946 35 q 886 172 886 117 q 904 241 886 207 q 952 299 922 275 q 1013 328 981 322 q 940 381 967 347 q 914 464 914 415 q 942 557 914 518 q 1018 616 969 596 q 1129 636 1067 636 m 1129 365 q 1219 391 1185 365 q 1253 466 1253 417 q 1219 543 1253 515 q 1129 572 1185 572 q 1039 543 1074 572 q 1005 466 1005 514 q 1039 391 1005 417 q 1129 365 1073 365 m 1129 61 q 1236 91 1197 61 q 1276 172 1276 122 q 1258 232 1276 206 q 1207 273 1240 258 q 1129 288 1174 288 q 1052 273 1085 288 q 1000 232 1018 258 q 982 172 982 206 q 1022 91 982 122 q 1129 61 1062 61 z "},".":{"ha":324,"x_min":75,"x_max":241,"o":"m 241 0 l 75 0 l 75 174 l 241 174 l 241 0 z "},",":{"ha":344,"x_min":61,"x_max":246,"o":"m 140 -3 l 77 1 l 77 162 l 246 162 l 246 22 l 124 -178 l 61 -178 l 140 -3 z "},":":{"ha":324,"x_min":75,"x_max":241,"o":"m 241 519 l 75 519 l 75 692 l 241 692 l 241 519 m 241 4 l 75 4 l 75 176 l 241 176 l 241 4 z "},";":{"ha":343,"x_min":75,"x_max":260,"o":"m 90 690 l 256 690 l 256 515 l 90 515 l 90 690 m 156 0 l 94 0 l 94 172 l 260 172 l 260 20 l 135 -201 l 75 -201 l 156 0 z "},"…":{"ha":1094,"x_min":92,"x_max":1032,"o":"m 1032 0 l 866 0 l 866 174 l 1032 174 l 1032 0 m 258 0 l 92 0 l 92 174 l 258 174 l 258 0 m 645 0 l 479 0 l 479 174 l 645 174 l 645 0 z "},"!":{"ha":356,"x_min":90,"x_max":259,"o":"m 222 265 l 128 265 l 90 1004 l 259 1004 l 222 265 m 256 0 l 92 0 l 92 172 l 256 172 l 256 0 z "},"¡":{"ha":354,"x_min":90,"x_max":260,"o":"m 92 547 l 92 718 l 256 718 l 256 547 l 92 547 m 90 -224 l 128 452 l 222 452 l 260 -224 l 90 -224 z "},"?":{"ha":741,"x_min":29,"x_max":676,"o":"m 29 813 q 161 964 73 910 q 363 1018 249 1018 q 527 987 456 1018 q 637 902 598 956 q 676 778 676 847 q 657 678 676 723 q 611 600 638 634 q 537 520 583 567 q 464 442 492 475 q 418 365 437 408 q 400 268 400 322 l 281 268 q 301 389 281 335 q 349 482 321 443 q 424 572 378 521 q 482 640 461 613 q 517 701 503 668 q 531 772 531 734 q 510 846 531 815 q 451 895 489 878 q 363 913 413 913 q 277 895 319 913 q 202 846 235 877 q 154 777 169 815 l 29 813 m 423 0 l 258 0 l 258 172 l 423 172 l 423 0 z "},"¿":{"ha":726,"x_min":44,"x_max":691,"o":"m 297 718 l 463 718 l 463 547 l 297 547 l 297 718 m 691 -31 q 559 -183 647 -129 q 356 -237 472 -237 q 188 -207 258 -237 q 81 -121 118 -176 q 44 4 44 -66 q 64 98 44 58 q 110 167 83 139 q 184 234 138 195 q 256 299 229 272 q 301 365 283 326 q 319 455 319 404 l 440 455 q 419 341 440 390 q 370 259 399 292 q 295 183 342 226 q 238 127 258 150 q 203 76 217 105 q 189 10 189 47 q 210 -63 189 -31 q 269 -112 231 -94 q 358 -129 308 -129 q 443 -111 401 -129 q 519 -63 486 -94 q 566 5 551 -33 l 691 -31 z "},"·":{"ha":326,"x_min":75,"x_max":243,"o":"m 243 425 l 75 425 l 75 587 l 243 587 l 243 425 z "},"•":{"ha":449,"x_min":78,"x_max":363,"o":"m 220 367 q 149 387 181 367 q 97 439 116 406 q 78 511 78 472 q 97 583 78 550 q 149 634 116 615 q 220 653 181 653 q 292 634 259 653 q 343 583 324 615 q 363 511 363 550 q 343 439 363 472 q 292 387 324 406 q 220 367 259 367 z "},"*":{"ha":567,"x_min":38,"x_max":530,"o":"m 285 699 l 173 517 l 90 573 l 224 738 l 38 790 l 69 878 l 247 806 l 233 1004 l 335 1004 l 322 805 l 501 883 l 530 795 l 347 738 l 478 579 l 394 521 l 285 699 z "},"#":{"ha":841,"x_min":49,"x_max":787,"o":"m 624 608 l 594 407 l 742 407 l 742 323 l 582 323 l 533 -3 l 449 9 l 496 323 l 295 323 l 246 -3 l 163 9 l 210 323 l 49 323 l 49 407 l 223 407 l 253 608 l 93 608 l 93 692 l 266 692 l 313 1006 l 397 997 l 351 692 l 552 692 l 599 1006 l 683 997 l 638 692 l 787 692 l 787 608 l 624 608 m 539 608 l 338 608 l 308 407 l 509 407 l 539 608 z "},"/":{"ha":494,"x_min":18,"x_max":474,"o":"m 367 1004 l 474 1004 l 126 -49 l 18 -49 l 367 1004 z "},"\\":{"ha":494,"x_min":15,"x_max":471,"o":"m 15 1004 l 123 1004 l 471 -49 l 363 -49 l 15 1004 z "},"(":{"ha":428,"x_min":94,"x_max":390,"o":"m 390 1051 q 272 749 315 908 q 228 432 228 590 q 266 132 228 279 q 381 -176 304 -16 l 283 -176 q 180 23 221 -71 q 117 217 140 116 q 94 433 94 319 q 147 758 94 599 q 292 1051 200 916 l 390 1051 z "},")":{"ha":436,"x_min":25,"x_max":322,"o":"m 124 1051 q 268 757 215 916 q 322 433 322 599 q 299 218 322 319 q 236 23 276 116 q 133 -176 195 -71 l 35 -176 q 149 131 111 -17 q 187 432 187 278 q 143 750 187 590 q 25 1051 100 909 l 124 1051 z "},"{":{"ha":469,"x_min":13,"x_max":431,"o":"m 169 858 q 194 936 169 903 q 261 987 219 969 q 355 1004 303 1004 l 431 1004 l 431 916 l 378 916 q 310 899 328 916 q 292 844 292 881 l 292 553 q 251 443 292 481 q 154 399 211 404 q 145 394 145 397 q 154 390 145 390 q 252 348 213 385 q 292 233 292 311 l 292 -61 q 311 -118 292 -101 q 379 -135 330 -135 l 431 -135 l 431 -224 l 358 -224 q 260 -206 303 -224 q 193 -154 217 -187 q 169 -74 169 -120 l 169 223 q 152 286 169 257 q 99 334 135 316 q 13 353 64 353 l 13 435 q 131 472 92 435 q 169 571 169 508 l 169 858 z "},"}":{"ha":474,"x_min":26,"x_max":443,"o":"m 286 571 q 325 472 286 508 q 443 435 364 435 l 443 353 q 356 334 392 353 q 303 286 321 316 q 286 223 286 257 l 286 -74 q 262 -154 286 -120 q 195 -206 238 -187 q 99 -224 153 -224 l 26 -224 l 26 -135 l 76 -135 q 144 -118 126 -135 q 163 -61 163 -101 l 163 233 q 205 348 165 311 q 302 390 244 385 q 311 394 311 390 q 302 399 311 397 q 205 443 245 404 q 163 553 165 481 l 163 844 q 145 899 163 881 q 77 916 128 916 l 26 916 l 26 1004 l 101 1004 q 195 987 153 1004 q 262 936 238 969 q 286 858 286 903 l 286 571 z "},"[":{"ha":429,"x_min":120,"x_max":390,"o":"m 390 1004 l 390 916 l 243 916 l 242 -135 l 390 -135 l 390 -224 l 122 -224 l 120 1004 l 390 1004 z "},"]":{"ha":447,"x_min":27,"x_max":297,"o":"m 297 -224 l 28 -224 l 28 -135 l 175 -135 l 174 916 l 27 916 l 27 1004 l 297 1004 l 297 -224 z "},"-":{"ha":533,"x_min":85,"x_max":442,"o":"m 442 304 l 85 303 l 85 413 l 442 413 l 442 304 z "},"­":{"ha":533,"x_min":85,"x_max":442,"o":"m 442 304 l 85 303 l 85 413 l 442 413 l 442 304 z "},"–":{"ha":785,"x_min":85,"x_max":694,"o":"m 694 294 l 85 292 l 85 402 l 694 403 l 694 294 z "},"—":{"ha":1222,"x_min":85,"x_max":1132,"o":"m 1132 294 l 85 292 l 85 402 l 1132 403 l 1132 294 z "},"_":{"ha":728,"x_min":85,"x_max":640,"o":"m 640 -169 l 85 -169 l 85 -61 l 640 -60 l 640 -169 z "},"‚":{"ha":344,"x_min":61,"x_max":246,"o":"m 139 -2 l 77 1 l 77 163 l 246 163 l 246 22 l 124 -177 l 61 -177 l 139 -2 z "},"„":{"ha":609,"x_min":61,"x_max":510,"o":"m 403 -2 l 342 1 l 342 163 l 510 163 l 510 22 l 388 -177 l 326 -177 l 403 -2 m 139 -2 l 77 1 l 77 163 l 246 163 l 246 22 l 124 -177 l 61 -177 l 139 -2 z "},"“":{"ha":597,"x_min":70,"x_max":513,"o":"m 70 806 l 193 1004 l 256 1004 l 177 830 l 238 826 l 238 665 l 70 665 l 70 806 m 329 806 l 451 1004 l 513 1004 l 435 830 l 497 826 l 497 665 l 329 665 l 329 806 z "},"”":{"ha":572,"x_min":69,"x_max":512,"o":"m 147 840 l 85 844 l 85 1004 l 253 1004 l 253 864 l 132 665 l 69 665 l 147 840 m 406 840 l 344 844 l 344 1004 l 512 1004 l 512 864 l 390 665 l 327 665 l 406 840 z "},"‘":{"ha":338,"x_min":70,"x_max":254,"o":"m 177 872 l 238 869 l 238 708 l 70 708 l 70 849 l 192 1048 l 254 1048 l 177 872 z "},"’":{"ha":314,"x_min":69,"x_max":253,"o":"m 147 840 l 85 844 l 85 1004 l 253 1004 l 253 864 l 132 665 l 69 665 l 147 840 z "},"«":{"ha":643,"x_min":58,"x_max":566,"o":"m 315 96 l 237 96 l 58 349 l 238 613 l 317 613 l 182 349 l 315 96 m 565 96 l 486 96 l 307 349 l 486 613 l 566 613 l 431 349 l 565 96 z "},"»":{"ha":642,"x_min":71,"x_max":578,"o":"m 71 613 l 150 613 l 328 349 l 151 96 l 73 96 l 206 349 l 71 613 m 319 613 l 399 613 l 578 349 l 399 96 l 321 96 l 455 349 l 319 613 z "},"‹":{"ha":394,"x_min":58,"x_max":317,"o":"m 315 96 l 237 96 l 58 349 l 238 613 l 317 613 l 182 349 l 315 96 z "},"›":{"ha":393,"x_min":71,"x_max":328,"o":"m 71 613 l 150 613 l 328 349 l 151 96 l 73 96 l 206 349 l 71 613 z "},"\"":{"ha":604,"x_min":92,"x_max":513,"o":"m 469 668 l 391 668 l 349 1004 l 513 1004 l 469 668 m 213 668 l 134 668 l 92 1004 l 256 1004 l 213 668 z "},"'":{"ha":348,"x_min":92,"x_max":256,"o":"m 213 668 l 134 668 l 92 1004 l 256 1004 l 213 668 z "}," ":{"ha":320,"x_min":0,"x_max":0,"o":""},"¢":{"ha":759,"x_min":68,"x_max":690,"o":"m 406 247 q 512 284 469 247 q 567 381 555 322 l 688 381 q 613 221 676 283 q 455 144 549 159 l 455 0 l 353 0 l 353 143 q 203 203 267 154 q 103 331 138 251 q 68 510 68 410 q 103 691 68 610 q 202 822 138 772 q 353 883 267 872 l 353 1004 l 455 1004 l 455 882 q 568 840 518 872 q 650 756 618 807 q 690 640 681 705 l 566 638 q 508 738 550 701 q 405 774 465 774 q 298 742 343 774 q 227 651 252 710 q 203 513 203 592 q 227 372 203 432 q 298 279 252 312 q 406 247 344 247 z "},"₡":{"ha":815,"x_min":68,"x_max":690,"o":"m 406 235 q 512 273 469 235 q 567 369 555 311 l 688 369 q 620 218 676 278 q 479 138 564 158 l 442 1 l 356 2 l 389 129 q 308 141 347 130 l 271 1 l 184 2 l 228 174 q 110 304 153 219 q 68 499 68 389 q 98 669 68 592 q 185 796 128 745 q 317 865 241 847 l 354 1003 l 441 1004 l 408 875 q 488 864 451 874 l 526 1003 l 613 1004 l 567 829 q 649 746 617 797 q 690 628 681 694 l 566 626 q 508 726 550 690 q 405 763 465 763 q 298 731 343 763 q 227 640 252 699 q 203 501 203 581 q 227 361 203 421 q 298 268 252 301 q 406 235 344 235 z "},"¤":{"ha":759,"x_min":68,"x_max":680,"o":"m 377 233 q 229 276 296 233 q 220 280 224 280 q 210 274 215 280 l 134 197 l 68 267 l 152 349 q 116 423 128 385 q 105 505 105 460 q 147 649 105 587 q 149 659 149 655 q 144 669 149 664 l 69 745 l 135 813 l 220 726 q 293 763 253 750 q 374 776 333 776 q 522 732 457 776 q 530 729 527 729 q 538 733 534 729 l 613 809 l 679 741 l 597 659 q 646 506 646 588 q 635 427 646 465 q 602 360 624 390 q 599 352 599 354 q 603 345 599 350 l 680 271 l 614 203 l 532 285 q 377 233 458 233 m 377 338 q 462 361 424 338 q 523 423 501 384 q 544 506 544 461 q 523 588 544 549 q 462 650 501 627 q 377 674 424 674 q 291 650 330 674 q 231 588 253 627 q 208 506 208 549 q 231 423 208 461 q 291 361 253 384 q 377 338 330 338 z "},"$":{"ha":920,"x_min":81,"x_max":840,"o":"m 840 262 q 802 131 840 190 q 696 36 765 73 q 536 -10 627 -1 l 536 -143 l 407 -143 l 407 -10 q 183 72 268 3 q 81 262 97 141 l 229 269 q 314 147 249 189 q 474 105 378 105 q 580 124 531 105 q 659 179 629 144 q 688 260 688 215 q 650 361 688 324 q 528 421 612 399 l 356 465 q 175 557 239 492 q 111 724 111 622 q 149 863 111 801 q 256 964 188 925 q 415 1013 325 1003 l 415 1153 l 544 1153 l 544 1013 q 690 960 627 1001 q 786 859 752 919 q 822 730 819 799 l 677 723 q 615 854 663 810 q 479 898 567 898 q 372 879 421 898 q 293 823 323 860 q 264 736 264 787 q 280 676 264 701 q 331 632 295 651 q 433 594 367 613 l 599 548 q 782 440 724 514 q 840 262 840 367 z "},"₫":{"ha":713,"x_min":57,"x_max":690,"o":"m 690 919 l 690 847 l 605 847 l 605 183 l 486 183 l 486 263 q 442 219 464 238 q 384 186 419 201 q 300 172 348 172 q 175 206 231 172 q 89 307 120 240 q 57 469 57 374 q 90 633 57 562 q 181 744 123 705 q 312 783 239 783 q 397 767 362 783 q 465 722 432 751 q 477 715 474 715 q 483 729 483 715 l 483 847 l 304 847 l 304 919 l 483 919 l 483 1003 l 605 1003 l 605 919 l 690 919 m 480 631 q 418 678 449 663 q 347 694 386 694 q 263 670 299 694 q 207 595 227 645 q 186 473 186 546 q 230 311 186 365 q 344 258 273 258 q 413 275 382 258 q 462 319 444 292 q 480 374 480 347 l 480 631 m 90 77 l 609 77 l 609 0 l 90 0 l 90 77 z "},"€":{"ha":846,"x_min":-11,"x_max":792,"o":"m 792 96 q 671 16 740 46 q 524 -14 601 -14 q 334 30 418 -14 q 194 155 250 73 q 116 349 139 236 l -11 349 l -11 436 l 104 436 q 101 506 101 466 q 104 572 101 543 l -11 572 l -11 658 l 115 658 q 193 852 138 771 q 332 975 249 933 q 521 1018 415 1018 q 668 989 599 1018 q 790 908 738 960 l 692 824 q 616 879 654 859 q 533 899 578 899 q 368 839 433 899 q 281 658 304 778 l 547 658 l 547 572 l 269 572 q 267 503 267 539 q 269 437 267 468 l 547 437 l 547 350 l 282 350 q 373 171 307 231 q 542 111 440 111 q 636 132 590 111 q 715 185 681 153 l 792 96 z "},"ƒ":{"ha":649,"x_min":-85,"x_max":612,"o":"m 538 615 l 367 615 l 251 -50 q 182 -184 236 -137 q 40 -232 128 -232 l -85 -232 l -70 -133 l 10 -132 q 80 -108 57 -131 q 113 -26 103 -85 l 225 615 l 109 615 l 127 718 l 243 718 l 263 828 q 332 959 278 913 q 472 1004 386 1004 l 612 1004 l 596 905 l 496 905 q 433 878 460 905 q 399 809 406 851 l 383 718 l 556 718 l 538 615 z "},"₣":{"ha":849,"x_min":-12,"x_max":783,"o":"m 276 883 l 276 551 l 691 551 l 691 432 l 276 432 l 276 268 l 499 268 l 499 182 l 276 182 l 276 0 l 115 0 l 115 181 l -12 181 l -12 267 l 115 267 l 115 1004 l 783 1004 l 782 883 l 276 883 z "}}}
